G04 EAGLE Gerber RS-274X export*
G75*
%MOMM*%
%FSLAX34Y34*%
%LPD*%
%INSolderpaste Bottom*%
%IPPOS*%
%AMOC8*
5,1,8,0,0,1.08239X$1,22.5*%
G01*
%ADD10C,0.105000*%
%ADD11C,0.096000*%
%ADD12C,0.098000*%


D10*
X246950Y153623D02*
X246950Y138673D01*
X241000Y138673D01*
X241000Y153623D01*
X246950Y153623D01*
X246950Y139670D02*
X241000Y139670D01*
X241000Y140667D02*
X246950Y140667D01*
X246950Y141664D02*
X241000Y141664D01*
X241000Y142661D02*
X246950Y142661D01*
X246950Y143658D02*
X241000Y143658D01*
X241000Y144655D02*
X246950Y144655D01*
X246950Y145652D02*
X241000Y145652D01*
X241000Y146649D02*
X246950Y146649D01*
X246950Y147646D02*
X241000Y147646D01*
X241000Y148643D02*
X246950Y148643D01*
X246950Y149640D02*
X241000Y149640D01*
X241000Y150637D02*
X246950Y150637D01*
X246950Y151634D02*
X241000Y151634D01*
X241000Y152631D02*
X246950Y152631D01*
X235950Y153623D02*
X235950Y138673D01*
X230000Y138673D01*
X230000Y153623D01*
X235950Y153623D01*
X235950Y139670D02*
X230000Y139670D01*
X230000Y140667D02*
X235950Y140667D01*
X235950Y141664D02*
X230000Y141664D01*
X230000Y142661D02*
X235950Y142661D01*
X235950Y143658D02*
X230000Y143658D01*
X230000Y144655D02*
X235950Y144655D01*
X235950Y145652D02*
X230000Y145652D01*
X230000Y146649D02*
X235950Y146649D01*
X235950Y147646D02*
X230000Y147646D01*
X230000Y148643D02*
X235950Y148643D01*
X235950Y149640D02*
X230000Y149640D01*
X230000Y150637D02*
X235950Y150637D01*
X235950Y151634D02*
X230000Y151634D01*
X230000Y152631D02*
X235950Y152631D01*
X224950Y153623D02*
X224950Y138673D01*
X219000Y138673D01*
X219000Y153623D01*
X224950Y153623D01*
X224950Y139670D02*
X219000Y139670D01*
X219000Y140667D02*
X224950Y140667D01*
X224950Y141664D02*
X219000Y141664D01*
X219000Y142661D02*
X224950Y142661D01*
X224950Y143658D02*
X219000Y143658D01*
X219000Y144655D02*
X224950Y144655D01*
X224950Y145652D02*
X219000Y145652D01*
X219000Y146649D02*
X224950Y146649D01*
X224950Y147646D02*
X219000Y147646D01*
X219000Y148643D02*
X224950Y148643D01*
X224950Y149640D02*
X219000Y149640D01*
X219000Y150637D02*
X224950Y150637D01*
X224950Y151634D02*
X219000Y151634D01*
X219000Y152631D02*
X224950Y152631D01*
X257950Y153623D02*
X257950Y138673D01*
X252000Y138673D01*
X252000Y153623D01*
X257950Y153623D01*
X257950Y139670D02*
X252000Y139670D01*
X252000Y140667D02*
X257950Y140667D01*
X257950Y141664D02*
X252000Y141664D01*
X252000Y142661D02*
X257950Y142661D01*
X257950Y143658D02*
X252000Y143658D01*
X252000Y144655D02*
X257950Y144655D01*
X257950Y145652D02*
X252000Y145652D01*
X252000Y146649D02*
X257950Y146649D01*
X257950Y147646D02*
X252000Y147646D01*
X252000Y148643D02*
X257950Y148643D01*
X257950Y149640D02*
X252000Y149640D01*
X252000Y150637D02*
X257950Y150637D01*
X257950Y151634D02*
X252000Y151634D01*
X252000Y152631D02*
X257950Y152631D01*
X268950Y153623D02*
X268950Y138673D01*
X263000Y138673D01*
X263000Y153623D01*
X268950Y153623D01*
X268950Y139670D02*
X263000Y139670D01*
X263000Y140667D02*
X268950Y140667D01*
X268950Y141664D02*
X263000Y141664D01*
X263000Y142661D02*
X268950Y142661D01*
X268950Y143658D02*
X263000Y143658D01*
X263000Y144655D02*
X268950Y144655D01*
X268950Y145652D02*
X263000Y145652D01*
X263000Y146649D02*
X268950Y146649D01*
X268950Y147646D02*
X263000Y147646D01*
X263000Y148643D02*
X268950Y148643D01*
X268950Y149640D02*
X263000Y149640D01*
X263000Y150637D02*
X268950Y150637D01*
X268950Y151634D02*
X263000Y151634D01*
X263000Y152631D02*
X268950Y152631D01*
X279950Y153623D02*
X279950Y138673D01*
X274000Y138673D01*
X274000Y153623D01*
X279950Y153623D01*
X279950Y139670D02*
X274000Y139670D01*
X274000Y140667D02*
X279950Y140667D01*
X279950Y141664D02*
X274000Y141664D01*
X274000Y142661D02*
X279950Y142661D01*
X279950Y143658D02*
X274000Y143658D01*
X274000Y144655D02*
X279950Y144655D01*
X279950Y145652D02*
X274000Y145652D01*
X274000Y146649D02*
X279950Y146649D01*
X279950Y147646D02*
X274000Y147646D01*
X274000Y148643D02*
X279950Y148643D01*
X279950Y149640D02*
X274000Y149640D01*
X274000Y150637D02*
X279950Y150637D01*
X279950Y151634D02*
X274000Y151634D01*
X274000Y152631D02*
X279950Y152631D01*
X290950Y153623D02*
X290950Y138673D01*
X285000Y138673D01*
X285000Y153623D01*
X290950Y153623D01*
X290950Y139670D02*
X285000Y139670D01*
X285000Y140667D02*
X290950Y140667D01*
X290950Y141664D02*
X285000Y141664D01*
X285000Y142661D02*
X290950Y142661D01*
X290950Y143658D02*
X285000Y143658D01*
X285000Y144655D02*
X290950Y144655D01*
X290950Y145652D02*
X285000Y145652D01*
X285000Y146649D02*
X290950Y146649D01*
X290950Y147646D02*
X285000Y147646D01*
X285000Y148643D02*
X290950Y148643D01*
X290950Y149640D02*
X285000Y149640D01*
X285000Y150637D02*
X290950Y150637D01*
X290950Y151634D02*
X285000Y151634D01*
X285000Y152631D02*
X290950Y152631D01*
X301950Y153623D02*
X301950Y138673D01*
X296000Y138673D01*
X296000Y153623D01*
X301950Y153623D01*
X301950Y139670D02*
X296000Y139670D01*
X296000Y140667D02*
X301950Y140667D01*
X301950Y141664D02*
X296000Y141664D01*
X296000Y142661D02*
X301950Y142661D01*
X301950Y143658D02*
X296000Y143658D01*
X296000Y144655D02*
X301950Y144655D01*
X301950Y145652D02*
X296000Y145652D01*
X296000Y146649D02*
X301950Y146649D01*
X301950Y147646D02*
X296000Y147646D01*
X296000Y148643D02*
X301950Y148643D01*
X301950Y149640D02*
X296000Y149640D01*
X296000Y150637D02*
X301950Y150637D01*
X301950Y151634D02*
X296000Y151634D01*
X296000Y152631D02*
X301950Y152631D01*
X312950Y153623D02*
X312950Y138673D01*
X307000Y138673D01*
X307000Y153623D01*
X312950Y153623D01*
X312950Y139670D02*
X307000Y139670D01*
X307000Y140667D02*
X312950Y140667D01*
X312950Y141664D02*
X307000Y141664D01*
X307000Y142661D02*
X312950Y142661D01*
X312950Y143658D02*
X307000Y143658D01*
X307000Y144655D02*
X312950Y144655D01*
X312950Y145652D02*
X307000Y145652D01*
X307000Y146649D02*
X312950Y146649D01*
X312950Y147646D02*
X307000Y147646D01*
X307000Y148643D02*
X312950Y148643D01*
X312950Y149640D02*
X307000Y149640D01*
X307000Y150637D02*
X312950Y150637D01*
X312950Y151634D02*
X307000Y151634D01*
X307000Y152631D02*
X312950Y152631D01*
D11*
X172495Y55668D02*
X161455Y55668D01*
X172495Y55668D02*
X172495Y34628D01*
X161455Y34628D01*
X161455Y55668D01*
X161455Y35540D02*
X172495Y35540D01*
X172495Y36452D02*
X161455Y36452D01*
X161455Y37364D02*
X172495Y37364D01*
X172495Y38276D02*
X161455Y38276D01*
X161455Y39188D02*
X172495Y39188D01*
X172495Y40100D02*
X161455Y40100D01*
X161455Y41012D02*
X172495Y41012D01*
X172495Y41924D02*
X161455Y41924D01*
X161455Y42836D02*
X172495Y42836D01*
X172495Y43748D02*
X161455Y43748D01*
X161455Y44660D02*
X172495Y44660D01*
X172495Y45572D02*
X161455Y45572D01*
X161455Y46484D02*
X172495Y46484D01*
X172495Y47396D02*
X161455Y47396D01*
X161455Y48308D02*
X172495Y48308D01*
X172495Y49220D02*
X161455Y49220D01*
X161455Y50132D02*
X172495Y50132D01*
X172495Y51044D02*
X161455Y51044D01*
X161455Y51956D02*
X172495Y51956D01*
X172495Y52868D02*
X161455Y52868D01*
X161455Y53780D02*
X172495Y53780D01*
X172495Y54692D02*
X161455Y54692D01*
X161455Y55604D02*
X172495Y55604D01*
X316455Y55668D02*
X327495Y55668D01*
X327495Y34628D01*
X316455Y34628D01*
X316455Y55668D01*
X316455Y35540D02*
X327495Y35540D01*
X327495Y36452D02*
X316455Y36452D01*
X316455Y37364D02*
X327495Y37364D01*
X327495Y38276D02*
X316455Y38276D01*
X316455Y39188D02*
X327495Y39188D01*
X327495Y40100D02*
X316455Y40100D01*
X316455Y41012D02*
X327495Y41012D01*
X327495Y41924D02*
X316455Y41924D01*
X316455Y42836D02*
X327495Y42836D01*
X327495Y43748D02*
X316455Y43748D01*
X316455Y44660D02*
X327495Y44660D01*
X327495Y45572D02*
X316455Y45572D01*
X316455Y46484D02*
X327495Y46484D01*
X327495Y47396D02*
X316455Y47396D01*
X316455Y48308D02*
X327495Y48308D01*
X327495Y49220D02*
X316455Y49220D01*
X316455Y50132D02*
X327495Y50132D01*
X327495Y51044D02*
X316455Y51044D01*
X316455Y51956D02*
X327495Y51956D01*
X327495Y52868D02*
X316455Y52868D01*
X316455Y53780D02*
X327495Y53780D01*
X327495Y54692D02*
X316455Y54692D01*
X316455Y55604D02*
X327495Y55604D01*
D12*
X183485Y147658D02*
X168465Y147658D01*
X183485Y147658D02*
X183485Y134638D01*
X168465Y134638D01*
X168465Y147658D01*
X168465Y135569D02*
X183485Y135569D01*
X183485Y136500D02*
X168465Y136500D01*
X168465Y137431D02*
X183485Y137431D01*
X183485Y138362D02*
X168465Y138362D01*
X168465Y139293D02*
X183485Y139293D01*
X183485Y140224D02*
X168465Y140224D01*
X168465Y141155D02*
X183485Y141155D01*
X183485Y142086D02*
X168465Y142086D01*
X168465Y143017D02*
X183485Y143017D01*
X183485Y143948D02*
X168465Y143948D01*
X168465Y144879D02*
X183485Y144879D01*
X183485Y145810D02*
X168465Y145810D01*
X168465Y146741D02*
X183485Y146741D01*
D11*
X316455Y147668D02*
X327495Y147668D01*
X327495Y132628D01*
X316455Y132628D01*
X316455Y147668D01*
X316455Y133540D02*
X327495Y133540D01*
X327495Y134452D02*
X316455Y134452D01*
X316455Y135364D02*
X327495Y135364D01*
X327495Y136276D02*
X316455Y136276D01*
X316455Y137188D02*
X327495Y137188D01*
X327495Y138100D02*
X316455Y138100D01*
X316455Y139012D02*
X327495Y139012D01*
X327495Y139924D02*
X316455Y139924D01*
X316455Y140836D02*
X327495Y140836D01*
X327495Y141748D02*
X316455Y141748D01*
X316455Y142660D02*
X327495Y142660D01*
X327495Y143572D02*
X316455Y143572D01*
X316455Y144484D02*
X327495Y144484D01*
X327495Y145396D02*
X316455Y145396D01*
X316455Y146308D02*
X327495Y146308D01*
X327495Y147220D02*
X316455Y147220D01*
D10*
X760030Y153623D02*
X760030Y138673D01*
X754080Y138673D01*
X754080Y153623D01*
X760030Y153623D01*
X760030Y139670D02*
X754080Y139670D01*
X754080Y140667D02*
X760030Y140667D01*
X760030Y141664D02*
X754080Y141664D01*
X754080Y142661D02*
X760030Y142661D01*
X760030Y143658D02*
X754080Y143658D01*
X754080Y144655D02*
X760030Y144655D01*
X760030Y145652D02*
X754080Y145652D01*
X754080Y146649D02*
X760030Y146649D01*
X760030Y147646D02*
X754080Y147646D01*
X754080Y148643D02*
X760030Y148643D01*
X760030Y149640D02*
X754080Y149640D01*
X754080Y150637D02*
X760030Y150637D01*
X760030Y151634D02*
X754080Y151634D01*
X754080Y152631D02*
X760030Y152631D01*
X749030Y153623D02*
X749030Y138673D01*
X743080Y138673D01*
X743080Y153623D01*
X749030Y153623D01*
X749030Y139670D02*
X743080Y139670D01*
X743080Y140667D02*
X749030Y140667D01*
X749030Y141664D02*
X743080Y141664D01*
X743080Y142661D02*
X749030Y142661D01*
X749030Y143658D02*
X743080Y143658D01*
X743080Y144655D02*
X749030Y144655D01*
X749030Y145652D02*
X743080Y145652D01*
X743080Y146649D02*
X749030Y146649D01*
X749030Y147646D02*
X743080Y147646D01*
X743080Y148643D02*
X749030Y148643D01*
X749030Y149640D02*
X743080Y149640D01*
X743080Y150637D02*
X749030Y150637D01*
X749030Y151634D02*
X743080Y151634D01*
X743080Y152631D02*
X749030Y152631D01*
X738030Y153623D02*
X738030Y138673D01*
X732080Y138673D01*
X732080Y153623D01*
X738030Y153623D01*
X738030Y139670D02*
X732080Y139670D01*
X732080Y140667D02*
X738030Y140667D01*
X738030Y141664D02*
X732080Y141664D01*
X732080Y142661D02*
X738030Y142661D01*
X738030Y143658D02*
X732080Y143658D01*
X732080Y144655D02*
X738030Y144655D01*
X738030Y145652D02*
X732080Y145652D01*
X732080Y146649D02*
X738030Y146649D01*
X738030Y147646D02*
X732080Y147646D01*
X732080Y148643D02*
X738030Y148643D01*
X738030Y149640D02*
X732080Y149640D01*
X732080Y150637D02*
X738030Y150637D01*
X738030Y151634D02*
X732080Y151634D01*
X732080Y152631D02*
X738030Y152631D01*
X771030Y153623D02*
X771030Y138673D01*
X765080Y138673D01*
X765080Y153623D01*
X771030Y153623D01*
X771030Y139670D02*
X765080Y139670D01*
X765080Y140667D02*
X771030Y140667D01*
X771030Y141664D02*
X765080Y141664D01*
X765080Y142661D02*
X771030Y142661D01*
X771030Y143658D02*
X765080Y143658D01*
X765080Y144655D02*
X771030Y144655D01*
X771030Y145652D02*
X765080Y145652D01*
X765080Y146649D02*
X771030Y146649D01*
X771030Y147646D02*
X765080Y147646D01*
X765080Y148643D02*
X771030Y148643D01*
X771030Y149640D02*
X765080Y149640D01*
X765080Y150637D02*
X771030Y150637D01*
X771030Y151634D02*
X765080Y151634D01*
X765080Y152631D02*
X771030Y152631D01*
X782030Y153623D02*
X782030Y138673D01*
X776080Y138673D01*
X776080Y153623D01*
X782030Y153623D01*
X782030Y139670D02*
X776080Y139670D01*
X776080Y140667D02*
X782030Y140667D01*
X782030Y141664D02*
X776080Y141664D01*
X776080Y142661D02*
X782030Y142661D01*
X782030Y143658D02*
X776080Y143658D01*
X776080Y144655D02*
X782030Y144655D01*
X782030Y145652D02*
X776080Y145652D01*
X776080Y146649D02*
X782030Y146649D01*
X782030Y147646D02*
X776080Y147646D01*
X776080Y148643D02*
X782030Y148643D01*
X782030Y149640D02*
X776080Y149640D01*
X776080Y150637D02*
X782030Y150637D01*
X782030Y151634D02*
X776080Y151634D01*
X776080Y152631D02*
X782030Y152631D01*
X793030Y153623D02*
X793030Y138673D01*
X787080Y138673D01*
X787080Y153623D01*
X793030Y153623D01*
X793030Y139670D02*
X787080Y139670D01*
X787080Y140667D02*
X793030Y140667D01*
X793030Y141664D02*
X787080Y141664D01*
X787080Y142661D02*
X793030Y142661D01*
X793030Y143658D02*
X787080Y143658D01*
X787080Y144655D02*
X793030Y144655D01*
X793030Y145652D02*
X787080Y145652D01*
X787080Y146649D02*
X793030Y146649D01*
X793030Y147646D02*
X787080Y147646D01*
X787080Y148643D02*
X793030Y148643D01*
X793030Y149640D02*
X787080Y149640D01*
X787080Y150637D02*
X793030Y150637D01*
X793030Y151634D02*
X787080Y151634D01*
X787080Y152631D02*
X793030Y152631D01*
X804030Y153623D02*
X804030Y138673D01*
X798080Y138673D01*
X798080Y153623D01*
X804030Y153623D01*
X804030Y139670D02*
X798080Y139670D01*
X798080Y140667D02*
X804030Y140667D01*
X804030Y141664D02*
X798080Y141664D01*
X798080Y142661D02*
X804030Y142661D01*
X804030Y143658D02*
X798080Y143658D01*
X798080Y144655D02*
X804030Y144655D01*
X804030Y145652D02*
X798080Y145652D01*
X798080Y146649D02*
X804030Y146649D01*
X804030Y147646D02*
X798080Y147646D01*
X798080Y148643D02*
X804030Y148643D01*
X804030Y149640D02*
X798080Y149640D01*
X798080Y150637D02*
X804030Y150637D01*
X804030Y151634D02*
X798080Y151634D01*
X798080Y152631D02*
X804030Y152631D01*
X815030Y153623D02*
X815030Y138673D01*
X809080Y138673D01*
X809080Y153623D01*
X815030Y153623D01*
X815030Y139670D02*
X809080Y139670D01*
X809080Y140667D02*
X815030Y140667D01*
X815030Y141664D02*
X809080Y141664D01*
X809080Y142661D02*
X815030Y142661D01*
X815030Y143658D02*
X809080Y143658D01*
X809080Y144655D02*
X815030Y144655D01*
X815030Y145652D02*
X809080Y145652D01*
X809080Y146649D02*
X815030Y146649D01*
X815030Y147646D02*
X809080Y147646D01*
X809080Y148643D02*
X815030Y148643D01*
X815030Y149640D02*
X809080Y149640D01*
X809080Y150637D02*
X815030Y150637D01*
X815030Y151634D02*
X809080Y151634D01*
X809080Y152631D02*
X815030Y152631D01*
X826030Y153623D02*
X826030Y138673D01*
X820080Y138673D01*
X820080Y153623D01*
X826030Y153623D01*
X826030Y139670D02*
X820080Y139670D01*
X820080Y140667D02*
X826030Y140667D01*
X826030Y141664D02*
X820080Y141664D01*
X820080Y142661D02*
X826030Y142661D01*
X826030Y143658D02*
X820080Y143658D01*
X820080Y144655D02*
X826030Y144655D01*
X826030Y145652D02*
X820080Y145652D01*
X820080Y146649D02*
X826030Y146649D01*
X826030Y147646D02*
X820080Y147646D01*
X820080Y148643D02*
X826030Y148643D01*
X826030Y149640D02*
X820080Y149640D01*
X820080Y150637D02*
X826030Y150637D01*
X826030Y151634D02*
X820080Y151634D01*
X820080Y152631D02*
X826030Y152631D01*
D11*
X685575Y55668D02*
X674535Y55668D01*
X685575Y55668D02*
X685575Y34628D01*
X674535Y34628D01*
X674535Y55668D01*
X674535Y35540D02*
X685575Y35540D01*
X685575Y36452D02*
X674535Y36452D01*
X674535Y37364D02*
X685575Y37364D01*
X685575Y38276D02*
X674535Y38276D01*
X674535Y39188D02*
X685575Y39188D01*
X685575Y40100D02*
X674535Y40100D01*
X674535Y41012D02*
X685575Y41012D01*
X685575Y41924D02*
X674535Y41924D01*
X674535Y42836D02*
X685575Y42836D01*
X685575Y43748D02*
X674535Y43748D01*
X674535Y44660D02*
X685575Y44660D01*
X685575Y45572D02*
X674535Y45572D01*
X674535Y46484D02*
X685575Y46484D01*
X685575Y47396D02*
X674535Y47396D01*
X674535Y48308D02*
X685575Y48308D01*
X685575Y49220D02*
X674535Y49220D01*
X674535Y50132D02*
X685575Y50132D01*
X685575Y51044D02*
X674535Y51044D01*
X674535Y51956D02*
X685575Y51956D01*
X685575Y52868D02*
X674535Y52868D01*
X674535Y53780D02*
X685575Y53780D01*
X685575Y54692D02*
X674535Y54692D01*
X674535Y55604D02*
X685575Y55604D01*
X829535Y55668D02*
X840575Y55668D01*
X840575Y34628D01*
X829535Y34628D01*
X829535Y55668D01*
X829535Y35540D02*
X840575Y35540D01*
X840575Y36452D02*
X829535Y36452D01*
X829535Y37364D02*
X840575Y37364D01*
X840575Y38276D02*
X829535Y38276D01*
X829535Y39188D02*
X840575Y39188D01*
X840575Y40100D02*
X829535Y40100D01*
X829535Y41012D02*
X840575Y41012D01*
X840575Y41924D02*
X829535Y41924D01*
X829535Y42836D02*
X840575Y42836D01*
X840575Y43748D02*
X829535Y43748D01*
X829535Y44660D02*
X840575Y44660D01*
X840575Y45572D02*
X829535Y45572D01*
X829535Y46484D02*
X840575Y46484D01*
X840575Y47396D02*
X829535Y47396D01*
X829535Y48308D02*
X840575Y48308D01*
X840575Y49220D02*
X829535Y49220D01*
X829535Y50132D02*
X840575Y50132D01*
X840575Y51044D02*
X829535Y51044D01*
X829535Y51956D02*
X840575Y51956D01*
X840575Y52868D02*
X829535Y52868D01*
X829535Y53780D02*
X840575Y53780D01*
X840575Y54692D02*
X829535Y54692D01*
X829535Y55604D02*
X840575Y55604D01*
D12*
X696565Y147658D02*
X681545Y147658D01*
X696565Y147658D02*
X696565Y134638D01*
X681545Y134638D01*
X681545Y147658D01*
X681545Y135569D02*
X696565Y135569D01*
X696565Y136500D02*
X681545Y136500D01*
X681545Y137431D02*
X696565Y137431D01*
X696565Y138362D02*
X681545Y138362D01*
X681545Y139293D02*
X696565Y139293D01*
X696565Y140224D02*
X681545Y140224D01*
X681545Y141155D02*
X696565Y141155D01*
X696565Y142086D02*
X681545Y142086D01*
X681545Y143017D02*
X696565Y143017D01*
X696565Y143948D02*
X681545Y143948D01*
X681545Y144879D02*
X696565Y144879D01*
X696565Y145810D02*
X681545Y145810D01*
X681545Y146741D02*
X696565Y146741D01*
D11*
X829535Y147668D02*
X840575Y147668D01*
X840575Y132628D01*
X829535Y132628D01*
X829535Y147668D01*
X829535Y133540D02*
X840575Y133540D01*
X840575Y134452D02*
X829535Y134452D01*
X829535Y135364D02*
X840575Y135364D01*
X840575Y136276D02*
X829535Y136276D01*
X829535Y137188D02*
X840575Y137188D01*
X840575Y138100D02*
X829535Y138100D01*
X829535Y139012D02*
X840575Y139012D01*
X840575Y139924D02*
X829535Y139924D01*
X829535Y140836D02*
X840575Y140836D01*
X840575Y141748D02*
X829535Y141748D01*
X829535Y142660D02*
X840575Y142660D01*
X840575Y143572D02*
X829535Y143572D01*
X829535Y144484D02*
X840575Y144484D01*
X840575Y145396D02*
X829535Y145396D01*
X829535Y146308D02*
X840575Y146308D01*
X840575Y147220D02*
X829535Y147220D01*
D10*
X246950Y588253D02*
X246950Y603203D01*
X246950Y588253D02*
X241000Y588253D01*
X241000Y603203D01*
X246950Y603203D01*
X246950Y589250D02*
X241000Y589250D01*
X241000Y590247D02*
X246950Y590247D01*
X246950Y591244D02*
X241000Y591244D01*
X241000Y592241D02*
X246950Y592241D01*
X246950Y593238D02*
X241000Y593238D01*
X241000Y594235D02*
X246950Y594235D01*
X246950Y595232D02*
X241000Y595232D01*
X241000Y596229D02*
X246950Y596229D01*
X246950Y597226D02*
X241000Y597226D01*
X241000Y598223D02*
X246950Y598223D01*
X246950Y599220D02*
X241000Y599220D01*
X241000Y600217D02*
X246950Y600217D01*
X246950Y601214D02*
X241000Y601214D01*
X241000Y602211D02*
X246950Y602211D01*
X235950Y603203D02*
X235950Y588253D01*
X230000Y588253D01*
X230000Y603203D01*
X235950Y603203D01*
X235950Y589250D02*
X230000Y589250D01*
X230000Y590247D02*
X235950Y590247D01*
X235950Y591244D02*
X230000Y591244D01*
X230000Y592241D02*
X235950Y592241D01*
X235950Y593238D02*
X230000Y593238D01*
X230000Y594235D02*
X235950Y594235D01*
X235950Y595232D02*
X230000Y595232D01*
X230000Y596229D02*
X235950Y596229D01*
X235950Y597226D02*
X230000Y597226D01*
X230000Y598223D02*
X235950Y598223D01*
X235950Y599220D02*
X230000Y599220D01*
X230000Y600217D02*
X235950Y600217D01*
X235950Y601214D02*
X230000Y601214D01*
X230000Y602211D02*
X235950Y602211D01*
X224950Y603203D02*
X224950Y588253D01*
X219000Y588253D01*
X219000Y603203D01*
X224950Y603203D01*
X224950Y589250D02*
X219000Y589250D01*
X219000Y590247D02*
X224950Y590247D01*
X224950Y591244D02*
X219000Y591244D01*
X219000Y592241D02*
X224950Y592241D01*
X224950Y593238D02*
X219000Y593238D01*
X219000Y594235D02*
X224950Y594235D01*
X224950Y595232D02*
X219000Y595232D01*
X219000Y596229D02*
X224950Y596229D01*
X224950Y597226D02*
X219000Y597226D01*
X219000Y598223D02*
X224950Y598223D01*
X224950Y599220D02*
X219000Y599220D01*
X219000Y600217D02*
X224950Y600217D01*
X224950Y601214D02*
X219000Y601214D01*
X219000Y602211D02*
X224950Y602211D01*
X257950Y603203D02*
X257950Y588253D01*
X252000Y588253D01*
X252000Y603203D01*
X257950Y603203D01*
X257950Y589250D02*
X252000Y589250D01*
X252000Y590247D02*
X257950Y590247D01*
X257950Y591244D02*
X252000Y591244D01*
X252000Y592241D02*
X257950Y592241D01*
X257950Y593238D02*
X252000Y593238D01*
X252000Y594235D02*
X257950Y594235D01*
X257950Y595232D02*
X252000Y595232D01*
X252000Y596229D02*
X257950Y596229D01*
X257950Y597226D02*
X252000Y597226D01*
X252000Y598223D02*
X257950Y598223D01*
X257950Y599220D02*
X252000Y599220D01*
X252000Y600217D02*
X257950Y600217D01*
X257950Y601214D02*
X252000Y601214D01*
X252000Y602211D02*
X257950Y602211D01*
X268950Y603203D02*
X268950Y588253D01*
X263000Y588253D01*
X263000Y603203D01*
X268950Y603203D01*
X268950Y589250D02*
X263000Y589250D01*
X263000Y590247D02*
X268950Y590247D01*
X268950Y591244D02*
X263000Y591244D01*
X263000Y592241D02*
X268950Y592241D01*
X268950Y593238D02*
X263000Y593238D01*
X263000Y594235D02*
X268950Y594235D01*
X268950Y595232D02*
X263000Y595232D01*
X263000Y596229D02*
X268950Y596229D01*
X268950Y597226D02*
X263000Y597226D01*
X263000Y598223D02*
X268950Y598223D01*
X268950Y599220D02*
X263000Y599220D01*
X263000Y600217D02*
X268950Y600217D01*
X268950Y601214D02*
X263000Y601214D01*
X263000Y602211D02*
X268950Y602211D01*
X279950Y603203D02*
X279950Y588253D01*
X274000Y588253D01*
X274000Y603203D01*
X279950Y603203D01*
X279950Y589250D02*
X274000Y589250D01*
X274000Y590247D02*
X279950Y590247D01*
X279950Y591244D02*
X274000Y591244D01*
X274000Y592241D02*
X279950Y592241D01*
X279950Y593238D02*
X274000Y593238D01*
X274000Y594235D02*
X279950Y594235D01*
X279950Y595232D02*
X274000Y595232D01*
X274000Y596229D02*
X279950Y596229D01*
X279950Y597226D02*
X274000Y597226D01*
X274000Y598223D02*
X279950Y598223D01*
X279950Y599220D02*
X274000Y599220D01*
X274000Y600217D02*
X279950Y600217D01*
X279950Y601214D02*
X274000Y601214D01*
X274000Y602211D02*
X279950Y602211D01*
X290950Y603203D02*
X290950Y588253D01*
X285000Y588253D01*
X285000Y603203D01*
X290950Y603203D01*
X290950Y589250D02*
X285000Y589250D01*
X285000Y590247D02*
X290950Y590247D01*
X290950Y591244D02*
X285000Y591244D01*
X285000Y592241D02*
X290950Y592241D01*
X290950Y593238D02*
X285000Y593238D01*
X285000Y594235D02*
X290950Y594235D01*
X290950Y595232D02*
X285000Y595232D01*
X285000Y596229D02*
X290950Y596229D01*
X290950Y597226D02*
X285000Y597226D01*
X285000Y598223D02*
X290950Y598223D01*
X290950Y599220D02*
X285000Y599220D01*
X285000Y600217D02*
X290950Y600217D01*
X290950Y601214D02*
X285000Y601214D01*
X285000Y602211D02*
X290950Y602211D01*
X301950Y603203D02*
X301950Y588253D01*
X296000Y588253D01*
X296000Y603203D01*
X301950Y603203D01*
X301950Y589250D02*
X296000Y589250D01*
X296000Y590247D02*
X301950Y590247D01*
X301950Y591244D02*
X296000Y591244D01*
X296000Y592241D02*
X301950Y592241D01*
X301950Y593238D02*
X296000Y593238D01*
X296000Y594235D02*
X301950Y594235D01*
X301950Y595232D02*
X296000Y595232D01*
X296000Y596229D02*
X301950Y596229D01*
X301950Y597226D02*
X296000Y597226D01*
X296000Y598223D02*
X301950Y598223D01*
X301950Y599220D02*
X296000Y599220D01*
X296000Y600217D02*
X301950Y600217D01*
X301950Y601214D02*
X296000Y601214D01*
X296000Y602211D02*
X301950Y602211D01*
X312950Y603203D02*
X312950Y588253D01*
X307000Y588253D01*
X307000Y603203D01*
X312950Y603203D01*
X312950Y589250D02*
X307000Y589250D01*
X307000Y590247D02*
X312950Y590247D01*
X312950Y591244D02*
X307000Y591244D01*
X307000Y592241D02*
X312950Y592241D01*
X312950Y593238D02*
X307000Y593238D01*
X307000Y594235D02*
X312950Y594235D01*
X312950Y595232D02*
X307000Y595232D01*
X307000Y596229D02*
X312950Y596229D01*
X312950Y597226D02*
X307000Y597226D01*
X307000Y598223D02*
X312950Y598223D01*
X312950Y599220D02*
X307000Y599220D01*
X307000Y600217D02*
X312950Y600217D01*
X312950Y601214D02*
X307000Y601214D01*
X307000Y602211D02*
X312950Y602211D01*
D11*
X172495Y505248D02*
X161455Y505248D01*
X172495Y505248D02*
X172495Y484208D01*
X161455Y484208D01*
X161455Y505248D01*
X161455Y485120D02*
X172495Y485120D01*
X172495Y486032D02*
X161455Y486032D01*
X161455Y486944D02*
X172495Y486944D01*
X172495Y487856D02*
X161455Y487856D01*
X161455Y488768D02*
X172495Y488768D01*
X172495Y489680D02*
X161455Y489680D01*
X161455Y490592D02*
X172495Y490592D01*
X172495Y491504D02*
X161455Y491504D01*
X161455Y492416D02*
X172495Y492416D01*
X172495Y493328D02*
X161455Y493328D01*
X161455Y494240D02*
X172495Y494240D01*
X172495Y495152D02*
X161455Y495152D01*
X161455Y496064D02*
X172495Y496064D01*
X172495Y496976D02*
X161455Y496976D01*
X161455Y497888D02*
X172495Y497888D01*
X172495Y498800D02*
X161455Y498800D01*
X161455Y499712D02*
X172495Y499712D01*
X172495Y500624D02*
X161455Y500624D01*
X161455Y501536D02*
X172495Y501536D01*
X172495Y502448D02*
X161455Y502448D01*
X161455Y503360D02*
X172495Y503360D01*
X172495Y504272D02*
X161455Y504272D01*
X161455Y505184D02*
X172495Y505184D01*
X316455Y505248D02*
X327495Y505248D01*
X327495Y484208D01*
X316455Y484208D01*
X316455Y505248D01*
X316455Y485120D02*
X327495Y485120D01*
X327495Y486032D02*
X316455Y486032D01*
X316455Y486944D02*
X327495Y486944D01*
X327495Y487856D02*
X316455Y487856D01*
X316455Y488768D02*
X327495Y488768D01*
X327495Y489680D02*
X316455Y489680D01*
X316455Y490592D02*
X327495Y490592D01*
X327495Y491504D02*
X316455Y491504D01*
X316455Y492416D02*
X327495Y492416D01*
X327495Y493328D02*
X316455Y493328D01*
X316455Y494240D02*
X327495Y494240D01*
X327495Y495152D02*
X316455Y495152D01*
X316455Y496064D02*
X327495Y496064D01*
X327495Y496976D02*
X316455Y496976D01*
X316455Y497888D02*
X327495Y497888D01*
X327495Y498800D02*
X316455Y498800D01*
X316455Y499712D02*
X327495Y499712D01*
X327495Y500624D02*
X316455Y500624D01*
X316455Y501536D02*
X327495Y501536D01*
X327495Y502448D02*
X316455Y502448D01*
X316455Y503360D02*
X327495Y503360D01*
X327495Y504272D02*
X316455Y504272D01*
X316455Y505184D02*
X327495Y505184D01*
D12*
X183485Y597238D02*
X168465Y597238D01*
X183485Y597238D02*
X183485Y584218D01*
X168465Y584218D01*
X168465Y597238D01*
X168465Y585149D02*
X183485Y585149D01*
X183485Y586080D02*
X168465Y586080D01*
X168465Y587011D02*
X183485Y587011D01*
X183485Y587942D02*
X168465Y587942D01*
X168465Y588873D02*
X183485Y588873D01*
X183485Y589804D02*
X168465Y589804D01*
X168465Y590735D02*
X183485Y590735D01*
X183485Y591666D02*
X168465Y591666D01*
X168465Y592597D02*
X183485Y592597D01*
X183485Y593528D02*
X168465Y593528D01*
X168465Y594459D02*
X183485Y594459D01*
X183485Y595390D02*
X168465Y595390D01*
X168465Y596321D02*
X183485Y596321D01*
D11*
X316455Y597248D02*
X327495Y597248D01*
X327495Y582208D01*
X316455Y582208D01*
X316455Y597248D01*
X316455Y583120D02*
X327495Y583120D01*
X327495Y584032D02*
X316455Y584032D01*
X316455Y584944D02*
X327495Y584944D01*
X327495Y585856D02*
X316455Y585856D01*
X316455Y586768D02*
X327495Y586768D01*
X327495Y587680D02*
X316455Y587680D01*
X316455Y588592D02*
X327495Y588592D01*
X327495Y589504D02*
X316455Y589504D01*
X316455Y590416D02*
X327495Y590416D01*
X327495Y591328D02*
X316455Y591328D01*
X316455Y592240D02*
X327495Y592240D01*
X327495Y593152D02*
X316455Y593152D01*
X316455Y594064D02*
X327495Y594064D01*
X327495Y594976D02*
X316455Y594976D01*
X316455Y595888D02*
X327495Y595888D01*
X327495Y596800D02*
X316455Y596800D01*
D10*
X760030Y603203D02*
X760030Y588253D01*
X754080Y588253D01*
X754080Y603203D01*
X760030Y603203D01*
X760030Y589250D02*
X754080Y589250D01*
X754080Y590247D02*
X760030Y590247D01*
X760030Y591244D02*
X754080Y591244D01*
X754080Y592241D02*
X760030Y592241D01*
X760030Y593238D02*
X754080Y593238D01*
X754080Y594235D02*
X760030Y594235D01*
X760030Y595232D02*
X754080Y595232D01*
X754080Y596229D02*
X760030Y596229D01*
X760030Y597226D02*
X754080Y597226D01*
X754080Y598223D02*
X760030Y598223D01*
X760030Y599220D02*
X754080Y599220D01*
X754080Y600217D02*
X760030Y600217D01*
X760030Y601214D02*
X754080Y601214D01*
X754080Y602211D02*
X760030Y602211D01*
X749030Y603203D02*
X749030Y588253D01*
X743080Y588253D01*
X743080Y603203D01*
X749030Y603203D01*
X749030Y589250D02*
X743080Y589250D01*
X743080Y590247D02*
X749030Y590247D01*
X749030Y591244D02*
X743080Y591244D01*
X743080Y592241D02*
X749030Y592241D01*
X749030Y593238D02*
X743080Y593238D01*
X743080Y594235D02*
X749030Y594235D01*
X749030Y595232D02*
X743080Y595232D01*
X743080Y596229D02*
X749030Y596229D01*
X749030Y597226D02*
X743080Y597226D01*
X743080Y598223D02*
X749030Y598223D01*
X749030Y599220D02*
X743080Y599220D01*
X743080Y600217D02*
X749030Y600217D01*
X749030Y601214D02*
X743080Y601214D01*
X743080Y602211D02*
X749030Y602211D01*
X738030Y603203D02*
X738030Y588253D01*
X732080Y588253D01*
X732080Y603203D01*
X738030Y603203D01*
X738030Y589250D02*
X732080Y589250D01*
X732080Y590247D02*
X738030Y590247D01*
X738030Y591244D02*
X732080Y591244D01*
X732080Y592241D02*
X738030Y592241D01*
X738030Y593238D02*
X732080Y593238D01*
X732080Y594235D02*
X738030Y594235D01*
X738030Y595232D02*
X732080Y595232D01*
X732080Y596229D02*
X738030Y596229D01*
X738030Y597226D02*
X732080Y597226D01*
X732080Y598223D02*
X738030Y598223D01*
X738030Y599220D02*
X732080Y599220D01*
X732080Y600217D02*
X738030Y600217D01*
X738030Y601214D02*
X732080Y601214D01*
X732080Y602211D02*
X738030Y602211D01*
X771030Y603203D02*
X771030Y588253D01*
X765080Y588253D01*
X765080Y603203D01*
X771030Y603203D01*
X771030Y589250D02*
X765080Y589250D01*
X765080Y590247D02*
X771030Y590247D01*
X771030Y591244D02*
X765080Y591244D01*
X765080Y592241D02*
X771030Y592241D01*
X771030Y593238D02*
X765080Y593238D01*
X765080Y594235D02*
X771030Y594235D01*
X771030Y595232D02*
X765080Y595232D01*
X765080Y596229D02*
X771030Y596229D01*
X771030Y597226D02*
X765080Y597226D01*
X765080Y598223D02*
X771030Y598223D01*
X771030Y599220D02*
X765080Y599220D01*
X765080Y600217D02*
X771030Y600217D01*
X771030Y601214D02*
X765080Y601214D01*
X765080Y602211D02*
X771030Y602211D01*
X782030Y603203D02*
X782030Y588253D01*
X776080Y588253D01*
X776080Y603203D01*
X782030Y603203D01*
X782030Y589250D02*
X776080Y589250D01*
X776080Y590247D02*
X782030Y590247D01*
X782030Y591244D02*
X776080Y591244D01*
X776080Y592241D02*
X782030Y592241D01*
X782030Y593238D02*
X776080Y593238D01*
X776080Y594235D02*
X782030Y594235D01*
X782030Y595232D02*
X776080Y595232D01*
X776080Y596229D02*
X782030Y596229D01*
X782030Y597226D02*
X776080Y597226D01*
X776080Y598223D02*
X782030Y598223D01*
X782030Y599220D02*
X776080Y599220D01*
X776080Y600217D02*
X782030Y600217D01*
X782030Y601214D02*
X776080Y601214D01*
X776080Y602211D02*
X782030Y602211D01*
X793030Y603203D02*
X793030Y588253D01*
X787080Y588253D01*
X787080Y603203D01*
X793030Y603203D01*
X793030Y589250D02*
X787080Y589250D01*
X787080Y590247D02*
X793030Y590247D01*
X793030Y591244D02*
X787080Y591244D01*
X787080Y592241D02*
X793030Y592241D01*
X793030Y593238D02*
X787080Y593238D01*
X787080Y594235D02*
X793030Y594235D01*
X793030Y595232D02*
X787080Y595232D01*
X787080Y596229D02*
X793030Y596229D01*
X793030Y597226D02*
X787080Y597226D01*
X787080Y598223D02*
X793030Y598223D01*
X793030Y599220D02*
X787080Y599220D01*
X787080Y600217D02*
X793030Y600217D01*
X793030Y601214D02*
X787080Y601214D01*
X787080Y602211D02*
X793030Y602211D01*
X804030Y603203D02*
X804030Y588253D01*
X798080Y588253D01*
X798080Y603203D01*
X804030Y603203D01*
X804030Y589250D02*
X798080Y589250D01*
X798080Y590247D02*
X804030Y590247D01*
X804030Y591244D02*
X798080Y591244D01*
X798080Y592241D02*
X804030Y592241D01*
X804030Y593238D02*
X798080Y593238D01*
X798080Y594235D02*
X804030Y594235D01*
X804030Y595232D02*
X798080Y595232D01*
X798080Y596229D02*
X804030Y596229D01*
X804030Y597226D02*
X798080Y597226D01*
X798080Y598223D02*
X804030Y598223D01*
X804030Y599220D02*
X798080Y599220D01*
X798080Y600217D02*
X804030Y600217D01*
X804030Y601214D02*
X798080Y601214D01*
X798080Y602211D02*
X804030Y602211D01*
X815030Y603203D02*
X815030Y588253D01*
X809080Y588253D01*
X809080Y603203D01*
X815030Y603203D01*
X815030Y589250D02*
X809080Y589250D01*
X809080Y590247D02*
X815030Y590247D01*
X815030Y591244D02*
X809080Y591244D01*
X809080Y592241D02*
X815030Y592241D01*
X815030Y593238D02*
X809080Y593238D01*
X809080Y594235D02*
X815030Y594235D01*
X815030Y595232D02*
X809080Y595232D01*
X809080Y596229D02*
X815030Y596229D01*
X815030Y597226D02*
X809080Y597226D01*
X809080Y598223D02*
X815030Y598223D01*
X815030Y599220D02*
X809080Y599220D01*
X809080Y600217D02*
X815030Y600217D01*
X815030Y601214D02*
X809080Y601214D01*
X809080Y602211D02*
X815030Y602211D01*
X826030Y603203D02*
X826030Y588253D01*
X820080Y588253D01*
X820080Y603203D01*
X826030Y603203D01*
X826030Y589250D02*
X820080Y589250D01*
X820080Y590247D02*
X826030Y590247D01*
X826030Y591244D02*
X820080Y591244D01*
X820080Y592241D02*
X826030Y592241D01*
X826030Y593238D02*
X820080Y593238D01*
X820080Y594235D02*
X826030Y594235D01*
X826030Y595232D02*
X820080Y595232D01*
X820080Y596229D02*
X826030Y596229D01*
X826030Y597226D02*
X820080Y597226D01*
X820080Y598223D02*
X826030Y598223D01*
X826030Y599220D02*
X820080Y599220D01*
X820080Y600217D02*
X826030Y600217D01*
X826030Y601214D02*
X820080Y601214D01*
X820080Y602211D02*
X826030Y602211D01*
D11*
X685575Y505248D02*
X674535Y505248D01*
X685575Y505248D02*
X685575Y484208D01*
X674535Y484208D01*
X674535Y505248D01*
X674535Y485120D02*
X685575Y485120D01*
X685575Y486032D02*
X674535Y486032D01*
X674535Y486944D02*
X685575Y486944D01*
X685575Y487856D02*
X674535Y487856D01*
X674535Y488768D02*
X685575Y488768D01*
X685575Y489680D02*
X674535Y489680D01*
X674535Y490592D02*
X685575Y490592D01*
X685575Y491504D02*
X674535Y491504D01*
X674535Y492416D02*
X685575Y492416D01*
X685575Y493328D02*
X674535Y493328D01*
X674535Y494240D02*
X685575Y494240D01*
X685575Y495152D02*
X674535Y495152D01*
X674535Y496064D02*
X685575Y496064D01*
X685575Y496976D02*
X674535Y496976D01*
X674535Y497888D02*
X685575Y497888D01*
X685575Y498800D02*
X674535Y498800D01*
X674535Y499712D02*
X685575Y499712D01*
X685575Y500624D02*
X674535Y500624D01*
X674535Y501536D02*
X685575Y501536D01*
X685575Y502448D02*
X674535Y502448D01*
X674535Y503360D02*
X685575Y503360D01*
X685575Y504272D02*
X674535Y504272D01*
X674535Y505184D02*
X685575Y505184D01*
X829535Y505248D02*
X840575Y505248D01*
X840575Y484208D01*
X829535Y484208D01*
X829535Y505248D01*
X829535Y485120D02*
X840575Y485120D01*
X840575Y486032D02*
X829535Y486032D01*
X829535Y486944D02*
X840575Y486944D01*
X840575Y487856D02*
X829535Y487856D01*
X829535Y488768D02*
X840575Y488768D01*
X840575Y489680D02*
X829535Y489680D01*
X829535Y490592D02*
X840575Y490592D01*
X840575Y491504D02*
X829535Y491504D01*
X829535Y492416D02*
X840575Y492416D01*
X840575Y493328D02*
X829535Y493328D01*
X829535Y494240D02*
X840575Y494240D01*
X840575Y495152D02*
X829535Y495152D01*
X829535Y496064D02*
X840575Y496064D01*
X840575Y496976D02*
X829535Y496976D01*
X829535Y497888D02*
X840575Y497888D01*
X840575Y498800D02*
X829535Y498800D01*
X829535Y499712D02*
X840575Y499712D01*
X840575Y500624D02*
X829535Y500624D01*
X829535Y501536D02*
X840575Y501536D01*
X840575Y502448D02*
X829535Y502448D01*
X829535Y503360D02*
X840575Y503360D01*
X840575Y504272D02*
X829535Y504272D01*
X829535Y505184D02*
X840575Y505184D01*
D12*
X696565Y597238D02*
X681545Y597238D01*
X696565Y597238D02*
X696565Y584218D01*
X681545Y584218D01*
X681545Y597238D01*
X681545Y585149D02*
X696565Y585149D01*
X696565Y586080D02*
X681545Y586080D01*
X681545Y587011D02*
X696565Y587011D01*
X696565Y587942D02*
X681545Y587942D01*
X681545Y588873D02*
X696565Y588873D01*
X696565Y589804D02*
X681545Y589804D01*
X681545Y590735D02*
X696565Y590735D01*
X696565Y591666D02*
X681545Y591666D01*
X681545Y592597D02*
X696565Y592597D01*
X696565Y593528D02*
X681545Y593528D01*
X681545Y594459D02*
X696565Y594459D01*
X696565Y595390D02*
X681545Y595390D01*
X681545Y596321D02*
X696565Y596321D01*
D11*
X829535Y597248D02*
X840575Y597248D01*
X840575Y582208D01*
X829535Y582208D01*
X829535Y597248D01*
X829535Y583120D02*
X840575Y583120D01*
X840575Y584032D02*
X829535Y584032D01*
X829535Y584944D02*
X840575Y584944D01*
X840575Y585856D02*
X829535Y585856D01*
X829535Y586768D02*
X840575Y586768D01*
X840575Y587680D02*
X829535Y587680D01*
X829535Y588592D02*
X840575Y588592D01*
X840575Y589504D02*
X829535Y589504D01*
X829535Y590416D02*
X840575Y590416D01*
X840575Y591328D02*
X829535Y591328D01*
X829535Y592240D02*
X840575Y592240D01*
X840575Y593152D02*
X829535Y593152D01*
X829535Y594064D02*
X840575Y594064D01*
X840575Y594976D02*
X829535Y594976D01*
X829535Y595888D02*
X840575Y595888D01*
X840575Y596800D02*
X829535Y596800D01*
D10*
X246950Y1037833D02*
X246950Y1052783D01*
X246950Y1037833D02*
X241000Y1037833D01*
X241000Y1052783D01*
X246950Y1052783D01*
X246950Y1038830D02*
X241000Y1038830D01*
X241000Y1039827D02*
X246950Y1039827D01*
X246950Y1040824D02*
X241000Y1040824D01*
X241000Y1041821D02*
X246950Y1041821D01*
X246950Y1042818D02*
X241000Y1042818D01*
X241000Y1043815D02*
X246950Y1043815D01*
X246950Y1044812D02*
X241000Y1044812D01*
X241000Y1045809D02*
X246950Y1045809D01*
X246950Y1046806D02*
X241000Y1046806D01*
X241000Y1047803D02*
X246950Y1047803D01*
X246950Y1048800D02*
X241000Y1048800D01*
X241000Y1049797D02*
X246950Y1049797D01*
X246950Y1050794D02*
X241000Y1050794D01*
X241000Y1051791D02*
X246950Y1051791D01*
X235950Y1052783D02*
X235950Y1037833D01*
X230000Y1037833D01*
X230000Y1052783D01*
X235950Y1052783D01*
X235950Y1038830D02*
X230000Y1038830D01*
X230000Y1039827D02*
X235950Y1039827D01*
X235950Y1040824D02*
X230000Y1040824D01*
X230000Y1041821D02*
X235950Y1041821D01*
X235950Y1042818D02*
X230000Y1042818D01*
X230000Y1043815D02*
X235950Y1043815D01*
X235950Y1044812D02*
X230000Y1044812D01*
X230000Y1045809D02*
X235950Y1045809D01*
X235950Y1046806D02*
X230000Y1046806D01*
X230000Y1047803D02*
X235950Y1047803D01*
X235950Y1048800D02*
X230000Y1048800D01*
X230000Y1049797D02*
X235950Y1049797D01*
X235950Y1050794D02*
X230000Y1050794D01*
X230000Y1051791D02*
X235950Y1051791D01*
X224950Y1052783D02*
X224950Y1037833D01*
X219000Y1037833D01*
X219000Y1052783D01*
X224950Y1052783D01*
X224950Y1038830D02*
X219000Y1038830D01*
X219000Y1039827D02*
X224950Y1039827D01*
X224950Y1040824D02*
X219000Y1040824D01*
X219000Y1041821D02*
X224950Y1041821D01*
X224950Y1042818D02*
X219000Y1042818D01*
X219000Y1043815D02*
X224950Y1043815D01*
X224950Y1044812D02*
X219000Y1044812D01*
X219000Y1045809D02*
X224950Y1045809D01*
X224950Y1046806D02*
X219000Y1046806D01*
X219000Y1047803D02*
X224950Y1047803D01*
X224950Y1048800D02*
X219000Y1048800D01*
X219000Y1049797D02*
X224950Y1049797D01*
X224950Y1050794D02*
X219000Y1050794D01*
X219000Y1051791D02*
X224950Y1051791D01*
X257950Y1052783D02*
X257950Y1037833D01*
X252000Y1037833D01*
X252000Y1052783D01*
X257950Y1052783D01*
X257950Y1038830D02*
X252000Y1038830D01*
X252000Y1039827D02*
X257950Y1039827D01*
X257950Y1040824D02*
X252000Y1040824D01*
X252000Y1041821D02*
X257950Y1041821D01*
X257950Y1042818D02*
X252000Y1042818D01*
X252000Y1043815D02*
X257950Y1043815D01*
X257950Y1044812D02*
X252000Y1044812D01*
X252000Y1045809D02*
X257950Y1045809D01*
X257950Y1046806D02*
X252000Y1046806D01*
X252000Y1047803D02*
X257950Y1047803D01*
X257950Y1048800D02*
X252000Y1048800D01*
X252000Y1049797D02*
X257950Y1049797D01*
X257950Y1050794D02*
X252000Y1050794D01*
X252000Y1051791D02*
X257950Y1051791D01*
X268950Y1052783D02*
X268950Y1037833D01*
X263000Y1037833D01*
X263000Y1052783D01*
X268950Y1052783D01*
X268950Y1038830D02*
X263000Y1038830D01*
X263000Y1039827D02*
X268950Y1039827D01*
X268950Y1040824D02*
X263000Y1040824D01*
X263000Y1041821D02*
X268950Y1041821D01*
X268950Y1042818D02*
X263000Y1042818D01*
X263000Y1043815D02*
X268950Y1043815D01*
X268950Y1044812D02*
X263000Y1044812D01*
X263000Y1045809D02*
X268950Y1045809D01*
X268950Y1046806D02*
X263000Y1046806D01*
X263000Y1047803D02*
X268950Y1047803D01*
X268950Y1048800D02*
X263000Y1048800D01*
X263000Y1049797D02*
X268950Y1049797D01*
X268950Y1050794D02*
X263000Y1050794D01*
X263000Y1051791D02*
X268950Y1051791D01*
X279950Y1052783D02*
X279950Y1037833D01*
X274000Y1037833D01*
X274000Y1052783D01*
X279950Y1052783D01*
X279950Y1038830D02*
X274000Y1038830D01*
X274000Y1039827D02*
X279950Y1039827D01*
X279950Y1040824D02*
X274000Y1040824D01*
X274000Y1041821D02*
X279950Y1041821D01*
X279950Y1042818D02*
X274000Y1042818D01*
X274000Y1043815D02*
X279950Y1043815D01*
X279950Y1044812D02*
X274000Y1044812D01*
X274000Y1045809D02*
X279950Y1045809D01*
X279950Y1046806D02*
X274000Y1046806D01*
X274000Y1047803D02*
X279950Y1047803D01*
X279950Y1048800D02*
X274000Y1048800D01*
X274000Y1049797D02*
X279950Y1049797D01*
X279950Y1050794D02*
X274000Y1050794D01*
X274000Y1051791D02*
X279950Y1051791D01*
X290950Y1052783D02*
X290950Y1037833D01*
X285000Y1037833D01*
X285000Y1052783D01*
X290950Y1052783D01*
X290950Y1038830D02*
X285000Y1038830D01*
X285000Y1039827D02*
X290950Y1039827D01*
X290950Y1040824D02*
X285000Y1040824D01*
X285000Y1041821D02*
X290950Y1041821D01*
X290950Y1042818D02*
X285000Y1042818D01*
X285000Y1043815D02*
X290950Y1043815D01*
X290950Y1044812D02*
X285000Y1044812D01*
X285000Y1045809D02*
X290950Y1045809D01*
X290950Y1046806D02*
X285000Y1046806D01*
X285000Y1047803D02*
X290950Y1047803D01*
X290950Y1048800D02*
X285000Y1048800D01*
X285000Y1049797D02*
X290950Y1049797D01*
X290950Y1050794D02*
X285000Y1050794D01*
X285000Y1051791D02*
X290950Y1051791D01*
X301950Y1052783D02*
X301950Y1037833D01*
X296000Y1037833D01*
X296000Y1052783D01*
X301950Y1052783D01*
X301950Y1038830D02*
X296000Y1038830D01*
X296000Y1039827D02*
X301950Y1039827D01*
X301950Y1040824D02*
X296000Y1040824D01*
X296000Y1041821D02*
X301950Y1041821D01*
X301950Y1042818D02*
X296000Y1042818D01*
X296000Y1043815D02*
X301950Y1043815D01*
X301950Y1044812D02*
X296000Y1044812D01*
X296000Y1045809D02*
X301950Y1045809D01*
X301950Y1046806D02*
X296000Y1046806D01*
X296000Y1047803D02*
X301950Y1047803D01*
X301950Y1048800D02*
X296000Y1048800D01*
X296000Y1049797D02*
X301950Y1049797D01*
X301950Y1050794D02*
X296000Y1050794D01*
X296000Y1051791D02*
X301950Y1051791D01*
X312950Y1052783D02*
X312950Y1037833D01*
X307000Y1037833D01*
X307000Y1052783D01*
X312950Y1052783D01*
X312950Y1038830D02*
X307000Y1038830D01*
X307000Y1039827D02*
X312950Y1039827D01*
X312950Y1040824D02*
X307000Y1040824D01*
X307000Y1041821D02*
X312950Y1041821D01*
X312950Y1042818D02*
X307000Y1042818D01*
X307000Y1043815D02*
X312950Y1043815D01*
X312950Y1044812D02*
X307000Y1044812D01*
X307000Y1045809D02*
X312950Y1045809D01*
X312950Y1046806D02*
X307000Y1046806D01*
X307000Y1047803D02*
X312950Y1047803D01*
X312950Y1048800D02*
X307000Y1048800D01*
X307000Y1049797D02*
X312950Y1049797D01*
X312950Y1050794D02*
X307000Y1050794D01*
X307000Y1051791D02*
X312950Y1051791D01*
D11*
X172495Y954828D02*
X161455Y954828D01*
X172495Y954828D02*
X172495Y933788D01*
X161455Y933788D01*
X161455Y954828D01*
X161455Y934700D02*
X172495Y934700D01*
X172495Y935612D02*
X161455Y935612D01*
X161455Y936524D02*
X172495Y936524D01*
X172495Y937436D02*
X161455Y937436D01*
X161455Y938348D02*
X172495Y938348D01*
X172495Y939260D02*
X161455Y939260D01*
X161455Y940172D02*
X172495Y940172D01*
X172495Y941084D02*
X161455Y941084D01*
X161455Y941996D02*
X172495Y941996D01*
X172495Y942908D02*
X161455Y942908D01*
X161455Y943820D02*
X172495Y943820D01*
X172495Y944732D02*
X161455Y944732D01*
X161455Y945644D02*
X172495Y945644D01*
X172495Y946556D02*
X161455Y946556D01*
X161455Y947468D02*
X172495Y947468D01*
X172495Y948380D02*
X161455Y948380D01*
X161455Y949292D02*
X172495Y949292D01*
X172495Y950204D02*
X161455Y950204D01*
X161455Y951116D02*
X172495Y951116D01*
X172495Y952028D02*
X161455Y952028D01*
X161455Y952940D02*
X172495Y952940D01*
X172495Y953852D02*
X161455Y953852D01*
X161455Y954764D02*
X172495Y954764D01*
X316455Y954828D02*
X327495Y954828D01*
X327495Y933788D01*
X316455Y933788D01*
X316455Y954828D01*
X316455Y934700D02*
X327495Y934700D01*
X327495Y935612D02*
X316455Y935612D01*
X316455Y936524D02*
X327495Y936524D01*
X327495Y937436D02*
X316455Y937436D01*
X316455Y938348D02*
X327495Y938348D01*
X327495Y939260D02*
X316455Y939260D01*
X316455Y940172D02*
X327495Y940172D01*
X327495Y941084D02*
X316455Y941084D01*
X316455Y941996D02*
X327495Y941996D01*
X327495Y942908D02*
X316455Y942908D01*
X316455Y943820D02*
X327495Y943820D01*
X327495Y944732D02*
X316455Y944732D01*
X316455Y945644D02*
X327495Y945644D01*
X327495Y946556D02*
X316455Y946556D01*
X316455Y947468D02*
X327495Y947468D01*
X327495Y948380D02*
X316455Y948380D01*
X316455Y949292D02*
X327495Y949292D01*
X327495Y950204D02*
X316455Y950204D01*
X316455Y951116D02*
X327495Y951116D01*
X327495Y952028D02*
X316455Y952028D01*
X316455Y952940D02*
X327495Y952940D01*
X327495Y953852D02*
X316455Y953852D01*
X316455Y954764D02*
X327495Y954764D01*
D12*
X183485Y1046818D02*
X168465Y1046818D01*
X183485Y1046818D02*
X183485Y1033798D01*
X168465Y1033798D01*
X168465Y1046818D01*
X168465Y1034729D02*
X183485Y1034729D01*
X183485Y1035660D02*
X168465Y1035660D01*
X168465Y1036591D02*
X183485Y1036591D01*
X183485Y1037522D02*
X168465Y1037522D01*
X168465Y1038453D02*
X183485Y1038453D01*
X183485Y1039384D02*
X168465Y1039384D01*
X168465Y1040315D02*
X183485Y1040315D01*
X183485Y1041246D02*
X168465Y1041246D01*
X168465Y1042177D02*
X183485Y1042177D01*
X183485Y1043108D02*
X168465Y1043108D01*
X168465Y1044039D02*
X183485Y1044039D01*
X183485Y1044970D02*
X168465Y1044970D01*
X168465Y1045901D02*
X183485Y1045901D01*
D11*
X316455Y1046828D02*
X327495Y1046828D01*
X327495Y1031788D01*
X316455Y1031788D01*
X316455Y1046828D01*
X316455Y1032700D02*
X327495Y1032700D01*
X327495Y1033612D02*
X316455Y1033612D01*
X316455Y1034524D02*
X327495Y1034524D01*
X327495Y1035436D02*
X316455Y1035436D01*
X316455Y1036348D02*
X327495Y1036348D01*
X327495Y1037260D02*
X316455Y1037260D01*
X316455Y1038172D02*
X327495Y1038172D01*
X327495Y1039084D02*
X316455Y1039084D01*
X316455Y1039996D02*
X327495Y1039996D01*
X327495Y1040908D02*
X316455Y1040908D01*
X316455Y1041820D02*
X327495Y1041820D01*
X327495Y1042732D02*
X316455Y1042732D01*
X316455Y1043644D02*
X327495Y1043644D01*
X327495Y1044556D02*
X316455Y1044556D01*
X316455Y1045468D02*
X327495Y1045468D01*
X327495Y1046380D02*
X316455Y1046380D01*
D10*
X760030Y1052783D02*
X760030Y1037833D01*
X754080Y1037833D01*
X754080Y1052783D01*
X760030Y1052783D01*
X760030Y1038830D02*
X754080Y1038830D01*
X754080Y1039827D02*
X760030Y1039827D01*
X760030Y1040824D02*
X754080Y1040824D01*
X754080Y1041821D02*
X760030Y1041821D01*
X760030Y1042818D02*
X754080Y1042818D01*
X754080Y1043815D02*
X760030Y1043815D01*
X760030Y1044812D02*
X754080Y1044812D01*
X754080Y1045809D02*
X760030Y1045809D01*
X760030Y1046806D02*
X754080Y1046806D01*
X754080Y1047803D02*
X760030Y1047803D01*
X760030Y1048800D02*
X754080Y1048800D01*
X754080Y1049797D02*
X760030Y1049797D01*
X760030Y1050794D02*
X754080Y1050794D01*
X754080Y1051791D02*
X760030Y1051791D01*
X749030Y1052783D02*
X749030Y1037833D01*
X743080Y1037833D01*
X743080Y1052783D01*
X749030Y1052783D01*
X749030Y1038830D02*
X743080Y1038830D01*
X743080Y1039827D02*
X749030Y1039827D01*
X749030Y1040824D02*
X743080Y1040824D01*
X743080Y1041821D02*
X749030Y1041821D01*
X749030Y1042818D02*
X743080Y1042818D01*
X743080Y1043815D02*
X749030Y1043815D01*
X749030Y1044812D02*
X743080Y1044812D01*
X743080Y1045809D02*
X749030Y1045809D01*
X749030Y1046806D02*
X743080Y1046806D01*
X743080Y1047803D02*
X749030Y1047803D01*
X749030Y1048800D02*
X743080Y1048800D01*
X743080Y1049797D02*
X749030Y1049797D01*
X749030Y1050794D02*
X743080Y1050794D01*
X743080Y1051791D02*
X749030Y1051791D01*
X738030Y1052783D02*
X738030Y1037833D01*
X732080Y1037833D01*
X732080Y1052783D01*
X738030Y1052783D01*
X738030Y1038830D02*
X732080Y1038830D01*
X732080Y1039827D02*
X738030Y1039827D01*
X738030Y1040824D02*
X732080Y1040824D01*
X732080Y1041821D02*
X738030Y1041821D01*
X738030Y1042818D02*
X732080Y1042818D01*
X732080Y1043815D02*
X738030Y1043815D01*
X738030Y1044812D02*
X732080Y1044812D01*
X732080Y1045809D02*
X738030Y1045809D01*
X738030Y1046806D02*
X732080Y1046806D01*
X732080Y1047803D02*
X738030Y1047803D01*
X738030Y1048800D02*
X732080Y1048800D01*
X732080Y1049797D02*
X738030Y1049797D01*
X738030Y1050794D02*
X732080Y1050794D01*
X732080Y1051791D02*
X738030Y1051791D01*
X771030Y1052783D02*
X771030Y1037833D01*
X765080Y1037833D01*
X765080Y1052783D01*
X771030Y1052783D01*
X771030Y1038830D02*
X765080Y1038830D01*
X765080Y1039827D02*
X771030Y1039827D01*
X771030Y1040824D02*
X765080Y1040824D01*
X765080Y1041821D02*
X771030Y1041821D01*
X771030Y1042818D02*
X765080Y1042818D01*
X765080Y1043815D02*
X771030Y1043815D01*
X771030Y1044812D02*
X765080Y1044812D01*
X765080Y1045809D02*
X771030Y1045809D01*
X771030Y1046806D02*
X765080Y1046806D01*
X765080Y1047803D02*
X771030Y1047803D01*
X771030Y1048800D02*
X765080Y1048800D01*
X765080Y1049797D02*
X771030Y1049797D01*
X771030Y1050794D02*
X765080Y1050794D01*
X765080Y1051791D02*
X771030Y1051791D01*
X782030Y1052783D02*
X782030Y1037833D01*
X776080Y1037833D01*
X776080Y1052783D01*
X782030Y1052783D01*
X782030Y1038830D02*
X776080Y1038830D01*
X776080Y1039827D02*
X782030Y1039827D01*
X782030Y1040824D02*
X776080Y1040824D01*
X776080Y1041821D02*
X782030Y1041821D01*
X782030Y1042818D02*
X776080Y1042818D01*
X776080Y1043815D02*
X782030Y1043815D01*
X782030Y1044812D02*
X776080Y1044812D01*
X776080Y1045809D02*
X782030Y1045809D01*
X782030Y1046806D02*
X776080Y1046806D01*
X776080Y1047803D02*
X782030Y1047803D01*
X782030Y1048800D02*
X776080Y1048800D01*
X776080Y1049797D02*
X782030Y1049797D01*
X782030Y1050794D02*
X776080Y1050794D01*
X776080Y1051791D02*
X782030Y1051791D01*
X793030Y1052783D02*
X793030Y1037833D01*
X787080Y1037833D01*
X787080Y1052783D01*
X793030Y1052783D01*
X793030Y1038830D02*
X787080Y1038830D01*
X787080Y1039827D02*
X793030Y1039827D01*
X793030Y1040824D02*
X787080Y1040824D01*
X787080Y1041821D02*
X793030Y1041821D01*
X793030Y1042818D02*
X787080Y1042818D01*
X787080Y1043815D02*
X793030Y1043815D01*
X793030Y1044812D02*
X787080Y1044812D01*
X787080Y1045809D02*
X793030Y1045809D01*
X793030Y1046806D02*
X787080Y1046806D01*
X787080Y1047803D02*
X793030Y1047803D01*
X793030Y1048800D02*
X787080Y1048800D01*
X787080Y1049797D02*
X793030Y1049797D01*
X793030Y1050794D02*
X787080Y1050794D01*
X787080Y1051791D02*
X793030Y1051791D01*
X804030Y1052783D02*
X804030Y1037833D01*
X798080Y1037833D01*
X798080Y1052783D01*
X804030Y1052783D01*
X804030Y1038830D02*
X798080Y1038830D01*
X798080Y1039827D02*
X804030Y1039827D01*
X804030Y1040824D02*
X798080Y1040824D01*
X798080Y1041821D02*
X804030Y1041821D01*
X804030Y1042818D02*
X798080Y1042818D01*
X798080Y1043815D02*
X804030Y1043815D01*
X804030Y1044812D02*
X798080Y1044812D01*
X798080Y1045809D02*
X804030Y1045809D01*
X804030Y1046806D02*
X798080Y1046806D01*
X798080Y1047803D02*
X804030Y1047803D01*
X804030Y1048800D02*
X798080Y1048800D01*
X798080Y1049797D02*
X804030Y1049797D01*
X804030Y1050794D02*
X798080Y1050794D01*
X798080Y1051791D02*
X804030Y1051791D01*
X815030Y1052783D02*
X815030Y1037833D01*
X809080Y1037833D01*
X809080Y1052783D01*
X815030Y1052783D01*
X815030Y1038830D02*
X809080Y1038830D01*
X809080Y1039827D02*
X815030Y1039827D01*
X815030Y1040824D02*
X809080Y1040824D01*
X809080Y1041821D02*
X815030Y1041821D01*
X815030Y1042818D02*
X809080Y1042818D01*
X809080Y1043815D02*
X815030Y1043815D01*
X815030Y1044812D02*
X809080Y1044812D01*
X809080Y1045809D02*
X815030Y1045809D01*
X815030Y1046806D02*
X809080Y1046806D01*
X809080Y1047803D02*
X815030Y1047803D01*
X815030Y1048800D02*
X809080Y1048800D01*
X809080Y1049797D02*
X815030Y1049797D01*
X815030Y1050794D02*
X809080Y1050794D01*
X809080Y1051791D02*
X815030Y1051791D01*
X826030Y1052783D02*
X826030Y1037833D01*
X820080Y1037833D01*
X820080Y1052783D01*
X826030Y1052783D01*
X826030Y1038830D02*
X820080Y1038830D01*
X820080Y1039827D02*
X826030Y1039827D01*
X826030Y1040824D02*
X820080Y1040824D01*
X820080Y1041821D02*
X826030Y1041821D01*
X826030Y1042818D02*
X820080Y1042818D01*
X820080Y1043815D02*
X826030Y1043815D01*
X826030Y1044812D02*
X820080Y1044812D01*
X820080Y1045809D02*
X826030Y1045809D01*
X826030Y1046806D02*
X820080Y1046806D01*
X820080Y1047803D02*
X826030Y1047803D01*
X826030Y1048800D02*
X820080Y1048800D01*
X820080Y1049797D02*
X826030Y1049797D01*
X826030Y1050794D02*
X820080Y1050794D01*
X820080Y1051791D02*
X826030Y1051791D01*
D11*
X685575Y954828D02*
X674535Y954828D01*
X685575Y954828D02*
X685575Y933788D01*
X674535Y933788D01*
X674535Y954828D01*
X674535Y934700D02*
X685575Y934700D01*
X685575Y935612D02*
X674535Y935612D01*
X674535Y936524D02*
X685575Y936524D01*
X685575Y937436D02*
X674535Y937436D01*
X674535Y938348D02*
X685575Y938348D01*
X685575Y939260D02*
X674535Y939260D01*
X674535Y940172D02*
X685575Y940172D01*
X685575Y941084D02*
X674535Y941084D01*
X674535Y941996D02*
X685575Y941996D01*
X685575Y942908D02*
X674535Y942908D01*
X674535Y943820D02*
X685575Y943820D01*
X685575Y944732D02*
X674535Y944732D01*
X674535Y945644D02*
X685575Y945644D01*
X685575Y946556D02*
X674535Y946556D01*
X674535Y947468D02*
X685575Y947468D01*
X685575Y948380D02*
X674535Y948380D01*
X674535Y949292D02*
X685575Y949292D01*
X685575Y950204D02*
X674535Y950204D01*
X674535Y951116D02*
X685575Y951116D01*
X685575Y952028D02*
X674535Y952028D01*
X674535Y952940D02*
X685575Y952940D01*
X685575Y953852D02*
X674535Y953852D01*
X674535Y954764D02*
X685575Y954764D01*
X829535Y954828D02*
X840575Y954828D01*
X840575Y933788D01*
X829535Y933788D01*
X829535Y954828D01*
X829535Y934700D02*
X840575Y934700D01*
X840575Y935612D02*
X829535Y935612D01*
X829535Y936524D02*
X840575Y936524D01*
X840575Y937436D02*
X829535Y937436D01*
X829535Y938348D02*
X840575Y938348D01*
X840575Y939260D02*
X829535Y939260D01*
X829535Y940172D02*
X840575Y940172D01*
X840575Y941084D02*
X829535Y941084D01*
X829535Y941996D02*
X840575Y941996D01*
X840575Y942908D02*
X829535Y942908D01*
X829535Y943820D02*
X840575Y943820D01*
X840575Y944732D02*
X829535Y944732D01*
X829535Y945644D02*
X840575Y945644D01*
X840575Y946556D02*
X829535Y946556D01*
X829535Y947468D02*
X840575Y947468D01*
X840575Y948380D02*
X829535Y948380D01*
X829535Y949292D02*
X840575Y949292D01*
X840575Y950204D02*
X829535Y950204D01*
X829535Y951116D02*
X840575Y951116D01*
X840575Y952028D02*
X829535Y952028D01*
X829535Y952940D02*
X840575Y952940D01*
X840575Y953852D02*
X829535Y953852D01*
X829535Y954764D02*
X840575Y954764D01*
D12*
X696565Y1046818D02*
X681545Y1046818D01*
X696565Y1046818D02*
X696565Y1033798D01*
X681545Y1033798D01*
X681545Y1046818D01*
X681545Y1034729D02*
X696565Y1034729D01*
X696565Y1035660D02*
X681545Y1035660D01*
X681545Y1036591D02*
X696565Y1036591D01*
X696565Y1037522D02*
X681545Y1037522D01*
X681545Y1038453D02*
X696565Y1038453D01*
X696565Y1039384D02*
X681545Y1039384D01*
X681545Y1040315D02*
X696565Y1040315D01*
X696565Y1041246D02*
X681545Y1041246D01*
X681545Y1042177D02*
X696565Y1042177D01*
X696565Y1043108D02*
X681545Y1043108D01*
X681545Y1044039D02*
X696565Y1044039D01*
X696565Y1044970D02*
X681545Y1044970D01*
X681545Y1045901D02*
X696565Y1045901D01*
D11*
X829535Y1046828D02*
X840575Y1046828D01*
X840575Y1031788D01*
X829535Y1031788D01*
X829535Y1046828D01*
X829535Y1032700D02*
X840575Y1032700D01*
X840575Y1033612D02*
X829535Y1033612D01*
X829535Y1034524D02*
X840575Y1034524D01*
X840575Y1035436D02*
X829535Y1035436D01*
X829535Y1036348D02*
X840575Y1036348D01*
X840575Y1037260D02*
X829535Y1037260D01*
X829535Y1038172D02*
X840575Y1038172D01*
X840575Y1039084D02*
X829535Y1039084D01*
X829535Y1039996D02*
X840575Y1039996D01*
X840575Y1040908D02*
X829535Y1040908D01*
X829535Y1041820D02*
X840575Y1041820D01*
X840575Y1042732D02*
X829535Y1042732D01*
X829535Y1043644D02*
X840575Y1043644D01*
X840575Y1044556D02*
X829535Y1044556D01*
X829535Y1045468D02*
X840575Y1045468D01*
X840575Y1046380D02*
X829535Y1046380D01*
M02*
