G04 EAGLE Gerber RS-274X export*
G75*
%MOMM*%
%FSLAX34Y34*%
%LPD*%
%INSoldermask Bottom*%
%IPPOS*%
%AMOC8*
5,1,8,0,0,1.08239X$1,22.5*%
G01*
%ADD10C,0.228344*%
%ADD11C,1.127000*%
%ADD12C,3.175000*%
%ADD13C,0.777000*%
%ADD14C,0.231559*%
%ADD15C,0.225588*%
%ADD16C,0.229050*%
%ADD17C,0.827000*%
%ADD18C,1.397000*%
%ADD19C,2.006600*%
%ADD20C,0.228600*%
%ADD21C,1.270000*%
%ADD22C,1.627000*%

G36*
X856045Y55892D02*
X856045Y55892D01*
X856111Y55894D01*
X856154Y55912D01*
X856201Y55920D01*
X856258Y55954D01*
X856318Y55979D01*
X856353Y56010D01*
X856394Y56035D01*
X856436Y56086D01*
X856484Y56130D01*
X856506Y56172D01*
X856535Y56209D01*
X856556Y56271D01*
X856587Y56330D01*
X856595Y56384D01*
X856607Y56421D01*
X856606Y56461D01*
X856614Y56515D01*
X856614Y60325D01*
X856603Y60390D01*
X856601Y60456D01*
X856583Y60499D01*
X856575Y60546D01*
X856541Y60603D01*
X856516Y60663D01*
X856485Y60698D01*
X856460Y60739D01*
X856409Y60781D01*
X856365Y60829D01*
X856323Y60851D01*
X856286Y60880D01*
X856224Y60901D01*
X856165Y60932D01*
X856111Y60940D01*
X856074Y60952D01*
X856034Y60951D01*
X855980Y60959D01*
X853440Y60959D01*
X853375Y60948D01*
X853309Y60946D01*
X853266Y60928D01*
X853219Y60920D01*
X853162Y60886D01*
X853102Y60861D01*
X853067Y60830D01*
X853026Y60805D01*
X852985Y60754D01*
X852936Y60710D01*
X852914Y60668D01*
X852885Y60631D01*
X852864Y60569D01*
X852833Y60510D01*
X852825Y60456D01*
X852813Y60419D01*
X852813Y60415D01*
X852813Y60414D01*
X852814Y60379D01*
X852806Y60325D01*
X852806Y56515D01*
X852817Y56450D01*
X852819Y56384D01*
X852837Y56341D01*
X852845Y56294D01*
X852879Y56237D01*
X852904Y56177D01*
X852935Y56142D01*
X852960Y56101D01*
X853011Y56060D01*
X853055Y56011D01*
X853097Y55989D01*
X853134Y55960D01*
X853196Y55939D01*
X853255Y55908D01*
X853309Y55900D01*
X853346Y55888D01*
X853386Y55889D01*
X853440Y55881D01*
X855980Y55881D01*
X856045Y55892D01*
G37*
G36*
X342965Y55892D02*
X342965Y55892D01*
X343031Y55894D01*
X343074Y55912D01*
X343121Y55920D01*
X343178Y55954D01*
X343238Y55979D01*
X343273Y56010D01*
X343314Y56035D01*
X343356Y56086D01*
X343404Y56130D01*
X343426Y56172D01*
X343455Y56209D01*
X343476Y56271D01*
X343507Y56330D01*
X343515Y56384D01*
X343527Y56421D01*
X343526Y56461D01*
X343534Y56515D01*
X343534Y60325D01*
X343523Y60390D01*
X343521Y60456D01*
X343503Y60499D01*
X343495Y60546D01*
X343461Y60603D01*
X343436Y60663D01*
X343405Y60698D01*
X343380Y60739D01*
X343329Y60781D01*
X343285Y60829D01*
X343243Y60851D01*
X343206Y60880D01*
X343144Y60901D01*
X343085Y60932D01*
X343031Y60940D01*
X342994Y60952D01*
X342954Y60951D01*
X342900Y60959D01*
X340360Y60959D01*
X340295Y60948D01*
X340229Y60946D01*
X340186Y60928D01*
X340139Y60920D01*
X340082Y60886D01*
X340022Y60861D01*
X339987Y60830D01*
X339946Y60805D01*
X339905Y60754D01*
X339856Y60710D01*
X339834Y60668D01*
X339805Y60631D01*
X339784Y60569D01*
X339753Y60510D01*
X339745Y60456D01*
X339733Y60419D01*
X339733Y60415D01*
X339733Y60414D01*
X339734Y60379D01*
X339726Y60325D01*
X339726Y56515D01*
X339737Y56450D01*
X339739Y56384D01*
X339757Y56341D01*
X339765Y56294D01*
X339799Y56237D01*
X339824Y56177D01*
X339855Y56142D01*
X339880Y56101D01*
X339931Y56060D01*
X339975Y56011D01*
X340017Y55989D01*
X340054Y55960D01*
X340116Y55939D01*
X340175Y55908D01*
X340229Y55900D01*
X340266Y55888D01*
X340306Y55889D01*
X340360Y55881D01*
X342900Y55881D01*
X342965Y55892D01*
G37*
G36*
X882715Y1031252D02*
X882715Y1031252D01*
X882781Y1031254D01*
X882824Y1031272D01*
X882871Y1031280D01*
X882928Y1031314D01*
X882988Y1031339D01*
X883023Y1031370D01*
X883064Y1031395D01*
X883106Y1031446D01*
X883154Y1031490D01*
X883176Y1031532D01*
X883205Y1031569D01*
X883226Y1031631D01*
X883257Y1031690D01*
X883265Y1031744D01*
X883277Y1031781D01*
X883276Y1031821D01*
X883284Y1031875D01*
X883284Y1035685D01*
X883273Y1035750D01*
X883271Y1035816D01*
X883253Y1035859D01*
X883245Y1035906D01*
X883211Y1035963D01*
X883186Y1036023D01*
X883155Y1036058D01*
X883130Y1036099D01*
X883079Y1036141D01*
X883035Y1036189D01*
X882993Y1036211D01*
X882956Y1036240D01*
X882894Y1036261D01*
X882835Y1036292D01*
X882781Y1036300D01*
X882744Y1036312D01*
X882704Y1036311D01*
X882650Y1036319D01*
X880110Y1036319D01*
X880045Y1036308D01*
X879979Y1036306D01*
X879936Y1036288D01*
X879889Y1036280D01*
X879832Y1036246D01*
X879772Y1036221D01*
X879737Y1036190D01*
X879696Y1036165D01*
X879655Y1036114D01*
X879606Y1036070D01*
X879584Y1036028D01*
X879555Y1035991D01*
X879534Y1035929D01*
X879503Y1035870D01*
X879495Y1035816D01*
X879483Y1035779D01*
X879483Y1035775D01*
X879483Y1035774D01*
X879484Y1035739D01*
X879476Y1035685D01*
X879476Y1031875D01*
X879487Y1031810D01*
X879489Y1031744D01*
X879507Y1031701D01*
X879515Y1031654D01*
X879549Y1031597D01*
X879574Y1031537D01*
X879605Y1031502D01*
X879630Y1031461D01*
X879681Y1031420D01*
X879725Y1031371D01*
X879767Y1031349D01*
X879804Y1031320D01*
X879866Y1031299D01*
X879925Y1031268D01*
X879979Y1031260D01*
X880016Y1031248D01*
X880056Y1031249D01*
X880110Y1031241D01*
X882650Y1031241D01*
X882715Y1031252D01*
G37*
G36*
X369635Y1031252D02*
X369635Y1031252D01*
X369701Y1031254D01*
X369744Y1031272D01*
X369791Y1031280D01*
X369848Y1031314D01*
X369908Y1031339D01*
X369943Y1031370D01*
X369984Y1031395D01*
X370026Y1031446D01*
X370074Y1031490D01*
X370096Y1031532D01*
X370125Y1031569D01*
X370146Y1031631D01*
X370177Y1031690D01*
X370185Y1031744D01*
X370197Y1031781D01*
X370196Y1031821D01*
X370204Y1031875D01*
X370204Y1035685D01*
X370193Y1035750D01*
X370191Y1035816D01*
X370173Y1035859D01*
X370165Y1035906D01*
X370131Y1035963D01*
X370106Y1036023D01*
X370075Y1036058D01*
X370050Y1036099D01*
X369999Y1036141D01*
X369955Y1036189D01*
X369913Y1036211D01*
X369876Y1036240D01*
X369814Y1036261D01*
X369755Y1036292D01*
X369701Y1036300D01*
X369664Y1036312D01*
X369624Y1036311D01*
X369570Y1036319D01*
X367030Y1036319D01*
X366965Y1036308D01*
X366899Y1036306D01*
X366856Y1036288D01*
X366809Y1036280D01*
X366752Y1036246D01*
X366692Y1036221D01*
X366657Y1036190D01*
X366616Y1036165D01*
X366575Y1036114D01*
X366526Y1036070D01*
X366504Y1036028D01*
X366475Y1035991D01*
X366454Y1035929D01*
X366423Y1035870D01*
X366415Y1035816D01*
X366403Y1035779D01*
X366403Y1035775D01*
X366403Y1035774D01*
X366404Y1035739D01*
X366396Y1035685D01*
X366396Y1031875D01*
X366407Y1031810D01*
X366409Y1031744D01*
X366427Y1031701D01*
X366435Y1031654D01*
X366469Y1031597D01*
X366494Y1031537D01*
X366525Y1031502D01*
X366550Y1031461D01*
X366601Y1031420D01*
X366645Y1031371D01*
X366687Y1031349D01*
X366724Y1031320D01*
X366786Y1031299D01*
X366845Y1031268D01*
X366899Y1031260D01*
X366936Y1031248D01*
X366976Y1031249D01*
X367030Y1031241D01*
X369570Y1031241D01*
X369635Y1031252D01*
G37*
G36*
X856045Y955052D02*
X856045Y955052D01*
X856111Y955054D01*
X856154Y955072D01*
X856201Y955080D01*
X856258Y955114D01*
X856318Y955139D01*
X856353Y955170D01*
X856394Y955195D01*
X856436Y955246D01*
X856484Y955290D01*
X856506Y955332D01*
X856535Y955369D01*
X856556Y955431D01*
X856587Y955490D01*
X856595Y955544D01*
X856607Y955581D01*
X856606Y955621D01*
X856614Y955675D01*
X856614Y959485D01*
X856603Y959550D01*
X856601Y959616D01*
X856583Y959659D01*
X856575Y959706D01*
X856541Y959763D01*
X856516Y959823D01*
X856485Y959858D01*
X856460Y959899D01*
X856409Y959941D01*
X856365Y959989D01*
X856323Y960011D01*
X856286Y960040D01*
X856224Y960061D01*
X856165Y960092D01*
X856111Y960100D01*
X856074Y960112D01*
X856034Y960111D01*
X855980Y960119D01*
X853440Y960119D01*
X853375Y960108D01*
X853309Y960106D01*
X853266Y960088D01*
X853219Y960080D01*
X853162Y960046D01*
X853102Y960021D01*
X853067Y959990D01*
X853026Y959965D01*
X852985Y959914D01*
X852936Y959870D01*
X852914Y959828D01*
X852885Y959791D01*
X852864Y959729D01*
X852833Y959670D01*
X852825Y959616D01*
X852813Y959579D01*
X852813Y959575D01*
X852813Y959574D01*
X852814Y959539D01*
X852806Y959485D01*
X852806Y955675D01*
X852817Y955610D01*
X852819Y955544D01*
X852837Y955501D01*
X852845Y955454D01*
X852879Y955397D01*
X852904Y955337D01*
X852935Y955302D01*
X852960Y955261D01*
X853011Y955220D01*
X853055Y955171D01*
X853097Y955149D01*
X853134Y955120D01*
X853196Y955099D01*
X853255Y955068D01*
X853309Y955060D01*
X853346Y955048D01*
X853386Y955049D01*
X853440Y955041D01*
X855980Y955041D01*
X856045Y955052D01*
G37*
G36*
X342965Y955052D02*
X342965Y955052D01*
X343031Y955054D01*
X343074Y955072D01*
X343121Y955080D01*
X343178Y955114D01*
X343238Y955139D01*
X343273Y955170D01*
X343314Y955195D01*
X343356Y955246D01*
X343404Y955290D01*
X343426Y955332D01*
X343455Y955369D01*
X343476Y955431D01*
X343507Y955490D01*
X343515Y955544D01*
X343527Y955581D01*
X343526Y955621D01*
X343534Y955675D01*
X343534Y959485D01*
X343523Y959550D01*
X343521Y959616D01*
X343503Y959659D01*
X343495Y959706D01*
X343461Y959763D01*
X343436Y959823D01*
X343405Y959858D01*
X343380Y959899D01*
X343329Y959941D01*
X343285Y959989D01*
X343243Y960011D01*
X343206Y960040D01*
X343144Y960061D01*
X343085Y960092D01*
X343031Y960100D01*
X342994Y960112D01*
X342954Y960111D01*
X342900Y960119D01*
X340360Y960119D01*
X340295Y960108D01*
X340229Y960106D01*
X340186Y960088D01*
X340139Y960080D01*
X340082Y960046D01*
X340022Y960021D01*
X339987Y959990D01*
X339946Y959965D01*
X339905Y959914D01*
X339856Y959870D01*
X339834Y959828D01*
X339805Y959791D01*
X339784Y959729D01*
X339753Y959670D01*
X339745Y959616D01*
X339733Y959579D01*
X339733Y959575D01*
X339733Y959574D01*
X339734Y959539D01*
X339726Y959485D01*
X339726Y955675D01*
X339737Y955610D01*
X339739Y955544D01*
X339757Y955501D01*
X339765Y955454D01*
X339799Y955397D01*
X339824Y955337D01*
X339855Y955302D01*
X339880Y955261D01*
X339931Y955220D01*
X339975Y955171D01*
X340017Y955149D01*
X340054Y955120D01*
X340116Y955099D01*
X340175Y955068D01*
X340229Y955060D01*
X340266Y955048D01*
X340306Y955049D01*
X340360Y955041D01*
X342900Y955041D01*
X342965Y955052D01*
G37*
G36*
X908115Y915682D02*
X908115Y915682D01*
X908181Y915684D01*
X908224Y915702D01*
X908271Y915710D01*
X908328Y915744D01*
X908388Y915769D01*
X908423Y915800D01*
X908464Y915825D01*
X908506Y915876D01*
X908554Y915920D01*
X908576Y915962D01*
X908605Y915999D01*
X908626Y916061D01*
X908657Y916120D01*
X908665Y916174D01*
X908677Y916211D01*
X908676Y916251D01*
X908684Y916305D01*
X908684Y920115D01*
X908673Y920180D01*
X908671Y920246D01*
X908653Y920289D01*
X908645Y920336D01*
X908611Y920393D01*
X908586Y920453D01*
X908555Y920488D01*
X908530Y920529D01*
X908479Y920571D01*
X908435Y920619D01*
X908393Y920641D01*
X908356Y920670D01*
X908294Y920691D01*
X908235Y920722D01*
X908181Y920730D01*
X908144Y920742D01*
X908104Y920741D01*
X908050Y920749D01*
X905510Y920749D01*
X905445Y920738D01*
X905379Y920736D01*
X905336Y920718D01*
X905289Y920710D01*
X905232Y920676D01*
X905172Y920651D01*
X905137Y920620D01*
X905096Y920595D01*
X905055Y920544D01*
X905006Y920500D01*
X904984Y920458D01*
X904955Y920421D01*
X904934Y920359D01*
X904903Y920300D01*
X904895Y920246D01*
X904883Y920209D01*
X904883Y920205D01*
X904883Y920204D01*
X904884Y920169D01*
X904876Y920115D01*
X904876Y916305D01*
X904887Y916240D01*
X904889Y916174D01*
X904907Y916131D01*
X904915Y916084D01*
X904949Y916027D01*
X904974Y915967D01*
X905005Y915932D01*
X905030Y915891D01*
X905081Y915850D01*
X905125Y915801D01*
X905167Y915779D01*
X905204Y915750D01*
X905266Y915729D01*
X905325Y915698D01*
X905379Y915690D01*
X905416Y915678D01*
X905456Y915679D01*
X905510Y915671D01*
X908050Y915671D01*
X908115Y915682D01*
G37*
G36*
X395035Y915682D02*
X395035Y915682D01*
X395101Y915684D01*
X395144Y915702D01*
X395191Y915710D01*
X395248Y915744D01*
X395308Y915769D01*
X395343Y915800D01*
X395384Y915825D01*
X395426Y915876D01*
X395474Y915920D01*
X395496Y915962D01*
X395525Y915999D01*
X395546Y916061D01*
X395577Y916120D01*
X395585Y916174D01*
X395597Y916211D01*
X395596Y916251D01*
X395604Y916305D01*
X395604Y920115D01*
X395593Y920180D01*
X395591Y920246D01*
X395573Y920289D01*
X395565Y920336D01*
X395531Y920393D01*
X395506Y920453D01*
X395475Y920488D01*
X395450Y920529D01*
X395399Y920571D01*
X395355Y920619D01*
X395313Y920641D01*
X395276Y920670D01*
X395214Y920691D01*
X395155Y920722D01*
X395101Y920730D01*
X395064Y920742D01*
X395024Y920741D01*
X394970Y920749D01*
X392430Y920749D01*
X392365Y920738D01*
X392299Y920736D01*
X392256Y920718D01*
X392209Y920710D01*
X392152Y920676D01*
X392092Y920651D01*
X392057Y920620D01*
X392016Y920595D01*
X391975Y920544D01*
X391926Y920500D01*
X391904Y920458D01*
X391875Y920421D01*
X391854Y920359D01*
X391823Y920300D01*
X391815Y920246D01*
X391803Y920209D01*
X391803Y920205D01*
X391803Y920204D01*
X391804Y920169D01*
X391796Y920115D01*
X391796Y916305D01*
X391807Y916240D01*
X391809Y916174D01*
X391827Y916131D01*
X391835Y916084D01*
X391869Y916027D01*
X391894Y915967D01*
X391925Y915932D01*
X391950Y915891D01*
X392001Y915850D01*
X392045Y915801D01*
X392087Y915779D01*
X392124Y915750D01*
X392186Y915729D01*
X392245Y915698D01*
X392299Y915690D01*
X392336Y915678D01*
X392376Y915679D01*
X392430Y915671D01*
X394970Y915671D01*
X395035Y915682D01*
G37*
G36*
X109285Y915682D02*
X109285Y915682D01*
X109351Y915684D01*
X109394Y915702D01*
X109441Y915710D01*
X109498Y915744D01*
X109558Y915769D01*
X109593Y915800D01*
X109634Y915825D01*
X109676Y915876D01*
X109724Y915920D01*
X109746Y915962D01*
X109775Y915999D01*
X109796Y916061D01*
X109827Y916120D01*
X109835Y916174D01*
X109847Y916211D01*
X109846Y916251D01*
X109854Y916305D01*
X109854Y920115D01*
X109843Y920180D01*
X109841Y920246D01*
X109823Y920289D01*
X109815Y920336D01*
X109781Y920393D01*
X109756Y920453D01*
X109725Y920488D01*
X109700Y920529D01*
X109649Y920571D01*
X109605Y920619D01*
X109563Y920641D01*
X109526Y920670D01*
X109464Y920691D01*
X109405Y920722D01*
X109351Y920730D01*
X109314Y920742D01*
X109274Y920741D01*
X109220Y920749D01*
X106680Y920749D01*
X106615Y920738D01*
X106549Y920736D01*
X106506Y920718D01*
X106459Y920710D01*
X106402Y920676D01*
X106342Y920651D01*
X106307Y920620D01*
X106266Y920595D01*
X106225Y920544D01*
X106176Y920500D01*
X106154Y920458D01*
X106125Y920421D01*
X106104Y920359D01*
X106073Y920300D01*
X106065Y920246D01*
X106053Y920209D01*
X106053Y920205D01*
X106053Y920204D01*
X106054Y920169D01*
X106046Y920115D01*
X106046Y916305D01*
X106057Y916240D01*
X106059Y916174D01*
X106077Y916131D01*
X106085Y916084D01*
X106119Y916027D01*
X106144Y915967D01*
X106175Y915932D01*
X106200Y915891D01*
X106251Y915850D01*
X106295Y915801D01*
X106337Y915779D01*
X106374Y915750D01*
X106436Y915729D01*
X106495Y915698D01*
X106549Y915690D01*
X106586Y915678D01*
X106626Y915679D01*
X106680Y915671D01*
X109220Y915671D01*
X109285Y915682D01*
G37*
G36*
X129605Y915682D02*
X129605Y915682D01*
X129671Y915684D01*
X129714Y915702D01*
X129761Y915710D01*
X129818Y915744D01*
X129878Y915769D01*
X129913Y915800D01*
X129954Y915825D01*
X129996Y915876D01*
X130044Y915920D01*
X130066Y915962D01*
X130095Y915999D01*
X130116Y916061D01*
X130147Y916120D01*
X130155Y916174D01*
X130167Y916211D01*
X130166Y916251D01*
X130174Y916305D01*
X130174Y920115D01*
X130163Y920180D01*
X130161Y920246D01*
X130143Y920289D01*
X130135Y920336D01*
X130101Y920393D01*
X130076Y920453D01*
X130045Y920488D01*
X130020Y920529D01*
X129969Y920571D01*
X129925Y920619D01*
X129883Y920641D01*
X129846Y920670D01*
X129784Y920691D01*
X129725Y920722D01*
X129671Y920730D01*
X129634Y920742D01*
X129594Y920741D01*
X129540Y920749D01*
X127000Y920749D01*
X126935Y920738D01*
X126869Y920736D01*
X126826Y920718D01*
X126779Y920710D01*
X126722Y920676D01*
X126662Y920651D01*
X126627Y920620D01*
X126586Y920595D01*
X126545Y920544D01*
X126496Y920500D01*
X126474Y920458D01*
X126445Y920421D01*
X126424Y920359D01*
X126393Y920300D01*
X126385Y920246D01*
X126373Y920209D01*
X126373Y920205D01*
X126373Y920204D01*
X126374Y920169D01*
X126366Y920115D01*
X126366Y916305D01*
X126377Y916240D01*
X126379Y916174D01*
X126397Y916131D01*
X126405Y916084D01*
X126439Y916027D01*
X126464Y915967D01*
X126495Y915932D01*
X126520Y915891D01*
X126571Y915850D01*
X126615Y915801D01*
X126657Y915779D01*
X126694Y915750D01*
X126756Y915729D01*
X126815Y915698D01*
X126869Y915690D01*
X126906Y915678D01*
X126946Y915679D01*
X127000Y915671D01*
X129540Y915671D01*
X129605Y915682D01*
G37*
G36*
X622365Y915682D02*
X622365Y915682D01*
X622431Y915684D01*
X622474Y915702D01*
X622521Y915710D01*
X622578Y915744D01*
X622638Y915769D01*
X622673Y915800D01*
X622714Y915825D01*
X622756Y915876D01*
X622804Y915920D01*
X622826Y915962D01*
X622855Y915999D01*
X622876Y916061D01*
X622907Y916120D01*
X622915Y916174D01*
X622927Y916211D01*
X622926Y916251D01*
X622934Y916305D01*
X622934Y920115D01*
X622923Y920180D01*
X622921Y920246D01*
X622903Y920289D01*
X622895Y920336D01*
X622861Y920393D01*
X622836Y920453D01*
X622805Y920488D01*
X622780Y920529D01*
X622729Y920571D01*
X622685Y920619D01*
X622643Y920641D01*
X622606Y920670D01*
X622544Y920691D01*
X622485Y920722D01*
X622431Y920730D01*
X622394Y920742D01*
X622354Y920741D01*
X622300Y920749D01*
X619760Y920749D01*
X619695Y920738D01*
X619629Y920736D01*
X619586Y920718D01*
X619539Y920710D01*
X619482Y920676D01*
X619422Y920651D01*
X619387Y920620D01*
X619346Y920595D01*
X619305Y920544D01*
X619256Y920500D01*
X619234Y920458D01*
X619205Y920421D01*
X619184Y920359D01*
X619153Y920300D01*
X619145Y920246D01*
X619133Y920209D01*
X619133Y920205D01*
X619133Y920204D01*
X619134Y920169D01*
X619126Y920115D01*
X619126Y916305D01*
X619137Y916240D01*
X619139Y916174D01*
X619157Y916131D01*
X619165Y916084D01*
X619199Y916027D01*
X619224Y915967D01*
X619255Y915932D01*
X619280Y915891D01*
X619331Y915850D01*
X619375Y915801D01*
X619417Y915779D01*
X619454Y915750D01*
X619516Y915729D01*
X619575Y915698D01*
X619629Y915690D01*
X619666Y915678D01*
X619706Y915679D01*
X619760Y915671D01*
X622300Y915671D01*
X622365Y915682D01*
G37*
G36*
X642685Y915682D02*
X642685Y915682D01*
X642751Y915684D01*
X642794Y915702D01*
X642841Y915710D01*
X642898Y915744D01*
X642958Y915769D01*
X642993Y915800D01*
X643034Y915825D01*
X643076Y915876D01*
X643124Y915920D01*
X643146Y915962D01*
X643175Y915999D01*
X643196Y916061D01*
X643227Y916120D01*
X643235Y916174D01*
X643247Y916211D01*
X643246Y916251D01*
X643254Y916305D01*
X643254Y920115D01*
X643243Y920180D01*
X643241Y920246D01*
X643223Y920289D01*
X643215Y920336D01*
X643181Y920393D01*
X643156Y920453D01*
X643125Y920488D01*
X643100Y920529D01*
X643049Y920571D01*
X643005Y920619D01*
X642963Y920641D01*
X642926Y920670D01*
X642864Y920691D01*
X642805Y920722D01*
X642751Y920730D01*
X642714Y920742D01*
X642674Y920741D01*
X642620Y920749D01*
X640080Y920749D01*
X640015Y920738D01*
X639949Y920736D01*
X639906Y920718D01*
X639859Y920710D01*
X639802Y920676D01*
X639742Y920651D01*
X639707Y920620D01*
X639666Y920595D01*
X639625Y920544D01*
X639576Y920500D01*
X639554Y920458D01*
X639525Y920421D01*
X639504Y920359D01*
X639473Y920300D01*
X639465Y920246D01*
X639453Y920209D01*
X639453Y920205D01*
X639453Y920204D01*
X639454Y920169D01*
X639446Y920115D01*
X639446Y916305D01*
X639457Y916240D01*
X639459Y916174D01*
X639477Y916131D01*
X639485Y916084D01*
X639519Y916027D01*
X639544Y915967D01*
X639575Y915932D01*
X639600Y915891D01*
X639651Y915850D01*
X639695Y915801D01*
X639737Y915779D01*
X639774Y915750D01*
X639836Y915729D01*
X639895Y915698D01*
X639949Y915690D01*
X639986Y915678D01*
X640026Y915679D01*
X640080Y915671D01*
X642620Y915671D01*
X642685Y915682D01*
G37*
G36*
X369635Y591832D02*
X369635Y591832D01*
X369701Y591834D01*
X369744Y591852D01*
X369791Y591860D01*
X369848Y591894D01*
X369908Y591919D01*
X369943Y591950D01*
X369984Y591975D01*
X370026Y592026D01*
X370074Y592070D01*
X370096Y592112D01*
X370125Y592149D01*
X370146Y592211D01*
X370177Y592270D01*
X370185Y592324D01*
X370197Y592361D01*
X370196Y592401D01*
X370204Y592455D01*
X370204Y596265D01*
X370193Y596330D01*
X370191Y596396D01*
X370173Y596439D01*
X370165Y596486D01*
X370131Y596543D01*
X370106Y596603D01*
X370075Y596638D01*
X370050Y596679D01*
X369999Y596721D01*
X369955Y596769D01*
X369913Y596791D01*
X369876Y596820D01*
X369814Y596841D01*
X369755Y596872D01*
X369701Y596880D01*
X369664Y596892D01*
X369624Y596891D01*
X369570Y596899D01*
X367030Y596899D01*
X366965Y596888D01*
X366899Y596886D01*
X366856Y596868D01*
X366809Y596860D01*
X366752Y596826D01*
X366692Y596801D01*
X366657Y596770D01*
X366616Y596745D01*
X366575Y596694D01*
X366526Y596650D01*
X366504Y596608D01*
X366475Y596571D01*
X366454Y596509D01*
X366423Y596450D01*
X366415Y596396D01*
X366403Y596359D01*
X366403Y596355D01*
X366403Y596354D01*
X366404Y596319D01*
X366396Y596265D01*
X366396Y592455D01*
X366407Y592390D01*
X366409Y592324D01*
X366427Y592281D01*
X366435Y592234D01*
X366469Y592177D01*
X366494Y592117D01*
X366525Y592082D01*
X366550Y592041D01*
X366601Y592000D01*
X366645Y591951D01*
X366687Y591929D01*
X366724Y591900D01*
X366786Y591879D01*
X366845Y591848D01*
X366899Y591840D01*
X366936Y591828D01*
X366976Y591829D01*
X367030Y591821D01*
X369570Y591821D01*
X369635Y591832D01*
G37*
G36*
X882715Y591832D02*
X882715Y591832D01*
X882781Y591834D01*
X882824Y591852D01*
X882871Y591860D01*
X882928Y591894D01*
X882988Y591919D01*
X883023Y591950D01*
X883064Y591975D01*
X883106Y592026D01*
X883154Y592070D01*
X883176Y592112D01*
X883205Y592149D01*
X883226Y592211D01*
X883257Y592270D01*
X883265Y592324D01*
X883277Y592361D01*
X883276Y592401D01*
X883284Y592455D01*
X883284Y596265D01*
X883273Y596330D01*
X883271Y596396D01*
X883253Y596439D01*
X883245Y596486D01*
X883211Y596543D01*
X883186Y596603D01*
X883155Y596638D01*
X883130Y596679D01*
X883079Y596721D01*
X883035Y596769D01*
X882993Y596791D01*
X882956Y596820D01*
X882894Y596841D01*
X882835Y596872D01*
X882781Y596880D01*
X882744Y596892D01*
X882704Y596891D01*
X882650Y596899D01*
X880110Y596899D01*
X880045Y596888D01*
X879979Y596886D01*
X879936Y596868D01*
X879889Y596860D01*
X879832Y596826D01*
X879772Y596801D01*
X879737Y596770D01*
X879696Y596745D01*
X879655Y596694D01*
X879606Y596650D01*
X879584Y596608D01*
X879555Y596571D01*
X879534Y596509D01*
X879503Y596450D01*
X879495Y596396D01*
X879483Y596359D01*
X879483Y596355D01*
X879483Y596354D01*
X879484Y596319D01*
X879476Y596265D01*
X879476Y592455D01*
X879487Y592390D01*
X879489Y592324D01*
X879507Y592281D01*
X879515Y592234D01*
X879549Y592177D01*
X879574Y592117D01*
X879605Y592082D01*
X879630Y592041D01*
X879681Y592000D01*
X879725Y591951D01*
X879767Y591929D01*
X879804Y591900D01*
X879866Y591879D01*
X879925Y591848D01*
X879979Y591840D01*
X880016Y591828D01*
X880056Y591829D01*
X880110Y591821D01*
X882650Y591821D01*
X882715Y591832D01*
G37*
G36*
X369635Y581672D02*
X369635Y581672D01*
X369701Y581674D01*
X369744Y581692D01*
X369791Y581700D01*
X369848Y581734D01*
X369908Y581759D01*
X369943Y581790D01*
X369984Y581815D01*
X370026Y581866D01*
X370074Y581910D01*
X370096Y581952D01*
X370125Y581989D01*
X370146Y582051D01*
X370177Y582110D01*
X370185Y582164D01*
X370197Y582201D01*
X370196Y582241D01*
X370204Y582295D01*
X370204Y586105D01*
X370193Y586170D01*
X370191Y586236D01*
X370173Y586279D01*
X370165Y586326D01*
X370131Y586383D01*
X370106Y586443D01*
X370075Y586478D01*
X370050Y586519D01*
X369999Y586561D01*
X369955Y586609D01*
X369913Y586631D01*
X369876Y586660D01*
X369814Y586681D01*
X369755Y586712D01*
X369701Y586720D01*
X369664Y586732D01*
X369624Y586731D01*
X369570Y586739D01*
X367030Y586739D01*
X366965Y586728D01*
X366899Y586726D01*
X366856Y586708D01*
X366809Y586700D01*
X366752Y586666D01*
X366692Y586641D01*
X366657Y586610D01*
X366616Y586585D01*
X366575Y586534D01*
X366526Y586490D01*
X366504Y586448D01*
X366475Y586411D01*
X366454Y586349D01*
X366423Y586290D01*
X366415Y586236D01*
X366403Y586199D01*
X366403Y586195D01*
X366403Y586194D01*
X366404Y586159D01*
X366396Y586105D01*
X366396Y582295D01*
X366407Y582230D01*
X366409Y582164D01*
X366427Y582121D01*
X366435Y582074D01*
X366469Y582017D01*
X366494Y581957D01*
X366525Y581922D01*
X366550Y581881D01*
X366601Y581840D01*
X366645Y581791D01*
X366687Y581769D01*
X366724Y581740D01*
X366786Y581719D01*
X366845Y581688D01*
X366899Y581680D01*
X366936Y581668D01*
X366976Y581669D01*
X367030Y581661D01*
X369570Y581661D01*
X369635Y581672D01*
G37*
G36*
X882715Y581672D02*
X882715Y581672D01*
X882781Y581674D01*
X882824Y581692D01*
X882871Y581700D01*
X882928Y581734D01*
X882988Y581759D01*
X883023Y581790D01*
X883064Y581815D01*
X883106Y581866D01*
X883154Y581910D01*
X883176Y581952D01*
X883205Y581989D01*
X883226Y582051D01*
X883257Y582110D01*
X883265Y582164D01*
X883277Y582201D01*
X883276Y582241D01*
X883284Y582295D01*
X883284Y586105D01*
X883273Y586170D01*
X883271Y586236D01*
X883253Y586279D01*
X883245Y586326D01*
X883211Y586383D01*
X883186Y586443D01*
X883155Y586478D01*
X883130Y586519D01*
X883079Y586561D01*
X883035Y586609D01*
X882993Y586631D01*
X882956Y586660D01*
X882894Y586681D01*
X882835Y586712D01*
X882781Y586720D01*
X882744Y586732D01*
X882704Y586731D01*
X882650Y586739D01*
X880110Y586739D01*
X880045Y586728D01*
X879979Y586726D01*
X879936Y586708D01*
X879889Y586700D01*
X879832Y586666D01*
X879772Y586641D01*
X879737Y586610D01*
X879696Y586585D01*
X879655Y586534D01*
X879606Y586490D01*
X879584Y586448D01*
X879555Y586411D01*
X879534Y586349D01*
X879503Y586290D01*
X879495Y586236D01*
X879483Y586199D01*
X879483Y586195D01*
X879483Y586194D01*
X879484Y586159D01*
X879476Y586105D01*
X879476Y582295D01*
X879487Y582230D01*
X879489Y582164D01*
X879507Y582121D01*
X879515Y582074D01*
X879549Y582017D01*
X879574Y581957D01*
X879605Y581922D01*
X879630Y581881D01*
X879681Y581840D01*
X879725Y581791D01*
X879767Y581769D01*
X879804Y581740D01*
X879866Y581719D01*
X879925Y581688D01*
X879979Y581680D01*
X880016Y581668D01*
X880056Y581669D01*
X880110Y581661D01*
X882650Y581661D01*
X882715Y581672D01*
G37*
G36*
X342965Y505472D02*
X342965Y505472D01*
X343031Y505474D01*
X343074Y505492D01*
X343121Y505500D01*
X343178Y505534D01*
X343238Y505559D01*
X343273Y505590D01*
X343314Y505615D01*
X343356Y505666D01*
X343404Y505710D01*
X343426Y505752D01*
X343455Y505789D01*
X343476Y505851D01*
X343507Y505910D01*
X343515Y505964D01*
X343527Y506001D01*
X343526Y506041D01*
X343534Y506095D01*
X343534Y509905D01*
X343523Y509970D01*
X343521Y510036D01*
X343503Y510079D01*
X343495Y510126D01*
X343461Y510183D01*
X343436Y510243D01*
X343405Y510278D01*
X343380Y510319D01*
X343329Y510361D01*
X343285Y510409D01*
X343243Y510431D01*
X343206Y510460D01*
X343144Y510481D01*
X343085Y510512D01*
X343031Y510520D01*
X342994Y510532D01*
X342954Y510531D01*
X342900Y510539D01*
X340360Y510539D01*
X340295Y510528D01*
X340229Y510526D01*
X340186Y510508D01*
X340139Y510500D01*
X340082Y510466D01*
X340022Y510441D01*
X339987Y510410D01*
X339946Y510385D01*
X339905Y510334D01*
X339856Y510290D01*
X339834Y510248D01*
X339805Y510211D01*
X339784Y510149D01*
X339753Y510090D01*
X339745Y510036D01*
X339733Y509999D01*
X339733Y509995D01*
X339733Y509994D01*
X339734Y509959D01*
X339726Y509905D01*
X339726Y506095D01*
X339737Y506030D01*
X339739Y505964D01*
X339757Y505921D01*
X339765Y505874D01*
X339799Y505817D01*
X339824Y505757D01*
X339855Y505722D01*
X339880Y505681D01*
X339931Y505640D01*
X339975Y505591D01*
X340017Y505569D01*
X340054Y505540D01*
X340116Y505519D01*
X340175Y505488D01*
X340229Y505480D01*
X340266Y505468D01*
X340306Y505469D01*
X340360Y505461D01*
X342900Y505461D01*
X342965Y505472D01*
G37*
G36*
X856045Y505472D02*
X856045Y505472D01*
X856111Y505474D01*
X856154Y505492D01*
X856201Y505500D01*
X856258Y505534D01*
X856318Y505559D01*
X856353Y505590D01*
X856394Y505615D01*
X856436Y505666D01*
X856484Y505710D01*
X856506Y505752D01*
X856535Y505789D01*
X856556Y505851D01*
X856587Y505910D01*
X856595Y505964D01*
X856607Y506001D01*
X856606Y506041D01*
X856614Y506095D01*
X856614Y509905D01*
X856603Y509970D01*
X856601Y510036D01*
X856583Y510079D01*
X856575Y510126D01*
X856541Y510183D01*
X856516Y510243D01*
X856485Y510278D01*
X856460Y510319D01*
X856409Y510361D01*
X856365Y510409D01*
X856323Y510431D01*
X856286Y510460D01*
X856224Y510481D01*
X856165Y510512D01*
X856111Y510520D01*
X856074Y510532D01*
X856034Y510531D01*
X855980Y510539D01*
X853440Y510539D01*
X853375Y510528D01*
X853309Y510526D01*
X853266Y510508D01*
X853219Y510500D01*
X853162Y510466D01*
X853102Y510441D01*
X853067Y510410D01*
X853026Y510385D01*
X852985Y510334D01*
X852936Y510290D01*
X852914Y510248D01*
X852885Y510211D01*
X852864Y510149D01*
X852833Y510090D01*
X852825Y510036D01*
X852813Y509999D01*
X852813Y509995D01*
X852813Y509994D01*
X852814Y509959D01*
X852806Y509905D01*
X852806Y506095D01*
X852817Y506030D01*
X852819Y505964D01*
X852837Y505921D01*
X852845Y505874D01*
X852879Y505817D01*
X852904Y505757D01*
X852935Y505722D01*
X852960Y505681D01*
X853011Y505640D01*
X853055Y505591D01*
X853097Y505569D01*
X853134Y505540D01*
X853196Y505519D01*
X853255Y505488D01*
X853309Y505480D01*
X853346Y505468D01*
X853386Y505469D01*
X853440Y505461D01*
X855980Y505461D01*
X856045Y505472D01*
G37*
G36*
X395035Y466102D02*
X395035Y466102D01*
X395101Y466104D01*
X395144Y466122D01*
X395191Y466130D01*
X395248Y466164D01*
X395308Y466189D01*
X395343Y466220D01*
X395384Y466245D01*
X395426Y466296D01*
X395474Y466340D01*
X395496Y466382D01*
X395525Y466419D01*
X395546Y466481D01*
X395577Y466540D01*
X395585Y466594D01*
X395597Y466631D01*
X395596Y466671D01*
X395604Y466725D01*
X395604Y470535D01*
X395593Y470600D01*
X395591Y470666D01*
X395573Y470709D01*
X395565Y470756D01*
X395531Y470813D01*
X395506Y470873D01*
X395475Y470908D01*
X395450Y470949D01*
X395399Y470991D01*
X395355Y471039D01*
X395313Y471061D01*
X395276Y471090D01*
X395214Y471111D01*
X395155Y471142D01*
X395101Y471150D01*
X395064Y471162D01*
X395024Y471161D01*
X394970Y471169D01*
X392430Y471169D01*
X392365Y471158D01*
X392299Y471156D01*
X392256Y471138D01*
X392209Y471130D01*
X392152Y471096D01*
X392092Y471071D01*
X392057Y471040D01*
X392016Y471015D01*
X391975Y470964D01*
X391926Y470920D01*
X391904Y470878D01*
X391875Y470841D01*
X391854Y470779D01*
X391823Y470720D01*
X391815Y470666D01*
X391803Y470629D01*
X391803Y470625D01*
X391803Y470624D01*
X391804Y470589D01*
X391796Y470535D01*
X391796Y466725D01*
X391807Y466660D01*
X391809Y466594D01*
X391827Y466551D01*
X391835Y466504D01*
X391869Y466447D01*
X391894Y466387D01*
X391925Y466352D01*
X391950Y466311D01*
X392001Y466270D01*
X392045Y466221D01*
X392087Y466199D01*
X392124Y466170D01*
X392186Y466149D01*
X392245Y466118D01*
X392299Y466110D01*
X392336Y466098D01*
X392376Y466099D01*
X392430Y466091D01*
X394970Y466091D01*
X395035Y466102D01*
G37*
G36*
X129605Y466102D02*
X129605Y466102D01*
X129671Y466104D01*
X129714Y466122D01*
X129761Y466130D01*
X129818Y466164D01*
X129878Y466189D01*
X129913Y466220D01*
X129954Y466245D01*
X129996Y466296D01*
X130044Y466340D01*
X130066Y466382D01*
X130095Y466419D01*
X130116Y466481D01*
X130147Y466540D01*
X130155Y466594D01*
X130167Y466631D01*
X130166Y466671D01*
X130174Y466725D01*
X130174Y470535D01*
X130163Y470600D01*
X130161Y470666D01*
X130143Y470709D01*
X130135Y470756D01*
X130101Y470813D01*
X130076Y470873D01*
X130045Y470908D01*
X130020Y470949D01*
X129969Y470991D01*
X129925Y471039D01*
X129883Y471061D01*
X129846Y471090D01*
X129784Y471111D01*
X129725Y471142D01*
X129671Y471150D01*
X129634Y471162D01*
X129594Y471161D01*
X129540Y471169D01*
X127000Y471169D01*
X126935Y471158D01*
X126869Y471156D01*
X126826Y471138D01*
X126779Y471130D01*
X126722Y471096D01*
X126662Y471071D01*
X126627Y471040D01*
X126586Y471015D01*
X126545Y470964D01*
X126496Y470920D01*
X126474Y470878D01*
X126445Y470841D01*
X126424Y470779D01*
X126393Y470720D01*
X126385Y470666D01*
X126373Y470629D01*
X126373Y470625D01*
X126373Y470624D01*
X126374Y470589D01*
X126366Y470535D01*
X126366Y466725D01*
X126377Y466660D01*
X126379Y466594D01*
X126397Y466551D01*
X126405Y466504D01*
X126439Y466447D01*
X126464Y466387D01*
X126495Y466352D01*
X126520Y466311D01*
X126571Y466270D01*
X126615Y466221D01*
X126657Y466199D01*
X126694Y466170D01*
X126756Y466149D01*
X126815Y466118D01*
X126869Y466110D01*
X126906Y466098D01*
X126946Y466099D01*
X127000Y466091D01*
X129540Y466091D01*
X129605Y466102D01*
G37*
G36*
X622365Y466102D02*
X622365Y466102D01*
X622431Y466104D01*
X622474Y466122D01*
X622521Y466130D01*
X622578Y466164D01*
X622638Y466189D01*
X622673Y466220D01*
X622714Y466245D01*
X622756Y466296D01*
X622804Y466340D01*
X622826Y466382D01*
X622855Y466419D01*
X622876Y466481D01*
X622907Y466540D01*
X622915Y466594D01*
X622927Y466631D01*
X622926Y466671D01*
X622934Y466725D01*
X622934Y470535D01*
X622923Y470600D01*
X622921Y470666D01*
X622903Y470709D01*
X622895Y470756D01*
X622861Y470813D01*
X622836Y470873D01*
X622805Y470908D01*
X622780Y470949D01*
X622729Y470991D01*
X622685Y471039D01*
X622643Y471061D01*
X622606Y471090D01*
X622544Y471111D01*
X622485Y471142D01*
X622431Y471150D01*
X622394Y471162D01*
X622354Y471161D01*
X622300Y471169D01*
X619760Y471169D01*
X619695Y471158D01*
X619629Y471156D01*
X619586Y471138D01*
X619539Y471130D01*
X619482Y471096D01*
X619422Y471071D01*
X619387Y471040D01*
X619346Y471015D01*
X619305Y470964D01*
X619256Y470920D01*
X619234Y470878D01*
X619205Y470841D01*
X619184Y470779D01*
X619153Y470720D01*
X619145Y470666D01*
X619133Y470629D01*
X619133Y470625D01*
X619133Y470624D01*
X619134Y470589D01*
X619126Y470535D01*
X619126Y466725D01*
X619137Y466660D01*
X619139Y466594D01*
X619157Y466551D01*
X619165Y466504D01*
X619199Y466447D01*
X619224Y466387D01*
X619255Y466352D01*
X619280Y466311D01*
X619331Y466270D01*
X619375Y466221D01*
X619417Y466199D01*
X619454Y466170D01*
X619516Y466149D01*
X619575Y466118D01*
X619629Y466110D01*
X619666Y466098D01*
X619706Y466099D01*
X619760Y466091D01*
X622300Y466091D01*
X622365Y466102D01*
G37*
G36*
X908115Y466102D02*
X908115Y466102D01*
X908181Y466104D01*
X908224Y466122D01*
X908271Y466130D01*
X908328Y466164D01*
X908388Y466189D01*
X908423Y466220D01*
X908464Y466245D01*
X908506Y466296D01*
X908554Y466340D01*
X908576Y466382D01*
X908605Y466419D01*
X908626Y466481D01*
X908657Y466540D01*
X908665Y466594D01*
X908677Y466631D01*
X908676Y466671D01*
X908684Y466725D01*
X908684Y470535D01*
X908673Y470600D01*
X908671Y470666D01*
X908653Y470709D01*
X908645Y470756D01*
X908611Y470813D01*
X908586Y470873D01*
X908555Y470908D01*
X908530Y470949D01*
X908479Y470991D01*
X908435Y471039D01*
X908393Y471061D01*
X908356Y471090D01*
X908294Y471111D01*
X908235Y471142D01*
X908181Y471150D01*
X908144Y471162D01*
X908104Y471161D01*
X908050Y471169D01*
X905510Y471169D01*
X905445Y471158D01*
X905379Y471156D01*
X905336Y471138D01*
X905289Y471130D01*
X905232Y471096D01*
X905172Y471071D01*
X905137Y471040D01*
X905096Y471015D01*
X905055Y470964D01*
X905006Y470920D01*
X904984Y470878D01*
X904955Y470841D01*
X904934Y470779D01*
X904903Y470720D01*
X904895Y470666D01*
X904883Y470629D01*
X904883Y470625D01*
X904883Y470624D01*
X904884Y470589D01*
X904876Y470535D01*
X904876Y466725D01*
X904887Y466660D01*
X904889Y466594D01*
X904907Y466551D01*
X904915Y466504D01*
X904949Y466447D01*
X904974Y466387D01*
X905005Y466352D01*
X905030Y466311D01*
X905081Y466270D01*
X905125Y466221D01*
X905167Y466199D01*
X905204Y466170D01*
X905266Y466149D01*
X905325Y466118D01*
X905379Y466110D01*
X905416Y466098D01*
X905456Y466099D01*
X905510Y466091D01*
X908050Y466091D01*
X908115Y466102D01*
G37*
G36*
X642685Y466102D02*
X642685Y466102D01*
X642751Y466104D01*
X642794Y466122D01*
X642841Y466130D01*
X642898Y466164D01*
X642958Y466189D01*
X642993Y466220D01*
X643034Y466245D01*
X643076Y466296D01*
X643124Y466340D01*
X643146Y466382D01*
X643175Y466419D01*
X643196Y466481D01*
X643227Y466540D01*
X643235Y466594D01*
X643247Y466631D01*
X643246Y466671D01*
X643254Y466725D01*
X643254Y470535D01*
X643243Y470600D01*
X643241Y470666D01*
X643223Y470709D01*
X643215Y470756D01*
X643181Y470813D01*
X643156Y470873D01*
X643125Y470908D01*
X643100Y470949D01*
X643049Y470991D01*
X643005Y471039D01*
X642963Y471061D01*
X642926Y471090D01*
X642864Y471111D01*
X642805Y471142D01*
X642751Y471150D01*
X642714Y471162D01*
X642674Y471161D01*
X642620Y471169D01*
X640080Y471169D01*
X640015Y471158D01*
X639949Y471156D01*
X639906Y471138D01*
X639859Y471130D01*
X639802Y471096D01*
X639742Y471071D01*
X639707Y471040D01*
X639666Y471015D01*
X639625Y470964D01*
X639576Y470920D01*
X639554Y470878D01*
X639525Y470841D01*
X639504Y470779D01*
X639473Y470720D01*
X639465Y470666D01*
X639453Y470629D01*
X639453Y470625D01*
X639453Y470624D01*
X639454Y470589D01*
X639446Y470535D01*
X639446Y466725D01*
X639457Y466660D01*
X639459Y466594D01*
X639477Y466551D01*
X639485Y466504D01*
X639519Y466447D01*
X639544Y466387D01*
X639575Y466352D01*
X639600Y466311D01*
X639651Y466270D01*
X639695Y466221D01*
X639737Y466199D01*
X639774Y466170D01*
X639836Y466149D01*
X639895Y466118D01*
X639949Y466110D01*
X639986Y466098D01*
X640026Y466099D01*
X640080Y466091D01*
X642620Y466091D01*
X642685Y466102D01*
G37*
G36*
X109285Y466102D02*
X109285Y466102D01*
X109351Y466104D01*
X109394Y466122D01*
X109441Y466130D01*
X109498Y466164D01*
X109558Y466189D01*
X109593Y466220D01*
X109634Y466245D01*
X109676Y466296D01*
X109724Y466340D01*
X109746Y466382D01*
X109775Y466419D01*
X109796Y466481D01*
X109827Y466540D01*
X109835Y466594D01*
X109847Y466631D01*
X109846Y466671D01*
X109854Y466725D01*
X109854Y470535D01*
X109843Y470600D01*
X109841Y470666D01*
X109823Y470709D01*
X109815Y470756D01*
X109781Y470813D01*
X109756Y470873D01*
X109725Y470908D01*
X109700Y470949D01*
X109649Y470991D01*
X109605Y471039D01*
X109563Y471061D01*
X109526Y471090D01*
X109464Y471111D01*
X109405Y471142D01*
X109351Y471150D01*
X109314Y471162D01*
X109274Y471161D01*
X109220Y471169D01*
X106680Y471169D01*
X106615Y471158D01*
X106549Y471156D01*
X106506Y471138D01*
X106459Y471130D01*
X106402Y471096D01*
X106342Y471071D01*
X106307Y471040D01*
X106266Y471015D01*
X106225Y470964D01*
X106176Y470920D01*
X106154Y470878D01*
X106125Y470841D01*
X106104Y470779D01*
X106073Y470720D01*
X106065Y470666D01*
X106053Y470629D01*
X106053Y470625D01*
X106053Y470624D01*
X106054Y470589D01*
X106046Y470535D01*
X106046Y466725D01*
X106057Y466660D01*
X106059Y466594D01*
X106077Y466551D01*
X106085Y466504D01*
X106119Y466447D01*
X106144Y466387D01*
X106175Y466352D01*
X106200Y466311D01*
X106251Y466270D01*
X106295Y466221D01*
X106337Y466199D01*
X106374Y466170D01*
X106436Y466149D01*
X106495Y466118D01*
X106549Y466110D01*
X106586Y466098D01*
X106626Y466099D01*
X106680Y466091D01*
X109220Y466091D01*
X109285Y466102D01*
G37*
G36*
X882715Y142252D02*
X882715Y142252D01*
X882781Y142254D01*
X882824Y142272D01*
X882871Y142280D01*
X882928Y142314D01*
X882988Y142339D01*
X883023Y142370D01*
X883064Y142395D01*
X883106Y142446D01*
X883154Y142490D01*
X883176Y142532D01*
X883205Y142569D01*
X883226Y142631D01*
X883257Y142690D01*
X883265Y142744D01*
X883277Y142781D01*
X883276Y142821D01*
X883284Y142875D01*
X883284Y146685D01*
X883273Y146750D01*
X883271Y146816D01*
X883253Y146859D01*
X883245Y146906D01*
X883211Y146963D01*
X883186Y147023D01*
X883155Y147058D01*
X883130Y147099D01*
X883079Y147141D01*
X883035Y147189D01*
X882993Y147211D01*
X882956Y147240D01*
X882894Y147261D01*
X882835Y147292D01*
X882781Y147300D01*
X882744Y147312D01*
X882704Y147311D01*
X882650Y147319D01*
X880110Y147319D01*
X880045Y147308D01*
X879979Y147306D01*
X879936Y147288D01*
X879889Y147280D01*
X879832Y147246D01*
X879772Y147221D01*
X879737Y147190D01*
X879696Y147165D01*
X879655Y147114D01*
X879606Y147070D01*
X879584Y147028D01*
X879555Y146991D01*
X879534Y146929D01*
X879503Y146870D01*
X879495Y146816D01*
X879483Y146779D01*
X879483Y146775D01*
X879483Y146774D01*
X879484Y146739D01*
X879476Y146685D01*
X879476Y142875D01*
X879487Y142810D01*
X879489Y142744D01*
X879507Y142701D01*
X879515Y142654D01*
X879549Y142597D01*
X879574Y142537D01*
X879605Y142502D01*
X879630Y142461D01*
X879681Y142420D01*
X879725Y142371D01*
X879767Y142349D01*
X879804Y142320D01*
X879866Y142299D01*
X879925Y142268D01*
X879979Y142260D01*
X880016Y142248D01*
X880056Y142249D01*
X880110Y142241D01*
X882650Y142241D01*
X882715Y142252D01*
G37*
G36*
X369635Y142252D02*
X369635Y142252D01*
X369701Y142254D01*
X369744Y142272D01*
X369791Y142280D01*
X369848Y142314D01*
X369908Y142339D01*
X369943Y142370D01*
X369984Y142395D01*
X370026Y142446D01*
X370074Y142490D01*
X370096Y142532D01*
X370125Y142569D01*
X370146Y142631D01*
X370177Y142690D01*
X370185Y142744D01*
X370197Y142781D01*
X370196Y142821D01*
X370204Y142875D01*
X370204Y146685D01*
X370193Y146750D01*
X370191Y146816D01*
X370173Y146859D01*
X370165Y146906D01*
X370131Y146963D01*
X370106Y147023D01*
X370075Y147058D01*
X370050Y147099D01*
X369999Y147141D01*
X369955Y147189D01*
X369913Y147211D01*
X369876Y147240D01*
X369814Y147261D01*
X369755Y147292D01*
X369701Y147300D01*
X369664Y147312D01*
X369624Y147311D01*
X369570Y147319D01*
X367030Y147319D01*
X366965Y147308D01*
X366899Y147306D01*
X366856Y147288D01*
X366809Y147280D01*
X366752Y147246D01*
X366692Y147221D01*
X366657Y147190D01*
X366616Y147165D01*
X366575Y147114D01*
X366526Y147070D01*
X366504Y147028D01*
X366475Y146991D01*
X366454Y146929D01*
X366423Y146870D01*
X366415Y146816D01*
X366403Y146779D01*
X366403Y146775D01*
X366403Y146774D01*
X366404Y146739D01*
X366396Y146685D01*
X366396Y142875D01*
X366407Y142810D01*
X366409Y142744D01*
X366427Y142701D01*
X366435Y142654D01*
X366469Y142597D01*
X366494Y142537D01*
X366525Y142502D01*
X366550Y142461D01*
X366601Y142420D01*
X366645Y142371D01*
X366687Y142349D01*
X366724Y142320D01*
X366786Y142299D01*
X366845Y142268D01*
X366899Y142260D01*
X366936Y142248D01*
X366976Y142249D01*
X367030Y142241D01*
X369570Y142241D01*
X369635Y142252D01*
G37*
G36*
X882715Y132092D02*
X882715Y132092D01*
X882781Y132094D01*
X882824Y132112D01*
X882871Y132120D01*
X882928Y132154D01*
X882988Y132179D01*
X883023Y132210D01*
X883064Y132235D01*
X883106Y132286D01*
X883154Y132330D01*
X883176Y132372D01*
X883205Y132409D01*
X883226Y132471D01*
X883257Y132530D01*
X883265Y132584D01*
X883277Y132621D01*
X883276Y132661D01*
X883284Y132715D01*
X883284Y136525D01*
X883273Y136590D01*
X883271Y136656D01*
X883253Y136699D01*
X883245Y136746D01*
X883211Y136803D01*
X883186Y136863D01*
X883155Y136898D01*
X883130Y136939D01*
X883079Y136981D01*
X883035Y137029D01*
X882993Y137051D01*
X882956Y137080D01*
X882894Y137101D01*
X882835Y137132D01*
X882781Y137140D01*
X882744Y137152D01*
X882704Y137151D01*
X882650Y137159D01*
X880110Y137159D01*
X880045Y137148D01*
X879979Y137146D01*
X879936Y137128D01*
X879889Y137120D01*
X879832Y137086D01*
X879772Y137061D01*
X879737Y137030D01*
X879696Y137005D01*
X879655Y136954D01*
X879606Y136910D01*
X879584Y136868D01*
X879555Y136831D01*
X879534Y136769D01*
X879503Y136710D01*
X879495Y136656D01*
X879483Y136619D01*
X879483Y136615D01*
X879483Y136614D01*
X879484Y136579D01*
X879476Y136525D01*
X879476Y132715D01*
X879487Y132650D01*
X879489Y132584D01*
X879507Y132541D01*
X879515Y132494D01*
X879549Y132437D01*
X879574Y132377D01*
X879605Y132342D01*
X879630Y132301D01*
X879681Y132260D01*
X879725Y132211D01*
X879767Y132189D01*
X879804Y132160D01*
X879866Y132139D01*
X879925Y132108D01*
X879979Y132100D01*
X880016Y132088D01*
X880056Y132089D01*
X880110Y132081D01*
X882650Y132081D01*
X882715Y132092D01*
G37*
G36*
X369635Y132092D02*
X369635Y132092D01*
X369701Y132094D01*
X369744Y132112D01*
X369791Y132120D01*
X369848Y132154D01*
X369908Y132179D01*
X369943Y132210D01*
X369984Y132235D01*
X370026Y132286D01*
X370074Y132330D01*
X370096Y132372D01*
X370125Y132409D01*
X370146Y132471D01*
X370177Y132530D01*
X370185Y132584D01*
X370197Y132621D01*
X370196Y132661D01*
X370204Y132715D01*
X370204Y136525D01*
X370193Y136590D01*
X370191Y136656D01*
X370173Y136699D01*
X370165Y136746D01*
X370131Y136803D01*
X370106Y136863D01*
X370075Y136898D01*
X370050Y136939D01*
X369999Y136981D01*
X369955Y137029D01*
X369913Y137051D01*
X369876Y137080D01*
X369814Y137101D01*
X369755Y137132D01*
X369701Y137140D01*
X369664Y137152D01*
X369624Y137151D01*
X369570Y137159D01*
X367030Y137159D01*
X366965Y137148D01*
X366899Y137146D01*
X366856Y137128D01*
X366809Y137120D01*
X366752Y137086D01*
X366692Y137061D01*
X366657Y137030D01*
X366616Y137005D01*
X366575Y136954D01*
X366526Y136910D01*
X366504Y136868D01*
X366475Y136831D01*
X366454Y136769D01*
X366423Y136710D01*
X366415Y136656D01*
X366403Y136619D01*
X366403Y136615D01*
X366403Y136614D01*
X366404Y136579D01*
X366396Y136525D01*
X366396Y132715D01*
X366407Y132650D01*
X366409Y132584D01*
X366427Y132541D01*
X366435Y132494D01*
X366469Y132437D01*
X366494Y132377D01*
X366525Y132342D01*
X366550Y132301D01*
X366601Y132260D01*
X366645Y132211D01*
X366687Y132189D01*
X366724Y132160D01*
X366786Y132139D01*
X366845Y132108D01*
X366899Y132100D01*
X366936Y132088D01*
X366976Y132089D01*
X367030Y132081D01*
X369570Y132081D01*
X369635Y132092D01*
G37*
G36*
X882715Y1041412D02*
X882715Y1041412D01*
X882781Y1041414D01*
X882824Y1041432D01*
X882871Y1041440D01*
X882928Y1041474D01*
X882988Y1041499D01*
X883023Y1041530D01*
X883064Y1041555D01*
X883106Y1041606D01*
X883154Y1041650D01*
X883176Y1041692D01*
X883205Y1041729D01*
X883226Y1041791D01*
X883257Y1041850D01*
X883265Y1041904D01*
X883277Y1041941D01*
X883276Y1041981D01*
X883284Y1042035D01*
X883284Y1045845D01*
X883273Y1045910D01*
X883271Y1045976D01*
X883253Y1046019D01*
X883245Y1046066D01*
X883211Y1046123D01*
X883186Y1046183D01*
X883155Y1046218D01*
X883130Y1046259D01*
X883079Y1046301D01*
X883035Y1046349D01*
X882993Y1046371D01*
X882956Y1046400D01*
X882894Y1046421D01*
X882835Y1046452D01*
X882781Y1046460D01*
X882744Y1046472D01*
X882704Y1046471D01*
X882650Y1046479D01*
X880110Y1046479D01*
X880045Y1046468D01*
X879979Y1046466D01*
X879936Y1046448D01*
X879889Y1046440D01*
X879832Y1046406D01*
X879772Y1046381D01*
X879737Y1046350D01*
X879696Y1046325D01*
X879655Y1046274D01*
X879606Y1046230D01*
X879584Y1046188D01*
X879555Y1046151D01*
X879534Y1046089D01*
X879503Y1046030D01*
X879495Y1045976D01*
X879483Y1045939D01*
X879483Y1045935D01*
X879483Y1045934D01*
X879484Y1045899D01*
X879476Y1045845D01*
X879476Y1042035D01*
X879487Y1041970D01*
X879489Y1041904D01*
X879507Y1041861D01*
X879515Y1041814D01*
X879549Y1041757D01*
X879574Y1041697D01*
X879605Y1041662D01*
X879630Y1041621D01*
X879681Y1041580D01*
X879725Y1041531D01*
X879767Y1041509D01*
X879804Y1041480D01*
X879866Y1041459D01*
X879925Y1041428D01*
X879979Y1041420D01*
X880016Y1041408D01*
X880056Y1041409D01*
X880110Y1041401D01*
X882650Y1041401D01*
X882715Y1041412D01*
G37*
G36*
X369635Y1041412D02*
X369635Y1041412D01*
X369701Y1041414D01*
X369744Y1041432D01*
X369791Y1041440D01*
X369848Y1041474D01*
X369908Y1041499D01*
X369943Y1041530D01*
X369984Y1041555D01*
X370026Y1041606D01*
X370074Y1041650D01*
X370096Y1041692D01*
X370125Y1041729D01*
X370146Y1041791D01*
X370177Y1041850D01*
X370185Y1041904D01*
X370197Y1041941D01*
X370196Y1041981D01*
X370204Y1042035D01*
X370204Y1045845D01*
X370193Y1045910D01*
X370191Y1045976D01*
X370173Y1046019D01*
X370165Y1046066D01*
X370131Y1046123D01*
X370106Y1046183D01*
X370075Y1046218D01*
X370050Y1046259D01*
X369999Y1046301D01*
X369955Y1046349D01*
X369913Y1046371D01*
X369876Y1046400D01*
X369814Y1046421D01*
X369755Y1046452D01*
X369701Y1046460D01*
X369664Y1046472D01*
X369624Y1046471D01*
X369570Y1046479D01*
X367030Y1046479D01*
X366965Y1046468D01*
X366899Y1046466D01*
X366856Y1046448D01*
X366809Y1046440D01*
X366752Y1046406D01*
X366692Y1046381D01*
X366657Y1046350D01*
X366616Y1046325D01*
X366575Y1046274D01*
X366526Y1046230D01*
X366504Y1046188D01*
X366475Y1046151D01*
X366454Y1046089D01*
X366423Y1046030D01*
X366415Y1045976D01*
X366403Y1045939D01*
X366403Y1045935D01*
X366403Y1045934D01*
X366404Y1045899D01*
X366396Y1045845D01*
X366396Y1042035D01*
X366407Y1041970D01*
X366409Y1041904D01*
X366427Y1041861D01*
X366435Y1041814D01*
X366469Y1041757D01*
X366494Y1041697D01*
X366525Y1041662D01*
X366550Y1041621D01*
X366601Y1041580D01*
X366645Y1041531D01*
X366687Y1041509D01*
X366724Y1041480D01*
X366786Y1041459D01*
X366845Y1041428D01*
X366899Y1041420D01*
X366936Y1041408D01*
X366976Y1041409D01*
X367030Y1041401D01*
X369570Y1041401D01*
X369635Y1041412D01*
G37*
G36*
X908115Y16522D02*
X908115Y16522D01*
X908181Y16524D01*
X908224Y16542D01*
X908271Y16550D01*
X908328Y16584D01*
X908388Y16609D01*
X908423Y16640D01*
X908464Y16665D01*
X908506Y16716D01*
X908554Y16760D01*
X908576Y16802D01*
X908605Y16839D01*
X908626Y16901D01*
X908657Y16960D01*
X908665Y17014D01*
X908677Y17051D01*
X908676Y17091D01*
X908684Y17145D01*
X908684Y20955D01*
X908673Y21020D01*
X908671Y21086D01*
X908653Y21129D01*
X908645Y21176D01*
X908611Y21233D01*
X908586Y21293D01*
X908555Y21328D01*
X908530Y21369D01*
X908479Y21411D01*
X908435Y21459D01*
X908393Y21481D01*
X908356Y21510D01*
X908294Y21531D01*
X908235Y21562D01*
X908181Y21570D01*
X908144Y21582D01*
X908104Y21581D01*
X908050Y21589D01*
X905510Y21589D01*
X905445Y21578D01*
X905379Y21576D01*
X905336Y21558D01*
X905289Y21550D01*
X905232Y21516D01*
X905172Y21491D01*
X905137Y21460D01*
X905096Y21435D01*
X905055Y21384D01*
X905006Y21340D01*
X904984Y21298D01*
X904955Y21261D01*
X904934Y21199D01*
X904903Y21140D01*
X904895Y21086D01*
X904883Y21049D01*
X904883Y21045D01*
X904883Y21044D01*
X904884Y21009D01*
X904876Y20955D01*
X904876Y17145D01*
X904887Y17080D01*
X904889Y17014D01*
X904907Y16971D01*
X904915Y16924D01*
X904949Y16867D01*
X904974Y16807D01*
X905005Y16772D01*
X905030Y16731D01*
X905081Y16690D01*
X905125Y16641D01*
X905167Y16619D01*
X905204Y16590D01*
X905266Y16569D01*
X905325Y16538D01*
X905379Y16530D01*
X905416Y16518D01*
X905456Y16519D01*
X905510Y16511D01*
X908050Y16511D01*
X908115Y16522D01*
G37*
G36*
X642685Y16522D02*
X642685Y16522D01*
X642751Y16524D01*
X642794Y16542D01*
X642841Y16550D01*
X642898Y16584D01*
X642958Y16609D01*
X642993Y16640D01*
X643034Y16665D01*
X643076Y16716D01*
X643124Y16760D01*
X643146Y16802D01*
X643175Y16839D01*
X643196Y16901D01*
X643227Y16960D01*
X643235Y17014D01*
X643247Y17051D01*
X643246Y17091D01*
X643254Y17145D01*
X643254Y20955D01*
X643243Y21020D01*
X643241Y21086D01*
X643223Y21129D01*
X643215Y21176D01*
X643181Y21233D01*
X643156Y21293D01*
X643125Y21328D01*
X643100Y21369D01*
X643049Y21411D01*
X643005Y21459D01*
X642963Y21481D01*
X642926Y21510D01*
X642864Y21531D01*
X642805Y21562D01*
X642751Y21570D01*
X642714Y21582D01*
X642674Y21581D01*
X642620Y21589D01*
X640080Y21589D01*
X640015Y21578D01*
X639949Y21576D01*
X639906Y21558D01*
X639859Y21550D01*
X639802Y21516D01*
X639742Y21491D01*
X639707Y21460D01*
X639666Y21435D01*
X639625Y21384D01*
X639576Y21340D01*
X639554Y21298D01*
X639525Y21261D01*
X639504Y21199D01*
X639473Y21140D01*
X639465Y21086D01*
X639453Y21049D01*
X639453Y21045D01*
X639453Y21044D01*
X639454Y21009D01*
X639446Y20955D01*
X639446Y17145D01*
X639457Y17080D01*
X639459Y17014D01*
X639477Y16971D01*
X639485Y16924D01*
X639519Y16867D01*
X639544Y16807D01*
X639575Y16772D01*
X639600Y16731D01*
X639651Y16690D01*
X639695Y16641D01*
X639737Y16619D01*
X639774Y16590D01*
X639836Y16569D01*
X639895Y16538D01*
X639949Y16530D01*
X639986Y16518D01*
X640026Y16519D01*
X640080Y16511D01*
X642620Y16511D01*
X642685Y16522D01*
G37*
G36*
X622365Y16522D02*
X622365Y16522D01*
X622431Y16524D01*
X622474Y16542D01*
X622521Y16550D01*
X622578Y16584D01*
X622638Y16609D01*
X622673Y16640D01*
X622714Y16665D01*
X622756Y16716D01*
X622804Y16760D01*
X622826Y16802D01*
X622855Y16839D01*
X622876Y16901D01*
X622907Y16960D01*
X622915Y17014D01*
X622927Y17051D01*
X622926Y17091D01*
X622934Y17145D01*
X622934Y20955D01*
X622923Y21020D01*
X622921Y21086D01*
X622903Y21129D01*
X622895Y21176D01*
X622861Y21233D01*
X622836Y21293D01*
X622805Y21328D01*
X622780Y21369D01*
X622729Y21411D01*
X622685Y21459D01*
X622643Y21481D01*
X622606Y21510D01*
X622544Y21531D01*
X622485Y21562D01*
X622431Y21570D01*
X622394Y21582D01*
X622354Y21581D01*
X622300Y21589D01*
X619760Y21589D01*
X619695Y21578D01*
X619629Y21576D01*
X619586Y21558D01*
X619539Y21550D01*
X619482Y21516D01*
X619422Y21491D01*
X619387Y21460D01*
X619346Y21435D01*
X619305Y21384D01*
X619256Y21340D01*
X619234Y21298D01*
X619205Y21261D01*
X619184Y21199D01*
X619153Y21140D01*
X619145Y21086D01*
X619133Y21049D01*
X619133Y21045D01*
X619133Y21044D01*
X619134Y21009D01*
X619126Y20955D01*
X619126Y17145D01*
X619137Y17080D01*
X619139Y17014D01*
X619157Y16971D01*
X619165Y16924D01*
X619199Y16867D01*
X619224Y16807D01*
X619255Y16772D01*
X619280Y16731D01*
X619331Y16690D01*
X619375Y16641D01*
X619417Y16619D01*
X619454Y16590D01*
X619516Y16569D01*
X619575Y16538D01*
X619629Y16530D01*
X619666Y16518D01*
X619706Y16519D01*
X619760Y16511D01*
X622300Y16511D01*
X622365Y16522D01*
G37*
G36*
X395035Y16522D02*
X395035Y16522D01*
X395101Y16524D01*
X395144Y16542D01*
X395191Y16550D01*
X395248Y16584D01*
X395308Y16609D01*
X395343Y16640D01*
X395384Y16665D01*
X395426Y16716D01*
X395474Y16760D01*
X395496Y16802D01*
X395525Y16839D01*
X395546Y16901D01*
X395577Y16960D01*
X395585Y17014D01*
X395597Y17051D01*
X395596Y17091D01*
X395604Y17145D01*
X395604Y20955D01*
X395593Y21020D01*
X395591Y21086D01*
X395573Y21129D01*
X395565Y21176D01*
X395531Y21233D01*
X395506Y21293D01*
X395475Y21328D01*
X395450Y21369D01*
X395399Y21411D01*
X395355Y21459D01*
X395313Y21481D01*
X395276Y21510D01*
X395214Y21531D01*
X395155Y21562D01*
X395101Y21570D01*
X395064Y21582D01*
X395024Y21581D01*
X394970Y21589D01*
X392430Y21589D01*
X392365Y21578D01*
X392299Y21576D01*
X392256Y21558D01*
X392209Y21550D01*
X392152Y21516D01*
X392092Y21491D01*
X392057Y21460D01*
X392016Y21435D01*
X391975Y21384D01*
X391926Y21340D01*
X391904Y21298D01*
X391875Y21261D01*
X391854Y21199D01*
X391823Y21140D01*
X391815Y21086D01*
X391803Y21049D01*
X391803Y21045D01*
X391803Y21044D01*
X391804Y21009D01*
X391796Y20955D01*
X391796Y17145D01*
X391807Y17080D01*
X391809Y17014D01*
X391827Y16971D01*
X391835Y16924D01*
X391869Y16867D01*
X391894Y16807D01*
X391925Y16772D01*
X391950Y16731D01*
X392001Y16690D01*
X392045Y16641D01*
X392087Y16619D01*
X392124Y16590D01*
X392186Y16569D01*
X392245Y16538D01*
X392299Y16530D01*
X392336Y16518D01*
X392376Y16519D01*
X392430Y16511D01*
X394970Y16511D01*
X395035Y16522D01*
G37*
G36*
X129605Y16522D02*
X129605Y16522D01*
X129671Y16524D01*
X129714Y16542D01*
X129761Y16550D01*
X129818Y16584D01*
X129878Y16609D01*
X129913Y16640D01*
X129954Y16665D01*
X129996Y16716D01*
X130044Y16760D01*
X130066Y16802D01*
X130095Y16839D01*
X130116Y16901D01*
X130147Y16960D01*
X130155Y17014D01*
X130167Y17051D01*
X130166Y17091D01*
X130174Y17145D01*
X130174Y20955D01*
X130163Y21020D01*
X130161Y21086D01*
X130143Y21129D01*
X130135Y21176D01*
X130101Y21233D01*
X130076Y21293D01*
X130045Y21328D01*
X130020Y21369D01*
X129969Y21411D01*
X129925Y21459D01*
X129883Y21481D01*
X129846Y21510D01*
X129784Y21531D01*
X129725Y21562D01*
X129671Y21570D01*
X129634Y21582D01*
X129594Y21581D01*
X129540Y21589D01*
X127000Y21589D01*
X126935Y21578D01*
X126869Y21576D01*
X126826Y21558D01*
X126779Y21550D01*
X126722Y21516D01*
X126662Y21491D01*
X126627Y21460D01*
X126586Y21435D01*
X126545Y21384D01*
X126496Y21340D01*
X126474Y21298D01*
X126445Y21261D01*
X126424Y21199D01*
X126393Y21140D01*
X126385Y21086D01*
X126373Y21049D01*
X126373Y21045D01*
X126373Y21044D01*
X126374Y21009D01*
X126366Y20955D01*
X126366Y17145D01*
X126377Y17080D01*
X126379Y17014D01*
X126397Y16971D01*
X126405Y16924D01*
X126439Y16867D01*
X126464Y16807D01*
X126495Y16772D01*
X126520Y16731D01*
X126571Y16690D01*
X126615Y16641D01*
X126657Y16619D01*
X126694Y16590D01*
X126756Y16569D01*
X126815Y16538D01*
X126869Y16530D01*
X126906Y16518D01*
X126946Y16519D01*
X127000Y16511D01*
X129540Y16511D01*
X129605Y16522D01*
G37*
G36*
X109285Y16522D02*
X109285Y16522D01*
X109351Y16524D01*
X109394Y16542D01*
X109441Y16550D01*
X109498Y16584D01*
X109558Y16609D01*
X109593Y16640D01*
X109634Y16665D01*
X109676Y16716D01*
X109724Y16760D01*
X109746Y16802D01*
X109775Y16839D01*
X109796Y16901D01*
X109827Y16960D01*
X109835Y17014D01*
X109847Y17051D01*
X109846Y17091D01*
X109854Y17145D01*
X109854Y20955D01*
X109843Y21020D01*
X109841Y21086D01*
X109823Y21129D01*
X109815Y21176D01*
X109781Y21233D01*
X109756Y21293D01*
X109725Y21328D01*
X109700Y21369D01*
X109649Y21411D01*
X109605Y21459D01*
X109563Y21481D01*
X109526Y21510D01*
X109464Y21531D01*
X109405Y21562D01*
X109351Y21570D01*
X109314Y21582D01*
X109274Y21581D01*
X109220Y21589D01*
X106680Y21589D01*
X106615Y21578D01*
X106549Y21576D01*
X106506Y21558D01*
X106459Y21550D01*
X106402Y21516D01*
X106342Y21491D01*
X106307Y21460D01*
X106266Y21435D01*
X106225Y21384D01*
X106176Y21340D01*
X106154Y21298D01*
X106125Y21261D01*
X106104Y21199D01*
X106073Y21140D01*
X106065Y21086D01*
X106053Y21049D01*
X106053Y21045D01*
X106053Y21044D01*
X106054Y21009D01*
X106046Y20955D01*
X106046Y17145D01*
X106057Y17080D01*
X106059Y17014D01*
X106077Y16971D01*
X106085Y16924D01*
X106119Y16867D01*
X106144Y16807D01*
X106175Y16772D01*
X106200Y16731D01*
X106251Y16690D01*
X106295Y16641D01*
X106337Y16619D01*
X106374Y16590D01*
X106436Y16569D01*
X106495Y16538D01*
X106549Y16530D01*
X106586Y16518D01*
X106626Y16519D01*
X106680Y16511D01*
X109220Y16511D01*
X109285Y16522D01*
G37*
D10*
X113794Y16639D02*
X113794Y11047D01*
X102106Y11047D01*
X102106Y16639D01*
X113794Y16639D01*
X113794Y13216D02*
X102106Y13216D01*
X102106Y15385D02*
X113794Y15385D01*
X113794Y21461D02*
X113794Y27053D01*
X113794Y21461D02*
X102106Y21461D01*
X102106Y27053D01*
X113794Y27053D01*
X113794Y23630D02*
X102106Y23630D01*
X102106Y25799D02*
X113794Y25799D01*
D11*
X25400Y355600D03*
X500380Y7620D03*
D12*
X381000Y88900D03*
X381000Y292100D03*
X127000Y292100D03*
D13*
X225100Y52860D03*
X282900Y52860D03*
D14*
X246952Y138671D02*
X246952Y153625D01*
X246952Y138671D02*
X240998Y138671D01*
X240998Y153625D01*
X246952Y153625D01*
X246952Y140871D02*
X240998Y140871D01*
X240998Y143071D02*
X246952Y143071D01*
X246952Y145271D02*
X240998Y145271D01*
X240998Y147471D02*
X246952Y147471D01*
X246952Y149671D02*
X240998Y149671D01*
X240998Y151871D02*
X246952Y151871D01*
X235952Y153625D02*
X235952Y138671D01*
X229998Y138671D01*
X229998Y153625D01*
X235952Y153625D01*
X235952Y140871D02*
X229998Y140871D01*
X229998Y143071D02*
X235952Y143071D01*
X235952Y145271D02*
X229998Y145271D01*
X229998Y147471D02*
X235952Y147471D01*
X235952Y149671D02*
X229998Y149671D01*
X229998Y151871D02*
X235952Y151871D01*
X224952Y153625D02*
X224952Y138671D01*
X218998Y138671D01*
X218998Y153625D01*
X224952Y153625D01*
X224952Y140871D02*
X218998Y140871D01*
X218998Y143071D02*
X224952Y143071D01*
X224952Y145271D02*
X218998Y145271D01*
X218998Y147471D02*
X224952Y147471D01*
X224952Y149671D02*
X218998Y149671D01*
X218998Y151871D02*
X224952Y151871D01*
X257952Y153625D02*
X257952Y138671D01*
X251998Y138671D01*
X251998Y153625D01*
X257952Y153625D01*
X257952Y140871D02*
X251998Y140871D01*
X251998Y143071D02*
X257952Y143071D01*
X257952Y145271D02*
X251998Y145271D01*
X251998Y147471D02*
X257952Y147471D01*
X257952Y149671D02*
X251998Y149671D01*
X251998Y151871D02*
X257952Y151871D01*
X268952Y153625D02*
X268952Y138671D01*
X262998Y138671D01*
X262998Y153625D01*
X268952Y153625D01*
X268952Y140871D02*
X262998Y140871D01*
X262998Y143071D02*
X268952Y143071D01*
X268952Y145271D02*
X262998Y145271D01*
X262998Y147471D02*
X268952Y147471D01*
X268952Y149671D02*
X262998Y149671D01*
X262998Y151871D02*
X268952Y151871D01*
X279952Y153625D02*
X279952Y138671D01*
X273998Y138671D01*
X273998Y153625D01*
X279952Y153625D01*
X279952Y140871D02*
X273998Y140871D01*
X273998Y143071D02*
X279952Y143071D01*
X279952Y145271D02*
X273998Y145271D01*
X273998Y147471D02*
X279952Y147471D01*
X279952Y149671D02*
X273998Y149671D01*
X273998Y151871D02*
X279952Y151871D01*
X290952Y153625D02*
X290952Y138671D01*
X284998Y138671D01*
X284998Y153625D01*
X290952Y153625D01*
X290952Y140871D02*
X284998Y140871D01*
X284998Y143071D02*
X290952Y143071D01*
X290952Y145271D02*
X284998Y145271D01*
X284998Y147471D02*
X290952Y147471D01*
X290952Y149671D02*
X284998Y149671D01*
X284998Y151871D02*
X290952Y151871D01*
X301952Y153625D02*
X301952Y138671D01*
X295998Y138671D01*
X295998Y153625D01*
X301952Y153625D01*
X301952Y140871D02*
X295998Y140871D01*
X295998Y143071D02*
X301952Y143071D01*
X301952Y145271D02*
X295998Y145271D01*
X295998Y147471D02*
X301952Y147471D01*
X301952Y149671D02*
X295998Y149671D01*
X295998Y151871D02*
X301952Y151871D01*
X312952Y153625D02*
X312952Y138671D01*
X306998Y138671D01*
X306998Y153625D01*
X312952Y153625D01*
X312952Y140871D02*
X306998Y140871D01*
X306998Y143071D02*
X312952Y143071D01*
X312952Y145271D02*
X306998Y145271D01*
X306998Y147471D02*
X312952Y147471D01*
X312952Y149671D02*
X306998Y149671D01*
X306998Y151871D02*
X312952Y151871D01*
D11*
X213975Y41148D03*
X293975Y41148D03*
D15*
X172482Y55655D02*
X161468Y55655D01*
X172482Y55655D02*
X172482Y34641D01*
X161468Y34641D01*
X161468Y55655D01*
X161468Y36784D02*
X172482Y36784D01*
X172482Y38927D02*
X161468Y38927D01*
X161468Y41070D02*
X172482Y41070D01*
X172482Y43213D02*
X161468Y43213D01*
X161468Y45356D02*
X172482Y45356D01*
X172482Y47499D02*
X161468Y47499D01*
X161468Y49642D02*
X172482Y49642D01*
X172482Y51785D02*
X161468Y51785D01*
X161468Y53928D02*
X172482Y53928D01*
X316468Y55655D02*
X327482Y55655D01*
X327482Y34641D01*
X316468Y34641D01*
X316468Y55655D01*
X316468Y36784D02*
X327482Y36784D01*
X327482Y38927D02*
X316468Y38927D01*
X316468Y41070D02*
X327482Y41070D01*
X327482Y43213D02*
X316468Y43213D01*
X316468Y45356D02*
X327482Y45356D01*
X327482Y47499D02*
X316468Y47499D01*
X316468Y49642D02*
X327482Y49642D01*
X327482Y51785D02*
X316468Y51785D01*
X316468Y53928D02*
X327482Y53928D01*
D16*
X183465Y147638D02*
X168485Y147638D01*
X183465Y147638D02*
X183465Y134658D01*
X168485Y134658D01*
X168485Y147638D01*
X168485Y136834D02*
X183465Y136834D01*
X183465Y139010D02*
X168485Y139010D01*
X168485Y141186D02*
X183465Y141186D01*
X183465Y143362D02*
X168485Y143362D01*
X168485Y145538D02*
X183465Y145538D01*
D15*
X316468Y147655D02*
X327482Y147655D01*
X327482Y132641D01*
X316468Y132641D01*
X316468Y147655D01*
X316468Y134784D02*
X327482Y134784D01*
X327482Y136927D02*
X316468Y136927D01*
X316468Y139070D02*
X327482Y139070D01*
X327482Y141213D02*
X316468Y141213D01*
X316468Y143356D02*
X327482Y143356D01*
X327482Y145499D02*
X316468Y145499D01*
X316468Y147642D02*
X327482Y147642D01*
D17*
X165100Y26780D03*
X165100Y8780D03*
X342900Y26780D03*
X342900Y8780D03*
D10*
X347474Y50417D02*
X347474Y56009D01*
X347474Y50417D02*
X335786Y50417D01*
X335786Y56009D01*
X347474Y56009D01*
X347474Y52586D02*
X335786Y52586D01*
X335786Y54755D02*
X347474Y54755D01*
X347474Y60831D02*
X347474Y66423D01*
X347474Y60831D02*
X335786Y60831D01*
X335786Y66423D01*
X347474Y66423D01*
X347474Y63000D02*
X335786Y63000D01*
X335786Y65169D02*
X347474Y65169D01*
X122426Y27053D02*
X122426Y21461D01*
X122426Y27053D02*
X134114Y27053D01*
X134114Y21461D01*
X122426Y21461D01*
X122426Y23630D02*
X134114Y23630D01*
X134114Y25799D02*
X122426Y25799D01*
X122426Y16639D02*
X122426Y11047D01*
X122426Y16639D02*
X134114Y16639D01*
X134114Y11047D01*
X122426Y11047D01*
X122426Y13216D02*
X134114Y13216D01*
X134114Y15385D02*
X122426Y15385D01*
D18*
X368300Y25400D03*
D10*
X362456Y147318D02*
X362456Y152910D01*
X374144Y152910D01*
X374144Y147318D01*
X362456Y147318D01*
X362456Y149487D02*
X374144Y149487D01*
X374144Y151656D02*
X362456Y151656D01*
X362456Y142496D02*
X362456Y136904D01*
X362456Y142496D02*
X374144Y142496D01*
X374144Y136904D01*
X362456Y136904D01*
X362456Y139073D02*
X374144Y139073D01*
X374144Y141242D02*
X362456Y141242D01*
X362456Y132082D02*
X362456Y126490D01*
X362456Y132082D02*
X374144Y132082D01*
X374144Y126490D01*
X362456Y126490D01*
X362456Y128659D02*
X374144Y128659D01*
X374144Y130828D02*
X362456Y130828D01*
D19*
X495300Y63500D03*
X495300Y88900D03*
X495300Y114300D03*
X495300Y139700D03*
X12700Y292100D03*
X12700Y317500D03*
X12700Y342900D03*
X12700Y368300D03*
X12700Y139700D03*
X12700Y165100D03*
X12700Y190500D03*
X12700Y215900D03*
X12700Y241300D03*
X12700Y266700D03*
D18*
X127000Y152400D03*
X88900Y228600D03*
D20*
X191897Y285242D02*
X197231Y285242D01*
X197231Y273558D01*
X191897Y273558D01*
X191897Y285242D01*
X191897Y275730D02*
X197231Y275730D01*
X197231Y277902D02*
X191897Y277902D01*
X191897Y280074D02*
X197231Y280074D01*
X197231Y282246D02*
X191897Y282246D01*
X191897Y284418D02*
X197231Y284418D01*
X189103Y285242D02*
X183769Y285242D01*
X189103Y285242D02*
X189103Y273558D01*
X183769Y273558D01*
X183769Y285242D01*
X183769Y275730D02*
X189103Y275730D01*
X189103Y277902D02*
X183769Y277902D01*
X183769Y280074D02*
X189103Y280074D01*
X189103Y282246D02*
X183769Y282246D01*
X183769Y284418D02*
X189103Y284418D01*
X191897Y259842D02*
X197231Y259842D01*
X197231Y248158D01*
X191897Y248158D01*
X191897Y259842D01*
X191897Y250330D02*
X197231Y250330D01*
X197231Y252502D02*
X191897Y252502D01*
X191897Y254674D02*
X197231Y254674D01*
X197231Y256846D02*
X191897Y256846D01*
X191897Y259018D02*
X197231Y259018D01*
X189103Y259842D02*
X183769Y259842D01*
X189103Y259842D02*
X189103Y248158D01*
X183769Y248158D01*
X183769Y259842D01*
X183769Y250330D02*
X189103Y250330D01*
X189103Y252502D02*
X183769Y252502D01*
X183769Y254674D02*
X189103Y254674D01*
X189103Y256846D02*
X183769Y256846D01*
X183769Y259018D02*
X189103Y259018D01*
D19*
X495300Y165100D03*
X495300Y190500D03*
X495300Y215900D03*
X495300Y241300D03*
X495300Y266700D03*
X495300Y292100D03*
X495300Y317500D03*
X495300Y342900D03*
X495300Y368300D03*
D12*
X127000Y88900D03*
D10*
X399544Y16639D02*
X399544Y11047D01*
X387856Y11047D01*
X387856Y16639D01*
X399544Y16639D01*
X399544Y13216D02*
X387856Y13216D01*
X387856Y15385D02*
X399544Y15385D01*
X399544Y21461D02*
X399544Y27053D01*
X399544Y21461D02*
X387856Y21461D01*
X387856Y27053D01*
X399544Y27053D01*
X399544Y23630D02*
X387856Y23630D01*
X387856Y25799D02*
X399544Y25799D01*
D18*
X76200Y50800D03*
X139700Y355600D03*
X152400Y203200D03*
X114300Y355600D03*
D10*
X626874Y16639D02*
X626874Y11047D01*
X615186Y11047D01*
X615186Y16639D01*
X626874Y16639D01*
X626874Y13216D02*
X615186Y13216D01*
X615186Y15385D02*
X626874Y15385D01*
X626874Y21461D02*
X626874Y27053D01*
X626874Y21461D02*
X615186Y21461D01*
X615186Y27053D01*
X626874Y27053D01*
X626874Y23630D02*
X615186Y23630D01*
X615186Y25799D02*
X626874Y25799D01*
D11*
X538480Y355600D03*
X1013460Y7620D03*
D12*
X894080Y88900D03*
X894080Y292100D03*
X640080Y292100D03*
D13*
X738180Y52860D03*
X795980Y52860D03*
D14*
X760032Y138671D02*
X760032Y153625D01*
X760032Y138671D02*
X754078Y138671D01*
X754078Y153625D01*
X760032Y153625D01*
X760032Y140871D02*
X754078Y140871D01*
X754078Y143071D02*
X760032Y143071D01*
X760032Y145271D02*
X754078Y145271D01*
X754078Y147471D02*
X760032Y147471D01*
X760032Y149671D02*
X754078Y149671D01*
X754078Y151871D02*
X760032Y151871D01*
X749032Y153625D02*
X749032Y138671D01*
X743078Y138671D01*
X743078Y153625D01*
X749032Y153625D01*
X749032Y140871D02*
X743078Y140871D01*
X743078Y143071D02*
X749032Y143071D01*
X749032Y145271D02*
X743078Y145271D01*
X743078Y147471D02*
X749032Y147471D01*
X749032Y149671D02*
X743078Y149671D01*
X743078Y151871D02*
X749032Y151871D01*
X738032Y153625D02*
X738032Y138671D01*
X732078Y138671D01*
X732078Y153625D01*
X738032Y153625D01*
X738032Y140871D02*
X732078Y140871D01*
X732078Y143071D02*
X738032Y143071D01*
X738032Y145271D02*
X732078Y145271D01*
X732078Y147471D02*
X738032Y147471D01*
X738032Y149671D02*
X732078Y149671D01*
X732078Y151871D02*
X738032Y151871D01*
X771032Y153625D02*
X771032Y138671D01*
X765078Y138671D01*
X765078Y153625D01*
X771032Y153625D01*
X771032Y140871D02*
X765078Y140871D01*
X765078Y143071D02*
X771032Y143071D01*
X771032Y145271D02*
X765078Y145271D01*
X765078Y147471D02*
X771032Y147471D01*
X771032Y149671D02*
X765078Y149671D01*
X765078Y151871D02*
X771032Y151871D01*
X782032Y153625D02*
X782032Y138671D01*
X776078Y138671D01*
X776078Y153625D01*
X782032Y153625D01*
X782032Y140871D02*
X776078Y140871D01*
X776078Y143071D02*
X782032Y143071D01*
X782032Y145271D02*
X776078Y145271D01*
X776078Y147471D02*
X782032Y147471D01*
X782032Y149671D02*
X776078Y149671D01*
X776078Y151871D02*
X782032Y151871D01*
X793032Y153625D02*
X793032Y138671D01*
X787078Y138671D01*
X787078Y153625D01*
X793032Y153625D01*
X793032Y140871D02*
X787078Y140871D01*
X787078Y143071D02*
X793032Y143071D01*
X793032Y145271D02*
X787078Y145271D01*
X787078Y147471D02*
X793032Y147471D01*
X793032Y149671D02*
X787078Y149671D01*
X787078Y151871D02*
X793032Y151871D01*
X804032Y153625D02*
X804032Y138671D01*
X798078Y138671D01*
X798078Y153625D01*
X804032Y153625D01*
X804032Y140871D02*
X798078Y140871D01*
X798078Y143071D02*
X804032Y143071D01*
X804032Y145271D02*
X798078Y145271D01*
X798078Y147471D02*
X804032Y147471D01*
X804032Y149671D02*
X798078Y149671D01*
X798078Y151871D02*
X804032Y151871D01*
X815032Y153625D02*
X815032Y138671D01*
X809078Y138671D01*
X809078Y153625D01*
X815032Y153625D01*
X815032Y140871D02*
X809078Y140871D01*
X809078Y143071D02*
X815032Y143071D01*
X815032Y145271D02*
X809078Y145271D01*
X809078Y147471D02*
X815032Y147471D01*
X815032Y149671D02*
X809078Y149671D01*
X809078Y151871D02*
X815032Y151871D01*
X826032Y153625D02*
X826032Y138671D01*
X820078Y138671D01*
X820078Y153625D01*
X826032Y153625D01*
X826032Y140871D02*
X820078Y140871D01*
X820078Y143071D02*
X826032Y143071D01*
X826032Y145271D02*
X820078Y145271D01*
X820078Y147471D02*
X826032Y147471D01*
X826032Y149671D02*
X820078Y149671D01*
X820078Y151871D02*
X826032Y151871D01*
D11*
X727055Y41148D03*
X807055Y41148D03*
D15*
X685562Y55655D02*
X674548Y55655D01*
X685562Y55655D02*
X685562Y34641D01*
X674548Y34641D01*
X674548Y55655D01*
X674548Y36784D02*
X685562Y36784D01*
X685562Y38927D02*
X674548Y38927D01*
X674548Y41070D02*
X685562Y41070D01*
X685562Y43213D02*
X674548Y43213D01*
X674548Y45356D02*
X685562Y45356D01*
X685562Y47499D02*
X674548Y47499D01*
X674548Y49642D02*
X685562Y49642D01*
X685562Y51785D02*
X674548Y51785D01*
X674548Y53928D02*
X685562Y53928D01*
X829548Y55655D02*
X840562Y55655D01*
X840562Y34641D01*
X829548Y34641D01*
X829548Y55655D01*
X829548Y36784D02*
X840562Y36784D01*
X840562Y38927D02*
X829548Y38927D01*
X829548Y41070D02*
X840562Y41070D01*
X840562Y43213D02*
X829548Y43213D01*
X829548Y45356D02*
X840562Y45356D01*
X840562Y47499D02*
X829548Y47499D01*
X829548Y49642D02*
X840562Y49642D01*
X840562Y51785D02*
X829548Y51785D01*
X829548Y53928D02*
X840562Y53928D01*
D16*
X696545Y147638D02*
X681565Y147638D01*
X696545Y147638D02*
X696545Y134658D01*
X681565Y134658D01*
X681565Y147638D01*
X681565Y136834D02*
X696545Y136834D01*
X696545Y139010D02*
X681565Y139010D01*
X681565Y141186D02*
X696545Y141186D01*
X696545Y143362D02*
X681565Y143362D01*
X681565Y145538D02*
X696545Y145538D01*
D15*
X829548Y147655D02*
X840562Y147655D01*
X840562Y132641D01*
X829548Y132641D01*
X829548Y147655D01*
X829548Y134784D02*
X840562Y134784D01*
X840562Y136927D02*
X829548Y136927D01*
X829548Y139070D02*
X840562Y139070D01*
X840562Y141213D02*
X829548Y141213D01*
X829548Y143356D02*
X840562Y143356D01*
X840562Y145499D02*
X829548Y145499D01*
X829548Y147642D02*
X840562Y147642D01*
D17*
X678180Y26780D03*
X678180Y8780D03*
X855980Y26780D03*
X855980Y8780D03*
D10*
X860554Y50417D02*
X860554Y56009D01*
X860554Y50417D02*
X848866Y50417D01*
X848866Y56009D01*
X860554Y56009D01*
X860554Y52586D02*
X848866Y52586D01*
X848866Y54755D02*
X860554Y54755D01*
X860554Y60831D02*
X860554Y66423D01*
X860554Y60831D02*
X848866Y60831D01*
X848866Y66423D01*
X860554Y66423D01*
X860554Y63000D02*
X848866Y63000D01*
X848866Y65169D02*
X860554Y65169D01*
X635506Y27053D02*
X635506Y21461D01*
X635506Y27053D02*
X647194Y27053D01*
X647194Y21461D01*
X635506Y21461D01*
X635506Y23630D02*
X647194Y23630D01*
X647194Y25799D02*
X635506Y25799D01*
X635506Y16639D02*
X635506Y11047D01*
X635506Y16639D02*
X647194Y16639D01*
X647194Y11047D01*
X635506Y11047D01*
X635506Y13216D02*
X647194Y13216D01*
X647194Y15385D02*
X635506Y15385D01*
D18*
X881380Y25400D03*
D10*
X875536Y147318D02*
X875536Y152910D01*
X887224Y152910D01*
X887224Y147318D01*
X875536Y147318D01*
X875536Y149487D02*
X887224Y149487D01*
X887224Y151656D02*
X875536Y151656D01*
X875536Y142496D02*
X875536Y136904D01*
X875536Y142496D02*
X887224Y142496D01*
X887224Y136904D01*
X875536Y136904D01*
X875536Y139073D02*
X887224Y139073D01*
X887224Y141242D02*
X875536Y141242D01*
X875536Y132082D02*
X875536Y126490D01*
X875536Y132082D02*
X887224Y132082D01*
X887224Y126490D01*
X875536Y126490D01*
X875536Y128659D02*
X887224Y128659D01*
X887224Y130828D02*
X875536Y130828D01*
D19*
X1008380Y63500D03*
X1008380Y88900D03*
X1008380Y114300D03*
X1008380Y139700D03*
X525780Y292100D03*
X525780Y317500D03*
X525780Y342900D03*
X525780Y368300D03*
X525780Y139700D03*
X525780Y165100D03*
X525780Y190500D03*
X525780Y215900D03*
X525780Y241300D03*
X525780Y266700D03*
D18*
X640080Y152400D03*
X601980Y228600D03*
D20*
X704977Y285242D02*
X710311Y285242D01*
X710311Y273558D01*
X704977Y273558D01*
X704977Y285242D01*
X704977Y275730D02*
X710311Y275730D01*
X710311Y277902D02*
X704977Y277902D01*
X704977Y280074D02*
X710311Y280074D01*
X710311Y282246D02*
X704977Y282246D01*
X704977Y284418D02*
X710311Y284418D01*
X702183Y285242D02*
X696849Y285242D01*
X702183Y285242D02*
X702183Y273558D01*
X696849Y273558D01*
X696849Y285242D01*
X696849Y275730D02*
X702183Y275730D01*
X702183Y277902D02*
X696849Y277902D01*
X696849Y280074D02*
X702183Y280074D01*
X702183Y282246D02*
X696849Y282246D01*
X696849Y284418D02*
X702183Y284418D01*
X704977Y259842D02*
X710311Y259842D01*
X710311Y248158D01*
X704977Y248158D01*
X704977Y259842D01*
X704977Y250330D02*
X710311Y250330D01*
X710311Y252502D02*
X704977Y252502D01*
X704977Y254674D02*
X710311Y254674D01*
X710311Y256846D02*
X704977Y256846D01*
X704977Y259018D02*
X710311Y259018D01*
X702183Y259842D02*
X696849Y259842D01*
X702183Y259842D02*
X702183Y248158D01*
X696849Y248158D01*
X696849Y259842D01*
X696849Y250330D02*
X702183Y250330D01*
X702183Y252502D02*
X696849Y252502D01*
X696849Y254674D02*
X702183Y254674D01*
X702183Y256846D02*
X696849Y256846D01*
X696849Y259018D02*
X702183Y259018D01*
D19*
X1008380Y165100D03*
X1008380Y190500D03*
X1008380Y215900D03*
X1008380Y241300D03*
X1008380Y266700D03*
X1008380Y292100D03*
X1008380Y317500D03*
X1008380Y342900D03*
X1008380Y368300D03*
D12*
X640080Y88900D03*
D10*
X912624Y16639D02*
X912624Y11047D01*
X900936Y11047D01*
X900936Y16639D01*
X912624Y16639D01*
X912624Y13216D02*
X900936Y13216D01*
X900936Y15385D02*
X912624Y15385D01*
X912624Y21461D02*
X912624Y27053D01*
X912624Y21461D02*
X900936Y21461D01*
X900936Y27053D01*
X912624Y27053D01*
X912624Y23630D02*
X900936Y23630D01*
X900936Y25799D02*
X912624Y25799D01*
D18*
X589280Y50800D03*
X652780Y355600D03*
X665480Y203200D03*
X627380Y355600D03*
D10*
X113794Y460627D02*
X113794Y466219D01*
X113794Y460627D02*
X102106Y460627D01*
X102106Y466219D01*
X113794Y466219D01*
X113794Y462796D02*
X102106Y462796D01*
X102106Y464965D02*
X113794Y464965D01*
X113794Y471041D02*
X113794Y476633D01*
X113794Y471041D02*
X102106Y471041D01*
X102106Y476633D01*
X113794Y476633D01*
X113794Y473210D02*
X102106Y473210D01*
X102106Y475379D02*
X113794Y475379D01*
D11*
X25400Y805180D03*
X500380Y457200D03*
D12*
X381000Y538480D03*
X381000Y741680D03*
X127000Y741680D03*
D13*
X225100Y502440D03*
X282900Y502440D03*
D14*
X246952Y588251D02*
X246952Y603205D01*
X246952Y588251D02*
X240998Y588251D01*
X240998Y603205D01*
X246952Y603205D01*
X246952Y590451D02*
X240998Y590451D01*
X240998Y592651D02*
X246952Y592651D01*
X246952Y594851D02*
X240998Y594851D01*
X240998Y597051D02*
X246952Y597051D01*
X246952Y599251D02*
X240998Y599251D01*
X240998Y601451D02*
X246952Y601451D01*
X235952Y603205D02*
X235952Y588251D01*
X229998Y588251D01*
X229998Y603205D01*
X235952Y603205D01*
X235952Y590451D02*
X229998Y590451D01*
X229998Y592651D02*
X235952Y592651D01*
X235952Y594851D02*
X229998Y594851D01*
X229998Y597051D02*
X235952Y597051D01*
X235952Y599251D02*
X229998Y599251D01*
X229998Y601451D02*
X235952Y601451D01*
X224952Y603205D02*
X224952Y588251D01*
X218998Y588251D01*
X218998Y603205D01*
X224952Y603205D01*
X224952Y590451D02*
X218998Y590451D01*
X218998Y592651D02*
X224952Y592651D01*
X224952Y594851D02*
X218998Y594851D01*
X218998Y597051D02*
X224952Y597051D01*
X224952Y599251D02*
X218998Y599251D01*
X218998Y601451D02*
X224952Y601451D01*
X257952Y603205D02*
X257952Y588251D01*
X251998Y588251D01*
X251998Y603205D01*
X257952Y603205D01*
X257952Y590451D02*
X251998Y590451D01*
X251998Y592651D02*
X257952Y592651D01*
X257952Y594851D02*
X251998Y594851D01*
X251998Y597051D02*
X257952Y597051D01*
X257952Y599251D02*
X251998Y599251D01*
X251998Y601451D02*
X257952Y601451D01*
X268952Y603205D02*
X268952Y588251D01*
X262998Y588251D01*
X262998Y603205D01*
X268952Y603205D01*
X268952Y590451D02*
X262998Y590451D01*
X262998Y592651D02*
X268952Y592651D01*
X268952Y594851D02*
X262998Y594851D01*
X262998Y597051D02*
X268952Y597051D01*
X268952Y599251D02*
X262998Y599251D01*
X262998Y601451D02*
X268952Y601451D01*
X279952Y603205D02*
X279952Y588251D01*
X273998Y588251D01*
X273998Y603205D01*
X279952Y603205D01*
X279952Y590451D02*
X273998Y590451D01*
X273998Y592651D02*
X279952Y592651D01*
X279952Y594851D02*
X273998Y594851D01*
X273998Y597051D02*
X279952Y597051D01*
X279952Y599251D02*
X273998Y599251D01*
X273998Y601451D02*
X279952Y601451D01*
X290952Y603205D02*
X290952Y588251D01*
X284998Y588251D01*
X284998Y603205D01*
X290952Y603205D01*
X290952Y590451D02*
X284998Y590451D01*
X284998Y592651D02*
X290952Y592651D01*
X290952Y594851D02*
X284998Y594851D01*
X284998Y597051D02*
X290952Y597051D01*
X290952Y599251D02*
X284998Y599251D01*
X284998Y601451D02*
X290952Y601451D01*
X301952Y603205D02*
X301952Y588251D01*
X295998Y588251D01*
X295998Y603205D01*
X301952Y603205D01*
X301952Y590451D02*
X295998Y590451D01*
X295998Y592651D02*
X301952Y592651D01*
X301952Y594851D02*
X295998Y594851D01*
X295998Y597051D02*
X301952Y597051D01*
X301952Y599251D02*
X295998Y599251D01*
X295998Y601451D02*
X301952Y601451D01*
X312952Y603205D02*
X312952Y588251D01*
X306998Y588251D01*
X306998Y603205D01*
X312952Y603205D01*
X312952Y590451D02*
X306998Y590451D01*
X306998Y592651D02*
X312952Y592651D01*
X312952Y594851D02*
X306998Y594851D01*
X306998Y597051D02*
X312952Y597051D01*
X312952Y599251D02*
X306998Y599251D01*
X306998Y601451D02*
X312952Y601451D01*
D11*
X213975Y490728D03*
X293975Y490728D03*
D15*
X172482Y505235D02*
X161468Y505235D01*
X172482Y505235D02*
X172482Y484221D01*
X161468Y484221D01*
X161468Y505235D01*
X161468Y486364D02*
X172482Y486364D01*
X172482Y488507D02*
X161468Y488507D01*
X161468Y490650D02*
X172482Y490650D01*
X172482Y492793D02*
X161468Y492793D01*
X161468Y494936D02*
X172482Y494936D01*
X172482Y497079D02*
X161468Y497079D01*
X161468Y499222D02*
X172482Y499222D01*
X172482Y501365D02*
X161468Y501365D01*
X161468Y503508D02*
X172482Y503508D01*
X316468Y505235D02*
X327482Y505235D01*
X327482Y484221D01*
X316468Y484221D01*
X316468Y505235D01*
X316468Y486364D02*
X327482Y486364D01*
X327482Y488507D02*
X316468Y488507D01*
X316468Y490650D02*
X327482Y490650D01*
X327482Y492793D02*
X316468Y492793D01*
X316468Y494936D02*
X327482Y494936D01*
X327482Y497079D02*
X316468Y497079D01*
X316468Y499222D02*
X327482Y499222D01*
X327482Y501365D02*
X316468Y501365D01*
X316468Y503508D02*
X327482Y503508D01*
D16*
X183465Y597218D02*
X168485Y597218D01*
X183465Y597218D02*
X183465Y584238D01*
X168485Y584238D01*
X168485Y597218D01*
X168485Y586414D02*
X183465Y586414D01*
X183465Y588590D02*
X168485Y588590D01*
X168485Y590766D02*
X183465Y590766D01*
X183465Y592942D02*
X168485Y592942D01*
X168485Y595118D02*
X183465Y595118D01*
D15*
X316468Y597235D02*
X327482Y597235D01*
X327482Y582221D01*
X316468Y582221D01*
X316468Y597235D01*
X316468Y584364D02*
X327482Y584364D01*
X327482Y586507D02*
X316468Y586507D01*
X316468Y588650D02*
X327482Y588650D01*
X327482Y590793D02*
X316468Y590793D01*
X316468Y592936D02*
X327482Y592936D01*
X327482Y595079D02*
X316468Y595079D01*
X316468Y597222D02*
X327482Y597222D01*
D17*
X165100Y476360D03*
X165100Y458360D03*
X342900Y476360D03*
X342900Y458360D03*
D10*
X347474Y499997D02*
X347474Y505589D01*
X347474Y499997D02*
X335786Y499997D01*
X335786Y505589D01*
X347474Y505589D01*
X347474Y502166D02*
X335786Y502166D01*
X335786Y504335D02*
X347474Y504335D01*
X347474Y510411D02*
X347474Y516003D01*
X347474Y510411D02*
X335786Y510411D01*
X335786Y516003D01*
X347474Y516003D01*
X347474Y512580D02*
X335786Y512580D01*
X335786Y514749D02*
X347474Y514749D01*
X122426Y476633D02*
X122426Y471041D01*
X122426Y476633D02*
X134114Y476633D01*
X134114Y471041D01*
X122426Y471041D01*
X122426Y473210D02*
X134114Y473210D01*
X134114Y475379D02*
X122426Y475379D01*
X122426Y466219D02*
X122426Y460627D01*
X122426Y466219D02*
X134114Y466219D01*
X134114Y460627D01*
X122426Y460627D01*
X122426Y462796D02*
X134114Y462796D01*
X134114Y464965D02*
X122426Y464965D01*
D18*
X368300Y474980D03*
D10*
X362456Y596898D02*
X362456Y602490D01*
X374144Y602490D01*
X374144Y596898D01*
X362456Y596898D01*
X362456Y599067D02*
X374144Y599067D01*
X374144Y601236D02*
X362456Y601236D01*
X362456Y592076D02*
X362456Y586484D01*
X362456Y592076D02*
X374144Y592076D01*
X374144Y586484D01*
X362456Y586484D01*
X362456Y588653D02*
X374144Y588653D01*
X374144Y590822D02*
X362456Y590822D01*
X362456Y581662D02*
X362456Y576070D01*
X362456Y581662D02*
X374144Y581662D01*
X374144Y576070D01*
X362456Y576070D01*
X362456Y578239D02*
X374144Y578239D01*
X374144Y580408D02*
X362456Y580408D01*
D19*
X495300Y513080D03*
X495300Y538480D03*
X495300Y563880D03*
X495300Y589280D03*
X12700Y741680D03*
X12700Y767080D03*
X12700Y792480D03*
X12700Y817880D03*
X12700Y589280D03*
X12700Y614680D03*
X12700Y640080D03*
X12700Y665480D03*
X12700Y690880D03*
X12700Y716280D03*
D18*
X127000Y601980D03*
X88900Y678180D03*
D20*
X191897Y734822D02*
X197231Y734822D01*
X197231Y723138D01*
X191897Y723138D01*
X191897Y734822D01*
X191897Y725310D02*
X197231Y725310D01*
X197231Y727482D02*
X191897Y727482D01*
X191897Y729654D02*
X197231Y729654D01*
X197231Y731826D02*
X191897Y731826D01*
X191897Y733998D02*
X197231Y733998D01*
X189103Y734822D02*
X183769Y734822D01*
X189103Y734822D02*
X189103Y723138D01*
X183769Y723138D01*
X183769Y734822D01*
X183769Y725310D02*
X189103Y725310D01*
X189103Y727482D02*
X183769Y727482D01*
X183769Y729654D02*
X189103Y729654D01*
X189103Y731826D02*
X183769Y731826D01*
X183769Y733998D02*
X189103Y733998D01*
X191897Y709422D02*
X197231Y709422D01*
X197231Y697738D01*
X191897Y697738D01*
X191897Y709422D01*
X191897Y699910D02*
X197231Y699910D01*
X197231Y702082D02*
X191897Y702082D01*
X191897Y704254D02*
X197231Y704254D01*
X197231Y706426D02*
X191897Y706426D01*
X191897Y708598D02*
X197231Y708598D01*
X189103Y709422D02*
X183769Y709422D01*
X189103Y709422D02*
X189103Y697738D01*
X183769Y697738D01*
X183769Y709422D01*
X183769Y699910D02*
X189103Y699910D01*
X189103Y702082D02*
X183769Y702082D01*
X183769Y704254D02*
X189103Y704254D01*
X189103Y706426D02*
X183769Y706426D01*
X183769Y708598D02*
X189103Y708598D01*
D19*
X495300Y614680D03*
X495300Y640080D03*
X495300Y665480D03*
X495300Y690880D03*
X495300Y716280D03*
X495300Y741680D03*
X495300Y767080D03*
X495300Y792480D03*
X495300Y817880D03*
D12*
X127000Y538480D03*
D10*
X399544Y466219D02*
X399544Y460627D01*
X387856Y460627D01*
X387856Y466219D01*
X399544Y466219D01*
X399544Y462796D02*
X387856Y462796D01*
X387856Y464965D02*
X399544Y464965D01*
X399544Y471041D02*
X399544Y476633D01*
X399544Y471041D02*
X387856Y471041D01*
X387856Y476633D01*
X399544Y476633D01*
X399544Y473210D02*
X387856Y473210D01*
X387856Y475379D02*
X399544Y475379D01*
D18*
X76200Y500380D03*
X139700Y805180D03*
X152400Y652780D03*
X114300Y805180D03*
D10*
X626874Y466219D02*
X626874Y460627D01*
X615186Y460627D01*
X615186Y466219D01*
X626874Y466219D01*
X626874Y462796D02*
X615186Y462796D01*
X615186Y464965D02*
X626874Y464965D01*
X626874Y471041D02*
X626874Y476633D01*
X626874Y471041D02*
X615186Y471041D01*
X615186Y476633D01*
X626874Y476633D01*
X626874Y473210D02*
X615186Y473210D01*
X615186Y475379D02*
X626874Y475379D01*
D11*
X538480Y805180D03*
X1013460Y457200D03*
D12*
X894080Y538480D03*
X894080Y741680D03*
X640080Y741680D03*
D13*
X738180Y502440D03*
X795980Y502440D03*
D14*
X760032Y588251D02*
X760032Y603205D01*
X760032Y588251D02*
X754078Y588251D01*
X754078Y603205D01*
X760032Y603205D01*
X760032Y590451D02*
X754078Y590451D01*
X754078Y592651D02*
X760032Y592651D01*
X760032Y594851D02*
X754078Y594851D01*
X754078Y597051D02*
X760032Y597051D01*
X760032Y599251D02*
X754078Y599251D01*
X754078Y601451D02*
X760032Y601451D01*
X749032Y603205D02*
X749032Y588251D01*
X743078Y588251D01*
X743078Y603205D01*
X749032Y603205D01*
X749032Y590451D02*
X743078Y590451D01*
X743078Y592651D02*
X749032Y592651D01*
X749032Y594851D02*
X743078Y594851D01*
X743078Y597051D02*
X749032Y597051D01*
X749032Y599251D02*
X743078Y599251D01*
X743078Y601451D02*
X749032Y601451D01*
X738032Y603205D02*
X738032Y588251D01*
X732078Y588251D01*
X732078Y603205D01*
X738032Y603205D01*
X738032Y590451D02*
X732078Y590451D01*
X732078Y592651D02*
X738032Y592651D01*
X738032Y594851D02*
X732078Y594851D01*
X732078Y597051D02*
X738032Y597051D01*
X738032Y599251D02*
X732078Y599251D01*
X732078Y601451D02*
X738032Y601451D01*
X771032Y603205D02*
X771032Y588251D01*
X765078Y588251D01*
X765078Y603205D01*
X771032Y603205D01*
X771032Y590451D02*
X765078Y590451D01*
X765078Y592651D02*
X771032Y592651D01*
X771032Y594851D02*
X765078Y594851D01*
X765078Y597051D02*
X771032Y597051D01*
X771032Y599251D02*
X765078Y599251D01*
X765078Y601451D02*
X771032Y601451D01*
X782032Y603205D02*
X782032Y588251D01*
X776078Y588251D01*
X776078Y603205D01*
X782032Y603205D01*
X782032Y590451D02*
X776078Y590451D01*
X776078Y592651D02*
X782032Y592651D01*
X782032Y594851D02*
X776078Y594851D01*
X776078Y597051D02*
X782032Y597051D01*
X782032Y599251D02*
X776078Y599251D01*
X776078Y601451D02*
X782032Y601451D01*
X793032Y603205D02*
X793032Y588251D01*
X787078Y588251D01*
X787078Y603205D01*
X793032Y603205D01*
X793032Y590451D02*
X787078Y590451D01*
X787078Y592651D02*
X793032Y592651D01*
X793032Y594851D02*
X787078Y594851D01*
X787078Y597051D02*
X793032Y597051D01*
X793032Y599251D02*
X787078Y599251D01*
X787078Y601451D02*
X793032Y601451D01*
X804032Y603205D02*
X804032Y588251D01*
X798078Y588251D01*
X798078Y603205D01*
X804032Y603205D01*
X804032Y590451D02*
X798078Y590451D01*
X798078Y592651D02*
X804032Y592651D01*
X804032Y594851D02*
X798078Y594851D01*
X798078Y597051D02*
X804032Y597051D01*
X804032Y599251D02*
X798078Y599251D01*
X798078Y601451D02*
X804032Y601451D01*
X815032Y603205D02*
X815032Y588251D01*
X809078Y588251D01*
X809078Y603205D01*
X815032Y603205D01*
X815032Y590451D02*
X809078Y590451D01*
X809078Y592651D02*
X815032Y592651D01*
X815032Y594851D02*
X809078Y594851D01*
X809078Y597051D02*
X815032Y597051D01*
X815032Y599251D02*
X809078Y599251D01*
X809078Y601451D02*
X815032Y601451D01*
X826032Y603205D02*
X826032Y588251D01*
X820078Y588251D01*
X820078Y603205D01*
X826032Y603205D01*
X826032Y590451D02*
X820078Y590451D01*
X820078Y592651D02*
X826032Y592651D01*
X826032Y594851D02*
X820078Y594851D01*
X820078Y597051D02*
X826032Y597051D01*
X826032Y599251D02*
X820078Y599251D01*
X820078Y601451D02*
X826032Y601451D01*
D11*
X727055Y490728D03*
X807055Y490728D03*
D15*
X685562Y505235D02*
X674548Y505235D01*
X685562Y505235D02*
X685562Y484221D01*
X674548Y484221D01*
X674548Y505235D01*
X674548Y486364D02*
X685562Y486364D01*
X685562Y488507D02*
X674548Y488507D01*
X674548Y490650D02*
X685562Y490650D01*
X685562Y492793D02*
X674548Y492793D01*
X674548Y494936D02*
X685562Y494936D01*
X685562Y497079D02*
X674548Y497079D01*
X674548Y499222D02*
X685562Y499222D01*
X685562Y501365D02*
X674548Y501365D01*
X674548Y503508D02*
X685562Y503508D01*
X829548Y505235D02*
X840562Y505235D01*
X840562Y484221D01*
X829548Y484221D01*
X829548Y505235D01*
X829548Y486364D02*
X840562Y486364D01*
X840562Y488507D02*
X829548Y488507D01*
X829548Y490650D02*
X840562Y490650D01*
X840562Y492793D02*
X829548Y492793D01*
X829548Y494936D02*
X840562Y494936D01*
X840562Y497079D02*
X829548Y497079D01*
X829548Y499222D02*
X840562Y499222D01*
X840562Y501365D02*
X829548Y501365D01*
X829548Y503508D02*
X840562Y503508D01*
D16*
X696545Y597218D02*
X681565Y597218D01*
X696545Y597218D02*
X696545Y584238D01*
X681565Y584238D01*
X681565Y597218D01*
X681565Y586414D02*
X696545Y586414D01*
X696545Y588590D02*
X681565Y588590D01*
X681565Y590766D02*
X696545Y590766D01*
X696545Y592942D02*
X681565Y592942D01*
X681565Y595118D02*
X696545Y595118D01*
D15*
X829548Y597235D02*
X840562Y597235D01*
X840562Y582221D01*
X829548Y582221D01*
X829548Y597235D01*
X829548Y584364D02*
X840562Y584364D01*
X840562Y586507D02*
X829548Y586507D01*
X829548Y588650D02*
X840562Y588650D01*
X840562Y590793D02*
X829548Y590793D01*
X829548Y592936D02*
X840562Y592936D01*
X840562Y595079D02*
X829548Y595079D01*
X829548Y597222D02*
X840562Y597222D01*
D17*
X678180Y476360D03*
X678180Y458360D03*
X855980Y476360D03*
X855980Y458360D03*
D10*
X860554Y499997D02*
X860554Y505589D01*
X860554Y499997D02*
X848866Y499997D01*
X848866Y505589D01*
X860554Y505589D01*
X860554Y502166D02*
X848866Y502166D01*
X848866Y504335D02*
X860554Y504335D01*
X860554Y510411D02*
X860554Y516003D01*
X860554Y510411D02*
X848866Y510411D01*
X848866Y516003D01*
X860554Y516003D01*
X860554Y512580D02*
X848866Y512580D01*
X848866Y514749D02*
X860554Y514749D01*
X635506Y476633D02*
X635506Y471041D01*
X635506Y476633D02*
X647194Y476633D01*
X647194Y471041D01*
X635506Y471041D01*
X635506Y473210D02*
X647194Y473210D01*
X647194Y475379D02*
X635506Y475379D01*
X635506Y466219D02*
X635506Y460627D01*
X635506Y466219D02*
X647194Y466219D01*
X647194Y460627D01*
X635506Y460627D01*
X635506Y462796D02*
X647194Y462796D01*
X647194Y464965D02*
X635506Y464965D01*
D18*
X881380Y474980D03*
D10*
X875536Y596898D02*
X875536Y602490D01*
X887224Y602490D01*
X887224Y596898D01*
X875536Y596898D01*
X875536Y599067D02*
X887224Y599067D01*
X887224Y601236D02*
X875536Y601236D01*
X875536Y592076D02*
X875536Y586484D01*
X875536Y592076D02*
X887224Y592076D01*
X887224Y586484D01*
X875536Y586484D01*
X875536Y588653D02*
X887224Y588653D01*
X887224Y590822D02*
X875536Y590822D01*
X875536Y581662D02*
X875536Y576070D01*
X875536Y581662D02*
X887224Y581662D01*
X887224Y576070D01*
X875536Y576070D01*
X875536Y578239D02*
X887224Y578239D01*
X887224Y580408D02*
X875536Y580408D01*
D19*
X1008380Y513080D03*
X1008380Y538480D03*
X1008380Y563880D03*
X1008380Y589280D03*
X525780Y741680D03*
X525780Y767080D03*
X525780Y792480D03*
X525780Y817880D03*
X525780Y589280D03*
X525780Y614680D03*
X525780Y640080D03*
X525780Y665480D03*
X525780Y690880D03*
X525780Y716280D03*
D18*
X640080Y601980D03*
X601980Y678180D03*
D20*
X704977Y734822D02*
X710311Y734822D01*
X710311Y723138D01*
X704977Y723138D01*
X704977Y734822D01*
X704977Y725310D02*
X710311Y725310D01*
X710311Y727482D02*
X704977Y727482D01*
X704977Y729654D02*
X710311Y729654D01*
X710311Y731826D02*
X704977Y731826D01*
X704977Y733998D02*
X710311Y733998D01*
X702183Y734822D02*
X696849Y734822D01*
X702183Y734822D02*
X702183Y723138D01*
X696849Y723138D01*
X696849Y734822D01*
X696849Y725310D02*
X702183Y725310D01*
X702183Y727482D02*
X696849Y727482D01*
X696849Y729654D02*
X702183Y729654D01*
X702183Y731826D02*
X696849Y731826D01*
X696849Y733998D02*
X702183Y733998D01*
X704977Y709422D02*
X710311Y709422D01*
X710311Y697738D01*
X704977Y697738D01*
X704977Y709422D01*
X704977Y699910D02*
X710311Y699910D01*
X710311Y702082D02*
X704977Y702082D01*
X704977Y704254D02*
X710311Y704254D01*
X710311Y706426D02*
X704977Y706426D01*
X704977Y708598D02*
X710311Y708598D01*
X702183Y709422D02*
X696849Y709422D01*
X702183Y709422D02*
X702183Y697738D01*
X696849Y697738D01*
X696849Y709422D01*
X696849Y699910D02*
X702183Y699910D01*
X702183Y702082D02*
X696849Y702082D01*
X696849Y704254D02*
X702183Y704254D01*
X702183Y706426D02*
X696849Y706426D01*
X696849Y708598D02*
X702183Y708598D01*
D19*
X1008380Y614680D03*
X1008380Y640080D03*
X1008380Y665480D03*
X1008380Y690880D03*
X1008380Y716280D03*
X1008380Y741680D03*
X1008380Y767080D03*
X1008380Y792480D03*
X1008380Y817880D03*
D12*
X640080Y538480D03*
D10*
X912624Y466219D02*
X912624Y460627D01*
X900936Y460627D01*
X900936Y466219D01*
X912624Y466219D01*
X912624Y462796D02*
X900936Y462796D01*
X900936Y464965D02*
X912624Y464965D01*
X912624Y471041D02*
X912624Y476633D01*
X912624Y471041D02*
X900936Y471041D01*
X900936Y476633D01*
X912624Y476633D01*
X912624Y473210D02*
X900936Y473210D01*
X900936Y475379D02*
X912624Y475379D01*
D18*
X589280Y500380D03*
X652780Y805180D03*
X665480Y652780D03*
X627380Y805180D03*
D10*
X113794Y910207D02*
X113794Y915799D01*
X113794Y910207D02*
X102106Y910207D01*
X102106Y915799D01*
X113794Y915799D01*
X113794Y912376D02*
X102106Y912376D01*
X102106Y914545D02*
X113794Y914545D01*
X113794Y920621D02*
X113794Y926213D01*
X113794Y920621D02*
X102106Y920621D01*
X102106Y926213D01*
X113794Y926213D01*
X113794Y922790D02*
X102106Y922790D01*
X102106Y924959D02*
X113794Y924959D01*
D11*
X25400Y1254760D03*
X500380Y906780D03*
D12*
X381000Y988060D03*
X381000Y1191260D03*
X127000Y1191260D03*
D13*
X225100Y952020D03*
X282900Y952020D03*
D14*
X246952Y1037831D02*
X246952Y1052785D01*
X246952Y1037831D02*
X240998Y1037831D01*
X240998Y1052785D01*
X246952Y1052785D01*
X246952Y1040031D02*
X240998Y1040031D01*
X240998Y1042231D02*
X246952Y1042231D01*
X246952Y1044431D02*
X240998Y1044431D01*
X240998Y1046631D02*
X246952Y1046631D01*
X246952Y1048831D02*
X240998Y1048831D01*
X240998Y1051031D02*
X246952Y1051031D01*
X235952Y1052785D02*
X235952Y1037831D01*
X229998Y1037831D01*
X229998Y1052785D01*
X235952Y1052785D01*
X235952Y1040031D02*
X229998Y1040031D01*
X229998Y1042231D02*
X235952Y1042231D01*
X235952Y1044431D02*
X229998Y1044431D01*
X229998Y1046631D02*
X235952Y1046631D01*
X235952Y1048831D02*
X229998Y1048831D01*
X229998Y1051031D02*
X235952Y1051031D01*
X224952Y1052785D02*
X224952Y1037831D01*
X218998Y1037831D01*
X218998Y1052785D01*
X224952Y1052785D01*
X224952Y1040031D02*
X218998Y1040031D01*
X218998Y1042231D02*
X224952Y1042231D01*
X224952Y1044431D02*
X218998Y1044431D01*
X218998Y1046631D02*
X224952Y1046631D01*
X224952Y1048831D02*
X218998Y1048831D01*
X218998Y1051031D02*
X224952Y1051031D01*
X257952Y1052785D02*
X257952Y1037831D01*
X251998Y1037831D01*
X251998Y1052785D01*
X257952Y1052785D01*
X257952Y1040031D02*
X251998Y1040031D01*
X251998Y1042231D02*
X257952Y1042231D01*
X257952Y1044431D02*
X251998Y1044431D01*
X251998Y1046631D02*
X257952Y1046631D01*
X257952Y1048831D02*
X251998Y1048831D01*
X251998Y1051031D02*
X257952Y1051031D01*
X268952Y1052785D02*
X268952Y1037831D01*
X262998Y1037831D01*
X262998Y1052785D01*
X268952Y1052785D01*
X268952Y1040031D02*
X262998Y1040031D01*
X262998Y1042231D02*
X268952Y1042231D01*
X268952Y1044431D02*
X262998Y1044431D01*
X262998Y1046631D02*
X268952Y1046631D01*
X268952Y1048831D02*
X262998Y1048831D01*
X262998Y1051031D02*
X268952Y1051031D01*
X279952Y1052785D02*
X279952Y1037831D01*
X273998Y1037831D01*
X273998Y1052785D01*
X279952Y1052785D01*
X279952Y1040031D02*
X273998Y1040031D01*
X273998Y1042231D02*
X279952Y1042231D01*
X279952Y1044431D02*
X273998Y1044431D01*
X273998Y1046631D02*
X279952Y1046631D01*
X279952Y1048831D02*
X273998Y1048831D01*
X273998Y1051031D02*
X279952Y1051031D01*
X290952Y1052785D02*
X290952Y1037831D01*
X284998Y1037831D01*
X284998Y1052785D01*
X290952Y1052785D01*
X290952Y1040031D02*
X284998Y1040031D01*
X284998Y1042231D02*
X290952Y1042231D01*
X290952Y1044431D02*
X284998Y1044431D01*
X284998Y1046631D02*
X290952Y1046631D01*
X290952Y1048831D02*
X284998Y1048831D01*
X284998Y1051031D02*
X290952Y1051031D01*
X301952Y1052785D02*
X301952Y1037831D01*
X295998Y1037831D01*
X295998Y1052785D01*
X301952Y1052785D01*
X301952Y1040031D02*
X295998Y1040031D01*
X295998Y1042231D02*
X301952Y1042231D01*
X301952Y1044431D02*
X295998Y1044431D01*
X295998Y1046631D02*
X301952Y1046631D01*
X301952Y1048831D02*
X295998Y1048831D01*
X295998Y1051031D02*
X301952Y1051031D01*
X312952Y1052785D02*
X312952Y1037831D01*
X306998Y1037831D01*
X306998Y1052785D01*
X312952Y1052785D01*
X312952Y1040031D02*
X306998Y1040031D01*
X306998Y1042231D02*
X312952Y1042231D01*
X312952Y1044431D02*
X306998Y1044431D01*
X306998Y1046631D02*
X312952Y1046631D01*
X312952Y1048831D02*
X306998Y1048831D01*
X306998Y1051031D02*
X312952Y1051031D01*
D11*
X213975Y940308D03*
X293975Y940308D03*
D15*
X172482Y954815D02*
X161468Y954815D01*
X172482Y954815D02*
X172482Y933801D01*
X161468Y933801D01*
X161468Y954815D01*
X161468Y935944D02*
X172482Y935944D01*
X172482Y938087D02*
X161468Y938087D01*
X161468Y940230D02*
X172482Y940230D01*
X172482Y942373D02*
X161468Y942373D01*
X161468Y944516D02*
X172482Y944516D01*
X172482Y946659D02*
X161468Y946659D01*
X161468Y948802D02*
X172482Y948802D01*
X172482Y950945D02*
X161468Y950945D01*
X161468Y953088D02*
X172482Y953088D01*
X316468Y954815D02*
X327482Y954815D01*
X327482Y933801D01*
X316468Y933801D01*
X316468Y954815D01*
X316468Y935944D02*
X327482Y935944D01*
X327482Y938087D02*
X316468Y938087D01*
X316468Y940230D02*
X327482Y940230D01*
X327482Y942373D02*
X316468Y942373D01*
X316468Y944516D02*
X327482Y944516D01*
X327482Y946659D02*
X316468Y946659D01*
X316468Y948802D02*
X327482Y948802D01*
X327482Y950945D02*
X316468Y950945D01*
X316468Y953088D02*
X327482Y953088D01*
D16*
X183465Y1046798D02*
X168485Y1046798D01*
X183465Y1046798D02*
X183465Y1033818D01*
X168485Y1033818D01*
X168485Y1046798D01*
X168485Y1035994D02*
X183465Y1035994D01*
X183465Y1038170D02*
X168485Y1038170D01*
X168485Y1040346D02*
X183465Y1040346D01*
X183465Y1042522D02*
X168485Y1042522D01*
X168485Y1044698D02*
X183465Y1044698D01*
D15*
X316468Y1046815D02*
X327482Y1046815D01*
X327482Y1031801D01*
X316468Y1031801D01*
X316468Y1046815D01*
X316468Y1033944D02*
X327482Y1033944D01*
X327482Y1036087D02*
X316468Y1036087D01*
X316468Y1038230D02*
X327482Y1038230D01*
X327482Y1040373D02*
X316468Y1040373D01*
X316468Y1042516D02*
X327482Y1042516D01*
X327482Y1044659D02*
X316468Y1044659D01*
X316468Y1046802D02*
X327482Y1046802D01*
D17*
X165100Y925940D03*
X165100Y907940D03*
X342900Y925940D03*
X342900Y907940D03*
D10*
X347474Y949577D02*
X347474Y955169D01*
X347474Y949577D02*
X335786Y949577D01*
X335786Y955169D01*
X347474Y955169D01*
X347474Y951746D02*
X335786Y951746D01*
X335786Y953915D02*
X347474Y953915D01*
X347474Y959991D02*
X347474Y965583D01*
X347474Y959991D02*
X335786Y959991D01*
X335786Y965583D01*
X347474Y965583D01*
X347474Y962160D02*
X335786Y962160D01*
X335786Y964329D02*
X347474Y964329D01*
X122426Y926213D02*
X122426Y920621D01*
X122426Y926213D02*
X134114Y926213D01*
X134114Y920621D01*
X122426Y920621D01*
X122426Y922790D02*
X134114Y922790D01*
X134114Y924959D02*
X122426Y924959D01*
X122426Y915799D02*
X122426Y910207D01*
X122426Y915799D02*
X134114Y915799D01*
X134114Y910207D01*
X122426Y910207D01*
X122426Y912376D02*
X134114Y912376D01*
X134114Y914545D02*
X122426Y914545D01*
D18*
X368300Y924560D03*
D10*
X362456Y1046478D02*
X362456Y1052070D01*
X374144Y1052070D01*
X374144Y1046478D01*
X362456Y1046478D01*
X362456Y1048647D02*
X374144Y1048647D01*
X374144Y1050816D02*
X362456Y1050816D01*
X362456Y1041656D02*
X362456Y1036064D01*
X362456Y1041656D02*
X374144Y1041656D01*
X374144Y1036064D01*
X362456Y1036064D01*
X362456Y1038233D02*
X374144Y1038233D01*
X374144Y1040402D02*
X362456Y1040402D01*
X362456Y1031242D02*
X362456Y1025650D01*
X362456Y1031242D02*
X374144Y1031242D01*
X374144Y1025650D01*
X362456Y1025650D01*
X362456Y1027819D02*
X374144Y1027819D01*
X374144Y1029988D02*
X362456Y1029988D01*
D19*
X495300Y962660D03*
X495300Y988060D03*
X495300Y1013460D03*
X495300Y1038860D03*
X12700Y1191260D03*
X12700Y1216660D03*
X12700Y1242060D03*
X12700Y1267460D03*
X12700Y1038860D03*
X12700Y1064260D03*
X12700Y1089660D03*
X12700Y1115060D03*
X12700Y1140460D03*
X12700Y1165860D03*
D18*
X127000Y1051560D03*
X88900Y1127760D03*
D20*
X191897Y1184402D02*
X197231Y1184402D01*
X197231Y1172718D01*
X191897Y1172718D01*
X191897Y1184402D01*
X191897Y1174890D02*
X197231Y1174890D01*
X197231Y1177062D02*
X191897Y1177062D01*
X191897Y1179234D02*
X197231Y1179234D01*
X197231Y1181406D02*
X191897Y1181406D01*
X191897Y1183578D02*
X197231Y1183578D01*
X189103Y1184402D02*
X183769Y1184402D01*
X189103Y1184402D02*
X189103Y1172718D01*
X183769Y1172718D01*
X183769Y1184402D01*
X183769Y1174890D02*
X189103Y1174890D01*
X189103Y1177062D02*
X183769Y1177062D01*
X183769Y1179234D02*
X189103Y1179234D01*
X189103Y1181406D02*
X183769Y1181406D01*
X183769Y1183578D02*
X189103Y1183578D01*
X191897Y1159002D02*
X197231Y1159002D01*
X197231Y1147318D01*
X191897Y1147318D01*
X191897Y1159002D01*
X191897Y1149490D02*
X197231Y1149490D01*
X197231Y1151662D02*
X191897Y1151662D01*
X191897Y1153834D02*
X197231Y1153834D01*
X197231Y1156006D02*
X191897Y1156006D01*
X191897Y1158178D02*
X197231Y1158178D01*
X189103Y1159002D02*
X183769Y1159002D01*
X189103Y1159002D02*
X189103Y1147318D01*
X183769Y1147318D01*
X183769Y1159002D01*
X183769Y1149490D02*
X189103Y1149490D01*
X189103Y1151662D02*
X183769Y1151662D01*
X183769Y1153834D02*
X189103Y1153834D01*
X189103Y1156006D02*
X183769Y1156006D01*
X183769Y1158178D02*
X189103Y1158178D01*
D19*
X495300Y1064260D03*
X495300Y1089660D03*
X495300Y1115060D03*
X495300Y1140460D03*
X495300Y1165860D03*
X495300Y1191260D03*
X495300Y1216660D03*
X495300Y1242060D03*
X495300Y1267460D03*
D12*
X127000Y988060D03*
D10*
X399544Y915799D02*
X399544Y910207D01*
X387856Y910207D01*
X387856Y915799D01*
X399544Y915799D01*
X399544Y912376D02*
X387856Y912376D01*
X387856Y914545D02*
X399544Y914545D01*
X399544Y920621D02*
X399544Y926213D01*
X399544Y920621D02*
X387856Y920621D01*
X387856Y926213D01*
X399544Y926213D01*
X399544Y922790D02*
X387856Y922790D01*
X387856Y924959D02*
X399544Y924959D01*
D18*
X76200Y949960D03*
X139700Y1254760D03*
X152400Y1102360D03*
X114300Y1254760D03*
D10*
X626874Y915799D02*
X626874Y910207D01*
X615186Y910207D01*
X615186Y915799D01*
X626874Y915799D01*
X626874Y912376D02*
X615186Y912376D01*
X615186Y914545D02*
X626874Y914545D01*
X626874Y920621D02*
X626874Y926213D01*
X626874Y920621D02*
X615186Y920621D01*
X615186Y926213D01*
X626874Y926213D01*
X626874Y922790D02*
X615186Y922790D01*
X615186Y924959D02*
X626874Y924959D01*
D11*
X538480Y1254760D03*
X1013460Y906780D03*
D12*
X894080Y988060D03*
X894080Y1191260D03*
X640080Y1191260D03*
D13*
X738180Y952020D03*
X795980Y952020D03*
D14*
X760032Y1037831D02*
X760032Y1052785D01*
X760032Y1037831D02*
X754078Y1037831D01*
X754078Y1052785D01*
X760032Y1052785D01*
X760032Y1040031D02*
X754078Y1040031D01*
X754078Y1042231D02*
X760032Y1042231D01*
X760032Y1044431D02*
X754078Y1044431D01*
X754078Y1046631D02*
X760032Y1046631D01*
X760032Y1048831D02*
X754078Y1048831D01*
X754078Y1051031D02*
X760032Y1051031D01*
X749032Y1052785D02*
X749032Y1037831D01*
X743078Y1037831D01*
X743078Y1052785D01*
X749032Y1052785D01*
X749032Y1040031D02*
X743078Y1040031D01*
X743078Y1042231D02*
X749032Y1042231D01*
X749032Y1044431D02*
X743078Y1044431D01*
X743078Y1046631D02*
X749032Y1046631D01*
X749032Y1048831D02*
X743078Y1048831D01*
X743078Y1051031D02*
X749032Y1051031D01*
X738032Y1052785D02*
X738032Y1037831D01*
X732078Y1037831D01*
X732078Y1052785D01*
X738032Y1052785D01*
X738032Y1040031D02*
X732078Y1040031D01*
X732078Y1042231D02*
X738032Y1042231D01*
X738032Y1044431D02*
X732078Y1044431D01*
X732078Y1046631D02*
X738032Y1046631D01*
X738032Y1048831D02*
X732078Y1048831D01*
X732078Y1051031D02*
X738032Y1051031D01*
X771032Y1052785D02*
X771032Y1037831D01*
X765078Y1037831D01*
X765078Y1052785D01*
X771032Y1052785D01*
X771032Y1040031D02*
X765078Y1040031D01*
X765078Y1042231D02*
X771032Y1042231D01*
X771032Y1044431D02*
X765078Y1044431D01*
X765078Y1046631D02*
X771032Y1046631D01*
X771032Y1048831D02*
X765078Y1048831D01*
X765078Y1051031D02*
X771032Y1051031D01*
X782032Y1052785D02*
X782032Y1037831D01*
X776078Y1037831D01*
X776078Y1052785D01*
X782032Y1052785D01*
X782032Y1040031D02*
X776078Y1040031D01*
X776078Y1042231D02*
X782032Y1042231D01*
X782032Y1044431D02*
X776078Y1044431D01*
X776078Y1046631D02*
X782032Y1046631D01*
X782032Y1048831D02*
X776078Y1048831D01*
X776078Y1051031D02*
X782032Y1051031D01*
X793032Y1052785D02*
X793032Y1037831D01*
X787078Y1037831D01*
X787078Y1052785D01*
X793032Y1052785D01*
X793032Y1040031D02*
X787078Y1040031D01*
X787078Y1042231D02*
X793032Y1042231D01*
X793032Y1044431D02*
X787078Y1044431D01*
X787078Y1046631D02*
X793032Y1046631D01*
X793032Y1048831D02*
X787078Y1048831D01*
X787078Y1051031D02*
X793032Y1051031D01*
X804032Y1052785D02*
X804032Y1037831D01*
X798078Y1037831D01*
X798078Y1052785D01*
X804032Y1052785D01*
X804032Y1040031D02*
X798078Y1040031D01*
X798078Y1042231D02*
X804032Y1042231D01*
X804032Y1044431D02*
X798078Y1044431D01*
X798078Y1046631D02*
X804032Y1046631D01*
X804032Y1048831D02*
X798078Y1048831D01*
X798078Y1051031D02*
X804032Y1051031D01*
X815032Y1052785D02*
X815032Y1037831D01*
X809078Y1037831D01*
X809078Y1052785D01*
X815032Y1052785D01*
X815032Y1040031D02*
X809078Y1040031D01*
X809078Y1042231D02*
X815032Y1042231D01*
X815032Y1044431D02*
X809078Y1044431D01*
X809078Y1046631D02*
X815032Y1046631D01*
X815032Y1048831D02*
X809078Y1048831D01*
X809078Y1051031D02*
X815032Y1051031D01*
X826032Y1052785D02*
X826032Y1037831D01*
X820078Y1037831D01*
X820078Y1052785D01*
X826032Y1052785D01*
X826032Y1040031D02*
X820078Y1040031D01*
X820078Y1042231D02*
X826032Y1042231D01*
X826032Y1044431D02*
X820078Y1044431D01*
X820078Y1046631D02*
X826032Y1046631D01*
X826032Y1048831D02*
X820078Y1048831D01*
X820078Y1051031D02*
X826032Y1051031D01*
D11*
X727055Y940308D03*
X807055Y940308D03*
D15*
X685562Y954815D02*
X674548Y954815D01*
X685562Y954815D02*
X685562Y933801D01*
X674548Y933801D01*
X674548Y954815D01*
X674548Y935944D02*
X685562Y935944D01*
X685562Y938087D02*
X674548Y938087D01*
X674548Y940230D02*
X685562Y940230D01*
X685562Y942373D02*
X674548Y942373D01*
X674548Y944516D02*
X685562Y944516D01*
X685562Y946659D02*
X674548Y946659D01*
X674548Y948802D02*
X685562Y948802D01*
X685562Y950945D02*
X674548Y950945D01*
X674548Y953088D02*
X685562Y953088D01*
X829548Y954815D02*
X840562Y954815D01*
X840562Y933801D01*
X829548Y933801D01*
X829548Y954815D01*
X829548Y935944D02*
X840562Y935944D01*
X840562Y938087D02*
X829548Y938087D01*
X829548Y940230D02*
X840562Y940230D01*
X840562Y942373D02*
X829548Y942373D01*
X829548Y944516D02*
X840562Y944516D01*
X840562Y946659D02*
X829548Y946659D01*
X829548Y948802D02*
X840562Y948802D01*
X840562Y950945D02*
X829548Y950945D01*
X829548Y953088D02*
X840562Y953088D01*
D16*
X696545Y1046798D02*
X681565Y1046798D01*
X696545Y1046798D02*
X696545Y1033818D01*
X681565Y1033818D01*
X681565Y1046798D01*
X681565Y1035994D02*
X696545Y1035994D01*
X696545Y1038170D02*
X681565Y1038170D01*
X681565Y1040346D02*
X696545Y1040346D01*
X696545Y1042522D02*
X681565Y1042522D01*
X681565Y1044698D02*
X696545Y1044698D01*
D15*
X829548Y1046815D02*
X840562Y1046815D01*
X840562Y1031801D01*
X829548Y1031801D01*
X829548Y1046815D01*
X829548Y1033944D02*
X840562Y1033944D01*
X840562Y1036087D02*
X829548Y1036087D01*
X829548Y1038230D02*
X840562Y1038230D01*
X840562Y1040373D02*
X829548Y1040373D01*
X829548Y1042516D02*
X840562Y1042516D01*
X840562Y1044659D02*
X829548Y1044659D01*
X829548Y1046802D02*
X840562Y1046802D01*
D17*
X678180Y925940D03*
X678180Y907940D03*
X855980Y925940D03*
X855980Y907940D03*
D10*
X860554Y949577D02*
X860554Y955169D01*
X860554Y949577D02*
X848866Y949577D01*
X848866Y955169D01*
X860554Y955169D01*
X860554Y951746D02*
X848866Y951746D01*
X848866Y953915D02*
X860554Y953915D01*
X860554Y959991D02*
X860554Y965583D01*
X860554Y959991D02*
X848866Y959991D01*
X848866Y965583D01*
X860554Y965583D01*
X860554Y962160D02*
X848866Y962160D01*
X848866Y964329D02*
X860554Y964329D01*
X635506Y926213D02*
X635506Y920621D01*
X635506Y926213D02*
X647194Y926213D01*
X647194Y920621D01*
X635506Y920621D01*
X635506Y922790D02*
X647194Y922790D01*
X647194Y924959D02*
X635506Y924959D01*
X635506Y915799D02*
X635506Y910207D01*
X635506Y915799D02*
X647194Y915799D01*
X647194Y910207D01*
X635506Y910207D01*
X635506Y912376D02*
X647194Y912376D01*
X647194Y914545D02*
X635506Y914545D01*
D18*
X881380Y924560D03*
D10*
X875536Y1046478D02*
X875536Y1052070D01*
X887224Y1052070D01*
X887224Y1046478D01*
X875536Y1046478D01*
X875536Y1048647D02*
X887224Y1048647D01*
X887224Y1050816D02*
X875536Y1050816D01*
X875536Y1041656D02*
X875536Y1036064D01*
X875536Y1041656D02*
X887224Y1041656D01*
X887224Y1036064D01*
X875536Y1036064D01*
X875536Y1038233D02*
X887224Y1038233D01*
X887224Y1040402D02*
X875536Y1040402D01*
X875536Y1031242D02*
X875536Y1025650D01*
X875536Y1031242D02*
X887224Y1031242D01*
X887224Y1025650D01*
X875536Y1025650D01*
X875536Y1027819D02*
X887224Y1027819D01*
X887224Y1029988D02*
X875536Y1029988D01*
D19*
X1008380Y962660D03*
X1008380Y988060D03*
X1008380Y1013460D03*
X1008380Y1038860D03*
X525780Y1191260D03*
X525780Y1216660D03*
X525780Y1242060D03*
X525780Y1267460D03*
X525780Y1038860D03*
X525780Y1064260D03*
X525780Y1089660D03*
X525780Y1115060D03*
X525780Y1140460D03*
X525780Y1165860D03*
D18*
X640080Y1051560D03*
X601980Y1127760D03*
D20*
X704977Y1184402D02*
X710311Y1184402D01*
X710311Y1172718D01*
X704977Y1172718D01*
X704977Y1184402D01*
X704977Y1174890D02*
X710311Y1174890D01*
X710311Y1177062D02*
X704977Y1177062D01*
X704977Y1179234D02*
X710311Y1179234D01*
X710311Y1181406D02*
X704977Y1181406D01*
X704977Y1183578D02*
X710311Y1183578D01*
X702183Y1184402D02*
X696849Y1184402D01*
X702183Y1184402D02*
X702183Y1172718D01*
X696849Y1172718D01*
X696849Y1184402D01*
X696849Y1174890D02*
X702183Y1174890D01*
X702183Y1177062D02*
X696849Y1177062D01*
X696849Y1179234D02*
X702183Y1179234D01*
X702183Y1181406D02*
X696849Y1181406D01*
X696849Y1183578D02*
X702183Y1183578D01*
X704977Y1159002D02*
X710311Y1159002D01*
X710311Y1147318D01*
X704977Y1147318D01*
X704977Y1159002D01*
X704977Y1149490D02*
X710311Y1149490D01*
X710311Y1151662D02*
X704977Y1151662D01*
X704977Y1153834D02*
X710311Y1153834D01*
X710311Y1156006D02*
X704977Y1156006D01*
X704977Y1158178D02*
X710311Y1158178D01*
X702183Y1159002D02*
X696849Y1159002D01*
X702183Y1159002D02*
X702183Y1147318D01*
X696849Y1147318D01*
X696849Y1159002D01*
X696849Y1149490D02*
X702183Y1149490D01*
X702183Y1151662D02*
X696849Y1151662D01*
X696849Y1153834D02*
X702183Y1153834D01*
X702183Y1156006D02*
X696849Y1156006D01*
X696849Y1158178D02*
X702183Y1158178D01*
D19*
X1008380Y1064260D03*
X1008380Y1089660D03*
X1008380Y1115060D03*
X1008380Y1140460D03*
X1008380Y1165860D03*
X1008380Y1191260D03*
X1008380Y1216660D03*
X1008380Y1242060D03*
X1008380Y1267460D03*
D12*
X640080Y988060D03*
D10*
X912624Y915799D02*
X912624Y910207D01*
X900936Y910207D01*
X900936Y915799D01*
X912624Y915799D01*
X912624Y912376D02*
X900936Y912376D01*
X900936Y914545D02*
X912624Y914545D01*
X912624Y920621D02*
X912624Y926213D01*
X912624Y920621D02*
X900936Y920621D01*
X900936Y926213D01*
X912624Y926213D01*
X912624Y922790D02*
X900936Y922790D01*
X900936Y924959D02*
X912624Y924959D01*
D18*
X589280Y949960D03*
X652780Y1254760D03*
X665480Y1102360D03*
X627380Y1254760D03*
D11*
X-26238Y1316990D03*
X1047318Y1316990D03*
D21*
X-35293Y63500D02*
X-35290Y63722D01*
X-35282Y63944D01*
X-35268Y64166D01*
X-35249Y64388D01*
X-35225Y64608D01*
X-35195Y64829D01*
X-35160Y65048D01*
X-35119Y65267D01*
X-35073Y65484D01*
X-35022Y65700D01*
X-34965Y65915D01*
X-34903Y66129D01*
X-34836Y66340D01*
X-34764Y66551D01*
X-34686Y66759D01*
X-34604Y66965D01*
X-34516Y67169D01*
X-34424Y67372D01*
X-34326Y67571D01*
X-34224Y67768D01*
X-34117Y67963D01*
X-34005Y68155D01*
X-33888Y68344D01*
X-33767Y68531D01*
X-33641Y68714D01*
X-33511Y68894D01*
X-33376Y69071D01*
X-33238Y69244D01*
X-33095Y69414D01*
X-32947Y69581D01*
X-32796Y69744D01*
X-32641Y69903D01*
X-32482Y70058D01*
X-32319Y70209D01*
X-32152Y70357D01*
X-31982Y70500D01*
X-31809Y70638D01*
X-31632Y70773D01*
X-31452Y70903D01*
X-31269Y71029D01*
X-31082Y71150D01*
X-30893Y71267D01*
X-30701Y71379D01*
X-30506Y71486D01*
X-30309Y71588D01*
X-30110Y71686D01*
X-29907Y71778D01*
X-29703Y71866D01*
X-29497Y71948D01*
X-29289Y72026D01*
X-29078Y72098D01*
X-28867Y72165D01*
X-28653Y72227D01*
X-28438Y72284D01*
X-28222Y72335D01*
X-28005Y72381D01*
X-27786Y72422D01*
X-27567Y72457D01*
X-27346Y72487D01*
X-27126Y72511D01*
X-26904Y72530D01*
X-26682Y72544D01*
X-26460Y72552D01*
X-26238Y72555D01*
X-26016Y72552D01*
X-25794Y72544D01*
X-25572Y72530D01*
X-25350Y72511D01*
X-25130Y72487D01*
X-24909Y72457D01*
X-24690Y72422D01*
X-24471Y72381D01*
X-24254Y72335D01*
X-24038Y72284D01*
X-23823Y72227D01*
X-23609Y72165D01*
X-23398Y72098D01*
X-23187Y72026D01*
X-22979Y71948D01*
X-22773Y71866D01*
X-22569Y71778D01*
X-22366Y71686D01*
X-22167Y71588D01*
X-21970Y71486D01*
X-21775Y71379D01*
X-21583Y71267D01*
X-21394Y71150D01*
X-21207Y71029D01*
X-21024Y70903D01*
X-20844Y70773D01*
X-20667Y70638D01*
X-20494Y70500D01*
X-20324Y70357D01*
X-20157Y70209D01*
X-19994Y70058D01*
X-19835Y69903D01*
X-19680Y69744D01*
X-19529Y69581D01*
X-19381Y69414D01*
X-19238Y69244D01*
X-19100Y69071D01*
X-18965Y68894D01*
X-18835Y68714D01*
X-18709Y68531D01*
X-18588Y68344D01*
X-18471Y68155D01*
X-18359Y67963D01*
X-18252Y67768D01*
X-18150Y67571D01*
X-18052Y67372D01*
X-17960Y67169D01*
X-17872Y66965D01*
X-17790Y66759D01*
X-17712Y66551D01*
X-17640Y66340D01*
X-17573Y66129D01*
X-17511Y65915D01*
X-17454Y65700D01*
X-17403Y65484D01*
X-17357Y65267D01*
X-17316Y65048D01*
X-17281Y64829D01*
X-17251Y64608D01*
X-17227Y64388D01*
X-17208Y64166D01*
X-17194Y63944D01*
X-17186Y63722D01*
X-17183Y63500D01*
X-17186Y63278D01*
X-17194Y63056D01*
X-17208Y62834D01*
X-17227Y62612D01*
X-17251Y62392D01*
X-17281Y62171D01*
X-17316Y61952D01*
X-17357Y61733D01*
X-17403Y61516D01*
X-17454Y61300D01*
X-17511Y61085D01*
X-17573Y60871D01*
X-17640Y60660D01*
X-17712Y60449D01*
X-17790Y60241D01*
X-17872Y60035D01*
X-17960Y59831D01*
X-18052Y59628D01*
X-18150Y59429D01*
X-18252Y59232D01*
X-18359Y59037D01*
X-18471Y58845D01*
X-18588Y58656D01*
X-18709Y58469D01*
X-18835Y58286D01*
X-18965Y58106D01*
X-19100Y57929D01*
X-19238Y57756D01*
X-19381Y57586D01*
X-19529Y57419D01*
X-19680Y57256D01*
X-19835Y57097D01*
X-19994Y56942D01*
X-20157Y56791D01*
X-20324Y56643D01*
X-20494Y56500D01*
X-20667Y56362D01*
X-20844Y56227D01*
X-21024Y56097D01*
X-21207Y55971D01*
X-21394Y55850D01*
X-21583Y55733D01*
X-21775Y55621D01*
X-21970Y55514D01*
X-22167Y55412D01*
X-22366Y55314D01*
X-22569Y55222D01*
X-22773Y55134D01*
X-22979Y55052D01*
X-23187Y54974D01*
X-23398Y54902D01*
X-23609Y54835D01*
X-23823Y54773D01*
X-24038Y54716D01*
X-24254Y54665D01*
X-24471Y54619D01*
X-24690Y54578D01*
X-24909Y54543D01*
X-25130Y54513D01*
X-25350Y54489D01*
X-25572Y54470D01*
X-25794Y54456D01*
X-26016Y54448D01*
X-26238Y54445D01*
X-26460Y54448D01*
X-26682Y54456D01*
X-26904Y54470D01*
X-27126Y54489D01*
X-27346Y54513D01*
X-27567Y54543D01*
X-27786Y54578D01*
X-28005Y54619D01*
X-28222Y54665D01*
X-28438Y54716D01*
X-28653Y54773D01*
X-28867Y54835D01*
X-29078Y54902D01*
X-29289Y54974D01*
X-29497Y55052D01*
X-29703Y55134D01*
X-29907Y55222D01*
X-30110Y55314D01*
X-30309Y55412D01*
X-30506Y55514D01*
X-30701Y55621D01*
X-30893Y55733D01*
X-31082Y55850D01*
X-31269Y55971D01*
X-31452Y56097D01*
X-31632Y56227D01*
X-31809Y56362D01*
X-31982Y56500D01*
X-32152Y56643D01*
X-32319Y56791D01*
X-32482Y56942D01*
X-32641Y57097D01*
X-32796Y57256D01*
X-32947Y57419D01*
X-33095Y57586D01*
X-33238Y57756D01*
X-33376Y57929D01*
X-33511Y58106D01*
X-33641Y58286D01*
X-33767Y58469D01*
X-33888Y58656D01*
X-34005Y58845D01*
X-34117Y59037D01*
X-34224Y59232D01*
X-34326Y59429D01*
X-34424Y59628D01*
X-34516Y59831D01*
X-34604Y60035D01*
X-34686Y60241D01*
X-34764Y60449D01*
X-34836Y60660D01*
X-34903Y60871D01*
X-34965Y61085D01*
X-35022Y61300D01*
X-35073Y61516D01*
X-35119Y61733D01*
X-35160Y61952D01*
X-35195Y62171D01*
X-35225Y62392D01*
X-35249Y62612D01*
X-35268Y62834D01*
X-35282Y63056D01*
X-35290Y63278D01*
X-35293Y63500D01*
D22*
X-26238Y63500D03*
M02*
