M48
;GenerationSoftware,Autodesk,EAGLE,9.6.2*%
;CreationDate,2023-02-06T17:54:27Z*%
FMAT,2
ICI,OFF
METRIC,TZ,000.000
T7C0.300
T6C0.400
T5C0.650
T4C0.700
T3C1.000
T2C1.016
T1C3.048
%
G90
M71
T1
X38100Y119126
X64008Y8890
X38100Y8890
X38100Y29210
X12700Y29210
X38100Y53848
X38100Y74168
X12700Y74168
X12700Y119126
X89408Y119126
X64008Y119126
X64008Y98806
X12700Y98806
X12700Y8890
X89408Y8890
X89408Y29210
X64008Y29210
X89408Y98806
X64008Y53848
X12700Y53848
X89408Y53848
X89408Y74168
X64008Y74168
X38100Y98806
T2
X52578Y69088
X100838Y126746
X52578Y71628
X100838Y61468
X100838Y64008
X100838Y66548
X100838Y69088
X100838Y71628
X100838Y74168
X100838Y76708
X100838Y79248
X100838Y81788
X49530Y96266
X49530Y98806
X49530Y101346
X49530Y103886
X1270Y119126
X1270Y121666
X52578Y26670
X1270Y124206
X1270Y126746
X1270Y103886
X1270Y106426
X1270Y108966
X1270Y111506
X1270Y114046
X1270Y116586
X49530Y106426
X49530Y108966
X49530Y111506
X49530Y114046
X49530Y116586
X49530Y121666
X49530Y124206
X49530Y126746
X100838Y96266
X100838Y98806
X100838Y101346
X100838Y103886
X52578Y119126
X52578Y121666
X52578Y124206
X52578Y126746
X52578Y103886
X52578Y106426
X52578Y108966
X52578Y111506
X52578Y114046
X52578Y116586
X100838Y106426
X100838Y108966
X100838Y111506
X100838Y114046
X49530Y6350
X49530Y8890
X49530Y11430
X49530Y13970
X1270Y29210
X1270Y31750
X1270Y34290
X1270Y36830
X1270Y13970
X1270Y16510
X1270Y19050
X1270Y21590
X1270Y24130
X1270Y26670
X49530Y16510
X49530Y19050
X49530Y21590
X49530Y24130
X49530Y26670
X49530Y29210
X49530Y31750
X49530Y34290
X49530Y36830
X100838Y116586
X100838Y119126
X100838Y121666
X100838Y124206
X100838Y6350
X100838Y8890
X100838Y11430
X100838Y13970
X52578Y29210
X52578Y31750
X52578Y34290
X52578Y36830
X52578Y13970
X52578Y16510
X52578Y19050
X52578Y21590
X52578Y24130
X49530Y119126
X100838Y16510
X100838Y19050
X100838Y21590
X100838Y24130
X100838Y26670
X100838Y29210
X100838Y31750
X100838Y34290
X100838Y36830
X49530Y51308
X49530Y53848
X49530Y56388
X49530Y58928
X1270Y74168
X1270Y76708
X1270Y79248
X1270Y81788
X1270Y58928
X1270Y61468
X1270Y64008
X1270Y66548
X1270Y69088
X1270Y71628
X49530Y61468
X49530Y64008
X49530Y66548
X49530Y69088
X49530Y71628
X49530Y74168
X49530Y76708
X49530Y79248
X49530Y81788
X100838Y51308
X100838Y53848
X100838Y56388
X100838Y58928
X52578Y74168
X52578Y76708
X52578Y79248
X52578Y81788
X52578Y58928
X52578Y61468
X52578Y64008
X52578Y66548
T3
X29397Y49073
X80706Y4115
X72706Y49073
X21398Y4115
X29397Y4115
X80706Y49073
X80706Y94031
X72706Y94031
X21398Y94031
X21398Y49073
X29397Y94031
X72706Y4115
T4
X16510Y90794
X34290Y90794
X16510Y2678
X16510Y878
X34290Y2678
X34290Y878
X67818Y92594
X67818Y2678
X67818Y878
X85598Y2678
X85598Y878
X67818Y90794
X85598Y92594
X16510Y47636
X16510Y45836
X34290Y47636
X34290Y45836
X85598Y90794
X34290Y92594
X67818Y47636
X67818Y45836
X85598Y47636
X85598Y45836
X16510Y92594
T5
X22510Y5286
X28290Y5286
X79598Y5286
X28290Y50244
X73818Y5286
X73818Y50244
X79598Y50244
X22510Y50244
X73818Y95202
X79598Y95202
X28290Y95202
X22510Y95202
T6
X29718Y1636
X29718Y5816
X21082Y5816
X72390Y1636
X81026Y1636
X81026Y5816
X72390Y5816
X29718Y46594
X29718Y50774
X72390Y46594
X81026Y46594
X21082Y1636
X81026Y50774
X21082Y91552
X29718Y91552
X72390Y91552
X81026Y91552
X81026Y95732
X72390Y95732
X29718Y95732
X21082Y95732
X72390Y50774
X21082Y50774
X21082Y46594
T7
X85471Y4572
X82423Y1905
X82423Y4445
X88773Y1397
X59309Y15875
X58420Y12700
X58420Y8890
X58420Y10795
X67056Y2159
X69850Y34290
X64135Y36830
X65151Y36830
X70612Y5080
X70612Y12700
X72263Y9906
X64008Y21590
X65278Y19177
X63373Y26162
X64643Y26162
X62103Y26162
X60198Y32639
X55118Y32639
X95532Y29210
X93246Y33020
X98298Y33020
X83058Y34290
X73406Y29972
X77089Y29972
X77089Y24003
X73406Y24003
X75184Y29972
X75438Y24003
X96802Y22860
X95786Y22860
X97818Y22860
X92357Y21590
X90678Y19050
X91948Y19050
X93218Y19050
X88011Y19050
X89535Y19050
X58293Y29718
X53848Y30480
X67818Y12700
X69088Y12700
X61976Y15875
X61658Y21590
X59055Y20828
X91694Y11430
X94424Y5080
X95504Y3937
X96901Y9906
X97917Y8636
X88420Y22860
X89408Y22860
X89408Y4445
X79756Y29972
X70993Y17526
X87150Y24892
X99596Y25400
X93980Y15367
X78994Y13208
X84074Y12446
X81788Y20320
X99596Y35560
X54864Y35560
X76708Y17780
X70993Y1905
X69596Y8636
X55880Y22987
X65786Y14351
X56959Y35370
X86868Y36957
X59817Y18288
X74168Y34290
X77978Y34290
X61087Y35306
X66167Y33909
X65278Y21590
X65278Y23368
X95758Y33274
X95758Y27432
X93345Y16510
X57658Y32667
X57658Y29210
X68707Y15240
X71755Y21717
X71755Y23622
X79883Y23368
X79883Y24892
X86995Y13970
X91948Y16510
X92710Y15748
X69469Y15240
X66929Y33909
X89725Y36767
X85471Y7112
X74803Y4445
X78613Y4445
X54483Y22860
X54483Y25146
X70866Y11176
X68199Y11176
X75902Y5398
X77014Y5398
X83538Y27305
X73360Y10577
X74041Y23622
X74041Y18669
X83157Y26647
X74168Y10577
X74722Y23622
X74595Y18161
X98298Y35560
X92710Y36350
X89888Y33020
X81280Y30254
X90678Y35560
X94488Y35560
X80800Y29718
X90678Y33020
X64516Y13335
X89154Y33020
X67183Y31496
X66548Y15748
X91440Y33020
X87503Y31778
X86769Y5080
X86313Y17860
X89027Y3175
X88392Y20320
X89408Y20320
X88138Y16510
X89408Y16510
X90678Y16510
X86106Y14605
X86106Y12065
X95504Y10795
X95504Y9906
X76835Y12954
X77597Y12954
X60198Y15875
X61341Y6068
X60706Y2540
X95758Y20320
X97790Y20320
X64008Y22479
X64008Y20701
X56888Y23002
X93853Y14605
X90170Y12700
X64996Y12700
X63528Y12700
X63246Y17145
X94996Y22860
X92456Y19685
X94968Y19685
X92202Y23243
X90043Y13924
X55344Y17780
X92883Y23241
X94329Y13970
X89725Y15593
X56025Y17780
X72489Y17653
X81407Y10543
X64008Y18288
X67310Y18034
X84328Y15367
X65047Y17376
X85090Y14605
X70627Y19035
X61976Y13589
X75438Y19177
X65913Y17249
X77724Y20447
X64516Y17808
X70358Y20701
X73406Y17653
X74125Y12914
X62611Y13208
X82423Y11204
X69088Y4699
X65084Y3115
X93853Y28448
X70866Y33909
X70358Y26670
X69850Y30480
X69850Y29718
X96238Y30861
X81788Y33274
X66167Y36830
X93853Y29972
X83284Y31496
X58293Y28702
X94488Y30861
X83566Y32131
X57045Y28680
X56896Y33909
X55890Y27650
X95278Y30869
X83058Y32639
X56642Y34569
X88773Y34364
X97663Y28321
X71247Y34618
X70739Y29337
X57023Y29718
X97345Y7239
X90043Y14605
X96393Y12446
X98425Y7239
X86995Y15240
X86995Y12700
X63090Y5871
X67282Y23213
X67282Y24130
X86134Y20320
X86134Y21590
X70358Y23622
X61976Y12065
X69723Y21717
X59055Y27305
X66957Y30789
X58928Y33149
X67003Y21590
X60706Y1143
X58420Y15875
X63119Y5080
X92583Y1397
X27940Y48768
X22860Y48768
X34163Y49530
X31115Y46863
X31115Y49403
X37465Y46355
X8001Y60833
X7112Y57658
X7112Y53848
X7112Y55753
X15748Y47117
X18542Y79248
X12827Y81788
X13843Y81788
X19304Y50038
X19304Y57658
X20955Y54864
X12700Y66548
X13970Y64135
X12065Y71120
X13335Y71120
X10795Y71120
X8890Y77597
X3810Y77597
X44224Y74168
X41938Y77978
X46990Y77978
X31750Y79248
X22098Y74930
X25781Y74930
X25781Y68961
X22098Y68961
X23876Y74930
X24130Y68961
X45494Y67818
X44478Y67818
X46510Y67818
X41049Y66548
X39370Y64008
X40640Y64008
X41910Y64008
X36703Y64008
X38227Y64008
X6985Y74676
X2540Y75438
X16510Y57658
X17780Y57658
X10668Y60833
X10351Y66548
X7747Y65786
X40386Y56388
X43117Y50038
X44196Y48895
X45593Y54864
X46609Y53594
X37112Y67818
X38100Y67818
X38100Y49403
X28448Y74930
X19685Y62484
X35842Y69850
X48288Y70358
X42672Y60325
X27686Y58166
X32766Y57404
X30480Y65278
X48288Y80518
X3556Y80518
X25400Y62738
X19685Y46863
X18288Y53594
X4572Y67945
X14478Y59309
X5651Y80328
X35560Y81915
X8509Y63246
X22860Y79248
X26670Y79248
X9779Y80264
X14859Y78867
X13970Y66548
X13970Y68326
X44450Y78232
X44450Y72390
X42037Y61468
X6350Y77625
X6350Y74168
X17399Y60198
X20447Y66675
X20447Y68580
X28575Y68326
X28575Y69850
X35687Y58928
X40640Y61468
X41402Y60706
X18161Y60198
X15621Y78867
X38418Y81725
X34163Y52070
X23495Y49403
X27305Y49403
X3175Y67818
X3175Y70104
X19558Y56134
X16891Y56134
X24594Y50355
X25706Y50355
X32230Y72263
X22052Y55535
X22733Y68580
X22733Y63627
X31849Y71605
X22860Y55535
X23414Y68580
X23287Y63119
X46990Y80518
X41402Y81308
X38580Y77978
X29972Y75212
X39370Y80518
X43180Y80518
X29492Y74676
X39370Y77978
X13208Y58293
X37846Y77978
X15875Y76454
X15240Y60706
X40132Y77978
X36195Y76736
X35461Y50038
X35005Y62818
X37719Y48133
X37084Y65278
X38100Y65278
X36830Y61468
X38100Y61468
X39370Y61468
X34798Y59563
X34798Y57023
X44196Y55753
X44196Y54864
X25527Y57912
X26289Y57912
X8890Y60833
X10033Y51026
X9398Y47498
X44450Y65278
X46482Y65278
X12700Y67437
X12700Y65659
X5580Y67960
X42545Y59563
X38862Y57658
X13688Y57658
X12220Y57658
X11938Y62103
X43688Y67818
X41148Y64643
X43660Y64643
X40894Y68201
X38735Y58882
X4036Y62738
X41575Y68199
X43021Y58928
X38418Y60551
X4717Y62738
X21181Y62611
X30099Y55501
X12700Y63246
X16002Y62992
X33020Y60325
X13739Y62334
X33782Y59563
X19319Y63993
X10668Y58547
X24130Y64135
X14605Y62207
X26416Y65405
X13208Y62766
X19050Y65659
X22098Y62611
X22817Y57872
X11303Y58166
X31115Y56162
X17780Y49657
X13776Y48073
X42545Y73406
X19558Y78867
X19050Y71628
X18542Y75438
X18542Y74676
X44930Y75819
X30480Y78232
X14859Y81788
X42545Y74930
X31976Y76454
X6985Y73660
X43180Y75819
X32258Y77089
X5737Y73638
X5588Y78867
X4582Y72608
X43970Y75827
X31750Y77597
X5334Y79527
X37465Y79322
X46355Y73279
X19939Y79576
X19431Y74295
X5715Y74676
X46037Y52197
X38735Y59563
X45085Y57404
X47117Y52197
X35687Y60198
X35687Y57658
X11782Y50829
X15974Y68171
X15974Y69088
X34826Y65278
X34826Y66548
X19050Y68580
X10668Y57023
X18415Y66675
X7747Y72263
X15649Y75747
X7620Y78107
X15695Y66548
X9398Y46101
X7112Y60833
X11811Y50038
X41275Y46355
X79248Y48768
X74168Y48768
X85471Y49530
X82423Y46863
X82423Y49403
X88773Y46355
X59309Y60833
X58420Y57658
X58420Y53848
X58420Y55753
X67056Y47117
X69850Y79248
X64135Y81788
X65151Y81788
X70612Y50038
X70612Y57658
X72263Y54864
X64008Y66548
X65278Y64135
X63373Y71120
X64643Y71120
X62103Y71120
X60198Y77597
X55118Y77597
X95532Y74168
X93246Y77978
X98298Y77978
X83058Y79248
X73406Y74930
X77089Y74930
X77089Y68961
X73406Y68961
X75184Y74930
X75438Y68961
X96802Y67818
X95786Y67818
X97818Y67818
X92357Y66548
X90678Y64008
X91948Y64008
X93218Y64008
X88011Y64008
X89535Y64008
X58293Y74676
X53848Y75438
X67818Y57658
X69088Y57658
X61976Y60833
X61658Y66548
X59055Y65786
X91694Y56388
X94424Y50038
X95504Y48895
X96901Y54864
X97917Y53594
X88420Y67818
X89408Y67818
X89408Y49403
X79756Y74930
X70993Y62484
X87150Y69850
X99596Y70358
X93980Y60325
X78994Y58166
X84074Y57404
X81788Y65278
X99596Y80518
X54864Y80518
X76708Y62738
X70993Y46863
X69596Y53594
X55880Y67945
X65786Y59309
X56959Y80328
X86868Y81915
X59817Y63246
X74168Y79248
X77978Y79248
X61087Y80264
X66167Y78867
X65278Y66548
X65278Y68326
X95758Y78232
X95758Y72390
X93345Y61468
X57658Y77625
X57658Y74168
X68707Y60198
X71755Y66675
X71755Y68580
X79883Y68326
X79883Y69850
X86995Y58928
X91948Y61468
X92710Y60706
X69469Y60198
X66929Y78867
X89725Y81725
X85471Y52070
X74803Y49403
X78613Y49403
X54483Y67818
X54483Y70104
X70866Y56134
X68199Y56134
X75902Y50355
X77014Y50355
X83538Y72263
X73360Y55535
X74041Y68580
X74041Y63627
X83157Y71605
X74168Y55535
X74722Y68580
X74595Y63119
X98298Y80518
X92710Y81308
X31750Y32639
X81280Y75212
X90678Y80518
X94488Y80518
X80800Y74676
X90678Y77978
X64516Y58293
X89154Y77978
X67183Y76454
X66548Y60706
X91440Y77978
X87503Y76736
X86769Y50038
X86313Y62818
X89027Y48133
X88392Y65278
X89408Y65278
X88138Y61468
X89408Y61468
X90678Y61468
X86106Y59563
X86106Y57023
X95504Y55753
X95504Y54864
X76835Y57912
X77597Y57912
X60198Y60833
X61341Y51026
X60706Y47498
X95758Y65278
X97790Y65278
X64008Y67437
X64008Y65659
X56888Y67960
X93853Y59563
X90170Y57658
X64996Y57658
X63528Y57658
X63246Y62103
X94996Y67818
X92456Y64643
X94968Y64643
X92202Y68201
X90043Y58882
X55344Y62738
X92883Y68199
X94329Y58928
X89725Y60551
X56025Y62738
X72489Y62611
X81407Y55501
X64008Y63246
X67310Y62992
X84328Y60325
X65047Y62334
X85090Y59563
X70627Y63993
X61976Y58547
X75438Y64135
X65913Y62207
X77724Y65405
X64516Y62766
X70358Y65659
X73406Y62611
X74125Y57872
X62611Y58166
X82423Y56162
X69088Y49657
X65084Y48073
X93853Y73406
X70866Y78867
X70358Y71628
X69850Y75438
X69850Y74676
X96238Y75819
X81788Y78232
X66167Y81788
X93853Y74930
X83284Y76454
X58293Y73660
X94488Y75819
X83566Y77089
X57045Y73638
X56896Y78867
X55890Y72608
X95278Y75827
X83058Y77597
X56642Y79527
X88773Y79322
X97663Y73279
X71247Y79576
X70739Y74295
X57023Y74676
X97345Y52197
X90043Y59563
X96393Y57404
X98425Y52197
X86995Y60198
X86995Y57658
X63090Y50829
X67282Y68171
X67282Y69088
X86134Y65278
X86134Y66548
X70358Y68580
X61976Y57023
X69723Y66675
X59055Y72263
X66957Y75747
X58928Y78107
X67003Y66548
X60706Y46101
X58420Y60833
X63119Y50038
X92583Y46355
X27940Y93726
X22860Y93726
X34163Y94488
X31115Y91821
X31115Y94361
X37465Y91313
X8001Y105791
X7112Y102616
X7112Y98806
X7112Y100711
X15748Y92075
X18542Y124206
X12827Y126746
X13843Y126746
X19304Y94996
X19304Y102616
X20955Y99822
X12700Y111506
X13970Y109093
X12065Y116078
X13335Y116078
X10795Y116078
X8890Y122555
X3810Y122555
X44224Y119126
X41938Y122936
X46990Y122936
X31750Y124206
X22098Y119888
X25781Y119888
X25781Y113919
X22098Y113919
X23876Y119888
X24130Y113919
X45494Y112776
X44478Y112776
X46510Y112776
X41049Y111506
X39370Y108966
X40640Y108966
X41910Y108966
X36703Y108966
X38227Y108966
X6985Y119634
X2540Y120396
X16510Y102616
X17780Y102616
X10668Y105791
X10351Y111506
X7747Y110744
X40386Y101346
X43117Y94996
X44196Y93853
X45593Y99822
X46609Y98552
X37112Y112776
X38100Y112776
X38100Y94361
X28448Y119888
X19685Y107442
X35842Y114808
X48288Y115316
X42672Y105283
X27686Y103124
X32766Y102362
X30480Y110236
X48288Y125476
X3556Y125476
X25400Y107696
X19685Y91821
X18288Y98552
X4572Y112903
X14478Y104267
X5651Y125285
X35560Y126873
X8509Y108204
X22860Y124206
X26670Y124206
X9779Y125222
X14859Y123825
X13970Y111506
X13970Y113284
X44450Y123190
X44450Y117348
X42037Y106426
X6350Y122583
X6350Y119126
X17399Y105156
X20447Y111633
X20447Y113538
X28575Y113284
X28575Y114808
X35687Y103886
X40640Y106426
X41402Y105664
X18161Y105156
X15621Y123825
X38418Y126682
X34163Y97028
X23495Y94361
X27305Y94361
X3175Y112776
X3175Y115062
X19558Y101092
X16891Y101092
X24594Y95313
X25706Y95313
X32230Y117221
X22052Y100493
X22733Y113538
X22733Y108585
X31849Y116563
X22860Y100493
X23414Y113538
X23287Y108077
X46990Y125476
X41402Y126266
X38580Y122936
X29972Y120170
X39370Y125476
X43180Y125476
X29492Y119634
X39370Y122936
X13208Y103251
X37846Y122936
X15875Y121412
X15240Y105664
X40132Y122936
X36195Y121694
X35461Y94996
X35005Y107776
X37719Y93091
X37084Y110236
X38100Y110236
X36830Y106426
X38100Y106426
X39370Y106426
X34798Y104521
X34798Y101981
X44196Y100711
X44196Y99822
X25527Y102870
X26289Y102870
X8890Y105791
X10033Y95984
X9398Y92456
X44450Y110236
X46482Y110236
X12700Y112395
X12700Y110617
X5580Y112918
X42545Y104521
X38862Y102616
X13688Y102616
X12220Y102616
X11938Y107061
X43688Y112776
X41148Y109601
X43660Y109601
X40894Y113159
X38735Y103840
X4036Y107696
X41575Y113157
X43021Y103886
X38418Y105509
X4717Y107696
X21181Y107569
X30099Y100459
X12700Y108204
X16002Y107950
X33020Y105283
X13739Y107292
X33782Y104521
X19319Y108951
X10668Y103505
X24130Y109093
X14605Y107165
X26416Y110363
X13208Y107724
X19050Y110617
X22098Y107569
X22817Y102830
X11303Y103124
X31115Y101120
X17780Y94615
X13776Y93031
X42545Y118364
X19558Y123825
X19050Y116586
X18542Y120396
X18542Y119634
X44930Y120777
X30480Y123190
X14859Y126746
X42545Y119888
X31976Y121412
X6985Y118618
X43180Y120777
X32258Y122047
X5737Y118596
X5588Y123825
X4582Y117566
X43970Y120785
X31750Y122555
X5334Y124485
X37465Y124280
X46355Y118237
X19939Y124534
X19431Y119253
X5715Y119634
X46037Y97155
X38735Y104521
X45085Y102362
X47117Y97155
X35687Y105156
X35687Y102616
X11782Y95787
X15974Y113129
X15974Y114046
X34826Y110236
X34826Y111506
X19050Y113538
X10668Y101981
X18415Y111633
X7747Y117221
X15649Y120705
X7620Y123065
X15695Y111506
X9398Y91059
X7112Y105791
X11811Y94996
X41275Y91313
X79248Y93726
X74168Y93726
X85471Y94488
X82423Y91821
X82423Y94361
X88773Y91313
X59309Y105791
X58420Y102616
X58420Y98806
X58420Y100711
X67056Y92075
X69850Y124206
X64135Y126746
X65151Y126746
X70612Y94996
X70612Y102616
X72263Y99822
X64008Y111506
X65278Y109093
X63373Y116078
X64643Y116078
X62103Y116078
X60198Y122555
X55118Y122555
X95532Y119126
X93246Y122936
X98298Y122936
X83058Y124206
X73406Y119888
X77089Y119888
X77089Y113919
X73406Y113919
X75184Y119888
X75438Y113919
X96802Y112776
X95786Y112776
X97818Y112776
X92357Y111506
X90678Y108966
X91948Y108966
X93218Y108966
X88011Y108966
X89535Y108966
X58293Y119634
X53848Y120396
X67818Y102616
X69088Y102616
X61976Y105791
X61658Y111506
X59055Y110744
X91694Y101346
X94424Y94996
X95504Y93853
X96901Y99822
X97917Y98552
X88420Y112776
X89408Y112776
X89408Y94361
X79756Y119888
X27940Y3810
X87150Y114808
X99596Y115316
X93980Y105283
X78994Y103124
X84074Y102362
X81788Y110236
X99596Y125476
X54864Y125476
X76708Y107696
X70993Y91821
X69596Y98552
X55880Y112903
X65786Y104267
X56959Y125285
X86868Y126873
X59817Y108204
X74168Y124206
X77978Y124206
X61087Y125222
X66167Y123825
X65278Y111506
X65278Y113284
X95758Y123190
X95758Y117348
X93345Y106426
X57658Y122583
X57658Y119126
X68707Y105156
X71755Y111633
X71755Y113538
X79883Y113284
X79883Y114808
X86995Y103886
X91948Y106426
X92710Y105664
X69469Y105156
X66929Y123825
X89725Y126682
X85471Y97028
X74803Y94361
X78613Y94361
X54483Y112776
X54483Y115062
X70866Y101092
X68199Y101092
X75902Y95313
X77014Y95313
X83538Y117221
X73360Y100493
X74041Y113538
X74041Y108585
X83157Y116563
X74168Y100493
X74722Y113538
X74595Y108077
X98298Y125476
X92710Y126266
X89888Y122936
X81280Y120170
X90678Y125476
X94488Y125476
X80800Y119634
X90678Y122936
X64516Y103251
X89154Y122936
X67183Y121412
X66548Y105664
X91440Y122936
X87503Y121694
X86769Y94996
X86313Y107776
X89027Y93091
X88392Y110236
X89408Y110236
X88138Y106426
X89408Y106426
X90678Y106426
X86106Y104521
X86106Y101981
X95504Y100711
X95504Y99822
X76835Y102870
X77597Y102870
X60198Y105791
X61341Y95984
X60706Y92456
X95758Y110236
X97790Y110236
X64008Y112395
X64008Y110617
X56888Y112918
X93853Y104521
X90170Y102616
X64996Y102616
X63528Y102616
X63246Y107061
X94996Y112776
X92456Y109601
X94968Y109601
X92202Y113159
X90043Y103840
X55344Y107696
X92883Y113157
X94329Y103886
X89725Y105509
X56025Y107696
X72489Y107569
X81407Y100459
X64008Y108204
X67310Y107950
X84328Y105283
X65047Y107292
X85090Y104521
X70627Y108951
X61976Y103505
X75438Y109093
X65913Y107165
X77724Y110363
X64516Y107724
X70358Y110617
X73406Y107569
X74125Y102830
X62611Y103124
X82423Y101120
X69088Y94615
X65084Y93031
X93853Y118364
X70866Y123825
X70358Y116586
X69850Y120396
X69850Y119634
X96238Y120777
X81788Y123190
X66167Y126746
X93853Y119888
X83284Y121412
X58293Y118618
X94488Y120777
X83566Y122047
X57045Y118596
X56896Y123825
X55890Y117566
X95278Y120785
X83058Y122555
X56642Y124485
X88773Y124280
X97663Y118237
X71247Y124534
X70739Y119253
X57023Y119634
X97345Y97155
X90043Y104521
X96393Y102362
X98425Y97155
X86995Y105156
X86995Y102616
X63090Y95787
X67282Y113129
X67282Y114046
X86134Y110236
X86134Y111506
X70358Y113538
X61976Y101981
X69723Y111633
X59055Y117221
X66957Y120705
X58928Y123065
X67003Y111506
X60706Y91059
X58420Y105791
X63119Y94996
X92583Y91313
X22860Y3810
X34163Y4572
X31115Y1905
X31115Y4445
X37465Y1397
X8001Y15875
X7112Y12700
X7112Y8890
X7112Y10795
X15748Y2159
X18542Y34290
X12827Y36830
X13843Y36830
X19304Y5080
X19304Y12700
X20955Y9906
X12700Y21590
X13970Y19177
X12065Y26162
X13335Y26162
X10795Y26162
X8890Y32639
X3810Y32639
X44224Y29210
X41938Y33020
X46990Y33020
X31750Y34290
X22098Y29972
X25781Y29972
X25781Y24003
X89888Y77978
X22098Y24003
X23876Y29972
X24130Y24003
X45494Y22860
X44478Y22860
X46510Y22860
X41049Y21590
X39370Y19050
X40640Y19050
X41910Y19050
X36703Y19050
X38227Y19050
X6985Y29718
X2540Y30480
X16510Y12700
X17780Y12700
X10668Y15875
X10351Y21590
X7747Y20828
X40386Y11430
X43117Y5080
X44196Y3937
X45593Y9906
X46609Y8636
X37112Y22860
X38100Y22860
X38100Y4445
X28448Y29972
X19685Y17526
X35842Y24892
X48288Y25400
X42672Y15367
X27686Y13208
X32766Y12446
X30480Y20320
X48288Y35560
X3556Y35560
X25400Y17780
X19685Y1905
X18288Y8636
X4572Y22987
X14478Y14351
X5651Y35370
X35560Y36957
X8509Y18288
X22860Y34290
X26670Y34290
X9779Y35306
X14859Y33909
X13970Y21590
X13970Y23368
X44450Y33274
X44450Y27432
X42037Y16510
X6350Y32667
X6350Y29210
X17399Y15240
X20447Y21717
X20447Y23622
X28575Y23368
X28575Y24892
X35687Y13970
X40640Y16510
X41402Y15748
X18161Y15240
X15621Y33909
X38418Y36767
X34163Y7112
X23495Y4445
X27305Y4445
X3175Y22860
X3175Y25146
X19558Y11176
X16891Y11176
X24594Y5398
X25706Y5398
X32230Y27305
X22052Y10577
X22733Y23622
X22733Y18669
X31849Y26647
X22860Y10577
X23414Y23622
X23287Y18161
X46990Y35560
X41402Y36350
X38580Y33020
X29972Y30254
X39370Y35560
X43180Y35560
X29492Y29718
X39370Y33020
X13208Y13335
X37846Y33020
X15875Y31496
X15240Y15748
X40132Y33020
X36195Y31778
X35461Y5080
X35005Y17860
X37719Y3175
X37084Y20320
X38100Y20320
X36830Y16510
X38100Y16510
X39370Y16510
X34798Y14605
X34798Y12065
X44196Y10795
X44196Y9906
X25527Y12954
X26289Y12954
X8890Y15875
X10033Y6068
X9398Y2540
X44450Y20320
X46482Y20320
X12700Y22479
X12700Y20701
X5580Y23002
X42545Y14605
X38862Y12700
X13688Y12700
X12220Y12700
X11938Y17145
X43688Y22860
X41148Y19685
X43660Y19685
X40894Y23243
X38735Y13924
X4036Y17780
X41575Y23241
X43021Y13970
X38418Y15593
X4717Y17780
X21181Y17653
X30099Y10543
X12700Y18288
X16002Y18034
X33020Y15367
X13739Y17376
X33782Y14605
X19319Y19035
X10668Y13589
X24130Y19177
X14605Y17249
X26416Y20447
X13208Y17808
X19050Y20701
X22098Y17653
X22817Y12914
X11303Y13208
X31115Y11204
X17780Y4699
X13776Y3115
X42545Y28448
X19558Y33909
X19050Y26670
X18542Y30480
X18542Y29718
X44930Y30861
X30480Y33274
X14859Y36830
X42545Y29972
X31976Y31496
X6985Y28702
X43180Y30861
X32258Y32131
X5737Y28680
X5588Y33909
X4582Y27650
X43970Y30869
X5334Y34569
X37465Y34364
X46355Y28321
X19939Y34618
X19431Y29337
X5715Y29718
X46037Y7239
X38735Y14605
X45085Y12446
X47117Y7239
X35687Y15240
X35687Y12700
X11782Y5871
X15974Y23213
X15974Y24130
X34826Y20320
X34826Y21590
X19050Y23622
X10668Y12065
X18415Y21717
X7747Y27305
X15649Y30789
X7620Y33149
X15695Y21590
X9398Y1143
X7112Y15875
X11811Y5080
X41275Y1397
X79248Y3810
X74168Y3810
X70993Y107442
M30